<svg width="181" height="55" viewBox="0 0 181 55" fill="none" xmlns="http://www.w3.org/2000/svg">
<path d="M80.3443 3.25958V5.00936H74.974V15H72.7646V3.25958H80.3443ZM74.2563 7.65418H77.1027C78.0112 7.65418 78.7907 7.80738 79.4412 8.11379C80.0916 8.41483 80.5889 8.83682 80.9329 9.37976C81.2823 9.9227 81.457 10.5597 81.457 11.2908C81.457 11.8391 81.3576 12.3391 81.1587 12.7906C80.9652 13.2422 80.6802 13.6346 80.3039 13.9679C79.9277 14.2958 79.4707 14.5511 78.9332 14.7339C78.3956 14.9113 77.7855 15 77.1027 15H72.7646V3.25958H74.9901V13.2583H77.1027C77.5866 13.2583 77.987 13.1669 78.3042 12.9841C78.6214 12.8014 78.8579 12.5595 79.0138 12.2584C79.1697 11.9574 79.2476 11.6295 79.2476 11.2747C79.2476 10.9253 79.1697 10.6081 79.0138 10.3232C78.8579 10.0383 78.6214 9.8125 78.3042 9.64585C77.987 9.47921 77.5866 9.39589 77.1027 9.39589H74.2563V7.65418ZM86.6902 10.8312L89.6253 3.25958H92.0363L87.9884 12.7987C87.854 13.1051 87.7008 13.4007 87.5288 13.6857C87.3568 13.9706 87.1498 14.2259 86.9079 14.4517C86.6714 14.6721 86.3838 14.8468 86.0451 14.9758C85.7119 15.1048 85.3087 15.1693 84.8356 15.1693C84.712 15.1693 84.5641 15.164 84.3921 15.1532C84.2201 15.1478 84.0884 15.1398 83.997 15.129V13.3873C84.0615 13.4034 84.1664 13.4142 84.3115 13.4196C84.462 13.4249 84.5695 13.4276 84.634 13.4276C84.9458 13.4276 85.1931 13.3792 85.3759 13.2825C85.564 13.1803 85.7119 13.0433 85.8194 12.8712C85.9323 12.6938 86.0317 12.4923 86.1177 12.2665L86.6902 10.8312ZM84.6098 3.25958L87.424 9.41201L88.0852 11.8069L86.3999 11.8552L82.2069 3.25958H84.6098ZM97.9468 10.7183H94.923V8.97659H97.9468C98.4414 8.97659 98.8419 8.89595 99.1483 8.73468C99.4601 8.56804 99.6885 8.34226 99.8337 8.05735C99.9788 7.76706 100.051 7.43646 100.051 7.06554C100.051 6.70537 99.9788 6.3694 99.8337 6.05761C99.6885 5.74582 99.4601 5.49317 99.1483 5.29964C98.8419 5.10612 98.4414 5.00936 97.9468 5.00936H95.6487V15H93.4313V3.25958H97.9468C98.8607 3.25958 99.6402 3.42354 100.285 3.75146C100.936 4.07399 101.43 4.52286 101.769 5.09806C102.113 5.66787 102.285 6.31833 102.285 7.04942C102.285 7.80738 102.113 8.46052 101.769 9.00884C101.43 9.55716 100.936 9.97914 100.285 10.2748C99.6402 10.5705 98.8607 10.7183 97.9468 10.7183ZM113.534 8.83144V9.4362C113.534 10.3232 113.415 11.1215 113.179 11.8311C112.942 12.5353 112.606 13.1346 112.171 13.6292C111.735 14.1238 111.217 14.5028 110.615 14.7662C110.012 15.0296 109.343 15.1613 108.607 15.1613C107.881 15.1613 107.214 15.0296 106.607 14.7662C106.005 14.5028 105.483 14.1238 105.043 13.6292C104.602 13.1346 104.261 12.5353 104.019 11.8311C103.777 11.1215 103.656 10.3232 103.656 9.4362V8.83144C103.656 7.93909 103.777 7.1408 104.019 6.43659C104.261 5.73238 104.599 5.133 105.035 4.63844C105.47 4.1385 105.989 3.75683 106.591 3.49342C107.198 3.23002 107.865 3.09831 108.591 3.09831C109.327 3.09831 109.996 3.23002 110.598 3.49342C111.2 3.75683 111.719 4.1385 112.155 4.63844C112.595 5.133 112.934 5.73238 113.171 6.43659C113.413 7.1408 113.534 7.93909 113.534 8.83144ZM111.292 9.4362V8.81532C111.292 8.17561 111.233 7.61386 111.114 7.13005C110.996 6.64087 110.822 6.22963 110.59 5.89634C110.359 5.56305 110.074 5.31308 109.736 5.14644C109.397 4.97442 109.015 4.88841 108.591 4.88841C108.161 4.88841 107.779 4.97442 107.446 5.14644C107.118 5.31308 106.838 5.56305 106.607 5.89634C106.376 6.22963 106.198 6.64087 106.075 7.13005C105.957 7.61386 105.897 8.17561 105.897 8.81532V9.4362C105.897 10.0705 105.957 10.6323 106.075 11.1215C106.198 11.6107 106.376 12.0246 106.607 12.3632C106.844 12.6965 107.128 12.9492 107.462 13.1212C107.795 13.2932 108.177 13.3792 108.607 13.3792C109.037 13.3792 109.418 13.2932 109.752 13.1212C110.085 12.9492 110.365 12.6965 110.59 12.3632C110.822 12.0246 110.996 11.6107 111.114 11.1215C111.233 10.6323 111.292 10.0705 111.292 9.4362ZM119.912 9.76681H116.912L116.896 8.20249H119.468C119.909 8.20249 120.277 8.14067 120.573 8.01703C120.869 7.89339 121.092 7.71331 121.242 7.47678C121.398 7.24025 121.476 6.95265 121.476 6.61399C121.476 6.23769 121.403 5.93128 121.258 5.69475C121.119 5.45822 120.898 5.2862 120.597 5.17869C120.296 5.0658 119.914 5.00936 119.452 5.00936H117.63V15H115.412V3.25958H119.452C120.119 3.25958 120.713 3.32409 121.234 3.45311C121.761 3.57675 122.207 3.77027 122.573 4.03368C122.938 4.29708 123.215 4.62769 123.403 5.02548C123.597 5.42328 123.693 5.89634 123.693 6.44466C123.693 6.92846 123.581 7.37464 123.355 7.78319C123.134 8.18637 122.793 8.51428 122.331 8.76694C121.874 9.01959 121.293 9.16473 120.589 9.20236L119.912 9.76681ZM119.815 15H116.259L117.186 13.2583H119.815C120.256 13.2583 120.619 13.1857 120.904 13.0406C121.194 12.8954 121.409 12.6965 121.549 12.4439C121.694 12.1858 121.766 11.8902 121.766 11.5569C121.766 11.1914 121.702 10.8742 121.573 10.6054C121.449 10.3366 121.25 10.1297 120.976 9.98452C120.707 9.83938 120.353 9.76681 119.912 9.76681H117.606L117.622 8.20249H120.557L121.065 8.80725C121.742 8.81263 122.293 8.94702 122.718 9.21043C123.148 9.47383 123.465 9.8125 123.669 10.2264C123.874 10.6403 123.976 11.0865 123.976 11.565C123.976 12.3176 123.812 12.9492 123.484 13.4599C123.161 13.9706 122.688 14.3549 122.065 14.613C121.446 14.871 120.697 15 119.815 15ZM127.411 7.65418H130.257C131.166 7.65418 131.945 7.80738 132.596 8.11379C133.246 8.41483 133.743 8.83682 134.087 9.37976C134.437 9.9227 134.611 10.5597 134.611 11.2908C134.611 11.8391 134.512 12.3391 134.313 12.7906C134.12 13.2422 133.835 13.6346 133.458 13.9679C133.082 14.2958 132.625 14.5511 132.088 14.7339C131.55 14.9113 130.94 15 130.257 15H125.919V3.25958H128.153V13.2583H130.257C130.741 13.2583 131.141 13.1669 131.459 12.9841C131.776 12.8014 132.012 12.5595 132.168 12.2584C132.324 11.9574 132.402 11.6295 132.402 11.2747C132.402 10.9253 132.324 10.6081 132.168 10.3232C132.012 10.0383 131.776 9.8125 131.459 9.64585C131.141 9.47921 130.741 9.39589 130.257 9.39589H127.411V7.65418ZM137.958 3.25958V15H135.74V3.25958H137.958ZM148.013 13.2583V15H141.772V13.2583H148.013ZM142.449 3.25958V15H140.232V3.25958H142.449ZM147.199 8.10573V9.80712H141.772V8.10573H147.199ZM147.989 3.25958V5.00936H141.772V3.25958H147.989Z" fill="#221E1E"/>
<path d="M77.8285 23.077V34.8174H75.6191V23.077H77.8285ZM81.4732 23.077V24.8267H72.0147V23.077H81.4732ZM90.73 33.0757V34.8174H84.4889V33.0757H90.73ZM85.1662 23.077V34.8174H82.9488V23.077H85.1662ZM89.9156 27.9231V29.6245H84.4889V27.9231H89.9156ZM90.7058 23.077V24.8267H84.4889V23.077H90.7058ZM94.036 23.077L96.3825 27.2619L98.737 23.077H101.285L97.8017 28.8988L101.374 34.8174H98.8016L96.3825 30.5518L93.9715 34.8174H91.3912L94.9633 28.8988L91.4799 23.077H94.036ZM110.526 27.9231V29.6648H104.349V27.9231H110.526ZM104.954 23.077V34.8174H102.737V23.077H104.954ZM112.171 23.077V34.8174H109.953V23.077H112.171ZM123.935 28.6488V29.2536C123.935 30.1406 123.817 30.9389 123.581 31.6484C123.344 32.3526 123.008 32.952 122.573 33.4466C122.137 33.9412 121.618 34.3201 121.016 34.5835C120.414 34.8469 119.745 34.9787 119.009 34.9787C118.283 34.9787 117.616 34.8469 117.009 34.5835C116.407 34.3201 115.885 33.9412 115.445 33.4466C115.004 32.952 114.662 32.3526 114.421 31.6484C114.179 30.9389 114.058 30.1406 114.058 29.2536V28.6488C114.058 27.7565 114.179 26.9582 114.421 26.254C114.662 25.5498 115.001 24.9504 115.436 24.4558C115.872 23.9559 116.391 23.5742 116.993 23.3108C117.6 23.0474 118.267 22.9157 118.992 22.9157C119.729 22.9157 120.398 23.0474 121 23.3108C121.602 23.5742 122.121 23.9559 122.557 24.4558C122.997 24.9504 123.336 25.5498 123.573 26.254C123.814 26.9582 123.935 27.7565 123.935 28.6488ZM121.694 29.2536V28.6327C121.694 27.993 121.635 27.4312 121.516 26.9474C121.398 26.4582 121.223 26.047 120.992 25.7137C120.761 25.3804 120.476 25.1305 120.138 24.9638C119.799 24.7918 119.417 24.7058 118.992 24.7058C118.562 24.7058 118.181 24.7918 117.847 24.9638C117.52 25.1305 117.24 25.3804 117.009 25.7137C116.778 26.047 116.6 26.4582 116.477 26.9474C116.358 27.4312 116.299 27.993 116.299 28.6327V29.2536C116.299 29.8879 116.358 30.4497 116.477 30.9389C116.6 31.428 116.778 31.842 117.009 32.1806C117.245 32.5139 117.53 32.7666 117.864 32.9386C118.197 33.1106 118.579 33.1966 119.009 33.1966C119.439 33.1966 119.82 33.1106 120.154 32.9386C120.487 32.7666 120.766 32.5139 120.992 32.1806C121.223 31.842 121.398 31.428 121.516 30.9389C121.635 30.4497 121.694 29.8879 121.694 29.2536ZM133.321 23.077V24.8267H127.588V23.077H133.321ZM134.958 23.077V34.8174H132.733V23.077H134.958ZM127.233 23.077H129.443L129.152 28.9391C129.109 29.8046 129.032 30.5626 128.919 31.213C128.806 31.8635 128.653 32.4198 128.459 32.8821C128.265 33.3391 128.024 33.71 127.733 33.9949C127.443 34.2798 127.099 34.4895 126.701 34.6239C126.309 34.7529 125.852 34.8174 125.33 34.8174H124.774V33.0757L125.088 33.0434C125.363 33.0219 125.599 32.9547 125.798 32.8418C126.002 32.7289 126.177 32.5596 126.322 32.3338C126.467 32.1027 126.586 31.807 126.677 31.4469C126.774 31.0867 126.849 30.6486 126.903 30.1325C126.962 29.6164 127.005 29.0117 127.032 28.3182L127.233 23.077ZM146.739 28.6488V29.2536C146.739 30.1406 146.621 30.9389 146.384 31.6484C146.148 32.3526 145.812 32.952 145.376 33.4466C144.941 33.9412 144.422 34.3201 143.82 34.5835C143.218 34.8469 142.549 34.9787 141.812 34.9787C141.086 34.9787 140.42 34.8469 139.812 34.5835C139.21 34.3201 138.689 33.9412 138.248 33.4466C137.807 32.952 137.466 32.3526 137.224 31.6484C136.982 30.9389 136.861 30.1406 136.861 29.2536V28.6488C136.861 27.7565 136.982 26.9582 137.224 26.254C137.466 25.5498 137.805 24.9504 138.24 24.4558C138.675 23.9559 139.194 23.5742 139.796 23.3108C140.404 23.0474 141.07 22.9157 141.796 22.9157C142.532 22.9157 143.202 23.0474 143.804 23.3108C144.406 23.5742 144.925 23.9559 145.36 24.4558C145.801 24.9504 146.14 25.5498 146.376 26.254C146.618 26.9582 146.739 27.7565 146.739 28.6488ZM144.497 29.2536V28.6327C144.497 27.993 144.438 27.4312 144.32 26.9474C144.202 26.4582 144.027 26.047 143.796 25.7137C143.565 25.3804 143.28 25.1305 142.941 24.9638C142.602 24.7918 142.221 24.7058 141.796 24.7058C141.366 24.7058 140.984 24.7918 140.651 24.9638C140.323 25.1305 140.044 25.3804 139.812 25.7137C139.581 26.047 139.404 26.4582 139.28 26.9474C139.162 27.4312 139.103 27.993 139.103 28.6327V29.2536C139.103 29.8879 139.162 30.4497 139.28 30.9389C139.404 31.428 139.581 31.842 139.812 32.1806C140.049 32.5139 140.334 32.7666 140.667 32.9386C141 33.1106 141.382 33.1966 141.812 33.1966C142.242 33.1966 142.624 33.1106 142.957 32.9386C143.29 32.7666 143.57 32.5139 143.796 32.1806C144.027 31.842 144.202 31.428 144.32 30.9389C144.438 30.4497 144.497 29.8879 144.497 29.2536ZM156.222 23.077V24.8267H150.851V34.8174H148.642V23.077H156.222ZM159.995 31.2695L164.954 23.077H167.18V34.8174H164.954V26.6249L159.995 34.8174H157.778V23.077H159.995V31.2695ZM171.607 31.2695L176.566 23.077H178.791V34.8174H176.566V26.6249L171.607 34.8174H169.389V23.077H171.607V31.2695Z" fill="#221E1E"/>
<path d="M75.9508 47.2534V47.5353C75.9508 47.8703 75.9089 48.1706 75.8251 48.4361C75.7414 48.7017 75.6209 48.9274 75.4636 49.1133C75.3063 49.2992 75.1173 49.4412 74.8967 49.5392C74.6781 49.6373 74.433 49.6863 74.1613 49.6863C73.8978 49.6863 73.6557 49.6373 73.4351 49.5392C73.2165 49.4412 73.0266 49.2992 72.8652 49.1133C72.7059 48.9274 72.5823 48.7017 72.4944 48.4361C72.4066 48.1706 72.3627 47.8703 72.3627 47.5353V47.2534C72.3627 46.9184 72.4056 46.6191 72.4914 46.3556C72.5792 46.09 72.7028 45.8643 72.8621 45.6784C73.0215 45.4905 73.2104 45.3475 73.429 45.2494C73.6496 45.1514 73.8917 45.1024 74.1552 45.1024C74.4269 45.1024 74.672 45.1514 74.8906 45.2494C75.1112 45.3475 75.3001 45.4905 75.4574 45.6784C75.6168 45.8643 75.7383 46.09 75.8221 46.3556C75.9079 46.6191 75.9508 46.9184 75.9508 47.2534ZM75.3655 47.5353V47.2472C75.3655 46.9817 75.3379 46.7468 75.2828 46.5425C75.2297 46.3382 75.151 46.1666 75.0468 46.0277C74.9427 45.8888 74.815 45.7836 74.6638 45.7121C74.5147 45.6406 74.3452 45.6049 74.1552 45.6049C73.9713 45.6049 73.8049 45.6406 73.6557 45.7121C73.5087 45.7836 73.382 45.8888 73.2758 46.0277C73.1716 46.1666 73.0909 46.3382 73.0337 46.5425C72.9765 46.7468 72.9479 46.9817 72.9479 47.2472V47.5353C72.9479 47.8029 72.9765 48.0398 73.0337 48.2461C73.0909 48.4504 73.1726 48.623 73.2788 48.764C73.3871 48.9029 73.5148 49.0081 73.6619 49.0796C73.811 49.1511 73.9775 49.1868 74.1613 49.1868C74.3533 49.1868 74.5239 49.1511 74.673 49.0796C74.8221 49.0081 74.9478 48.9029 75.0499 48.764C75.1541 48.623 75.2327 48.4504 75.2858 48.2461C75.339 48.0398 75.3655 47.8029 75.3655 47.5353ZM78.3837 45.6079H79.1221C79.3795 45.6079 79.6175 45.6519 79.8361 45.7397C80.0567 45.8255 80.2487 45.9481 80.4121 46.1074C80.5776 46.2667 80.7063 46.4567 80.7982 46.6773C80.8901 46.8959 80.9361 47.138 80.9361 47.4035C80.9361 47.6691 80.8901 47.9122 80.7982 48.1328C80.7063 48.3534 80.5776 48.5444 80.4121 48.7058C80.2487 48.8651 80.0567 48.9887 79.8361 49.0765C79.6175 49.1623 79.3795 49.2052 79.1221 49.2052H78.3837C78.1263 49.2052 77.8883 49.1623 77.6697 49.0765C77.4512 48.9887 77.2591 48.8651 77.0937 48.7058C76.9303 48.5464 76.8026 48.3575 76.7107 48.1389C76.6208 47.9183 76.5758 47.6752 76.5758 47.4096C76.5758 47.1441 76.6208 46.902 76.7107 46.6834C76.8026 46.4628 76.9303 46.2729 77.0937 46.1135C77.2591 45.9521 77.4512 45.8275 77.6697 45.7397C77.8883 45.6519 78.1263 45.6079 78.3837 45.6079ZM78.3837 46.0737C78.1161 46.0737 77.8893 46.1299 77.7034 46.2422C77.5175 46.3525 77.3766 46.5078 77.2806 46.708C77.1846 46.9081 77.1366 47.142 77.1366 47.4096C77.1366 47.6119 77.1631 47.7947 77.2162 47.9581C77.2714 48.1215 77.3521 48.2615 77.4583 48.3779C77.5645 48.4943 77.6953 48.5842 77.8505 48.6475C78.0058 48.7109 78.1835 48.7425 78.3837 48.7425H79.1283C79.3938 48.7425 79.6185 48.6874 79.8024 48.5771C79.9882 48.4647 80.1292 48.3084 80.2252 48.1083C80.3233 47.906 80.3723 47.6711 80.3723 47.4035C80.3723 47.2033 80.3447 47.0215 80.2896 46.8581C80.2344 46.6947 80.1537 46.5548 80.0475 46.4383C79.9433 46.3219 79.8136 46.232 79.6583 46.1687C79.5051 46.1053 79.3284 46.0737 79.1283 46.0737H78.3837ZM79.0394 44.9798V49.8088H78.4725V44.9798H79.0394ZM82.2996 48.6016L84.4966 45.1636H85.088V49.625H84.4966V46.184L82.2996 49.625H81.7113V45.1636H82.2996V48.6016ZM90.0335 49.1286L89.9783 50.7005H89.4482V49.625H89.01V49.1286H90.0335ZM86.1819 49.625V45.1636H86.7763V49.1439H88.9733V45.1636H89.5646V49.625H86.1819ZM91.3694 48.6016L93.5664 45.1636H94.1578V49.625H93.5664V46.184L91.3694 49.625H90.7811V45.1636H91.3694V48.6016ZM96.94 45.5589L95.4631 49.625H94.8594L96.56 45.1636H96.9492L96.94 45.5589ZM98.1779 49.625L96.6979 45.5589L96.6887 45.1636H97.0779L98.7846 49.625H98.1779ZM98.1013 47.9734V48.4576H95.5948V47.9734H98.1013ZM102.305 45.1636V45.6478H100.265V45.1636H102.305ZM102.814 45.1636V49.625H102.223V45.1636H102.814ZM100.062 45.1636H100.651L100.55 47.3484C100.535 47.6629 100.511 47.9438 100.476 48.191C100.443 48.4361 100.396 48.6496 100.335 48.8314C100.274 49.0112 100.194 49.1603 100.096 49.2788C99.998 49.3952 99.8774 49.482 99.7345 49.5392C99.5935 49.5964 99.424 49.625 99.2258 49.625H99.0665V49.1439L99.189 49.1347C99.3034 49.1266 99.4015 49.101 99.4832 49.0581C99.567 49.0132 99.6374 48.9458 99.6946 48.8559C99.7539 48.766 99.8019 48.6496 99.8386 48.5066C99.8754 48.3636 99.904 48.1889 99.9244 47.9826C99.9469 47.7743 99.9643 47.5312 99.9765 47.2534L100.062 45.1636ZM104.312 46.9807H105.529C105.856 46.9807 106.131 47.0358 106.356 47.1461C106.581 47.2544 106.751 47.4066 106.868 47.6027C106.984 47.7988 107.042 48.0286 107.042 48.2921C107.042 48.4882 107.01 48.668 106.944 48.8314C106.879 48.9928 106.782 49.1337 106.653 49.2542C106.525 49.3727 106.366 49.4646 106.178 49.53C105.99 49.5933 105.774 49.625 105.529 49.625H103.862V45.1636H104.453V49.1439H105.529C105.747 49.1439 105.924 49.1041 106.059 49.0244C106.196 48.9427 106.296 48.8365 106.359 48.7058C106.422 48.575 106.454 48.4351 106.454 48.286C106.454 48.1369 106.422 48 106.359 47.8754C106.296 47.7508 106.196 47.6517 106.059 47.5782C105.924 47.5026 105.747 47.4648 105.529 47.4648H104.312V46.9807ZM110.735 47.0818V47.5628H108.32V47.0818H110.735ZM108.412 45.1636V49.625H107.821V45.1636H108.412ZM111.249 45.1636V49.625H110.661V45.1636H111.249ZM112.778 46.9807H113.995C114.322 46.9807 114.597 47.0358 114.822 47.1461C115.047 47.2544 115.217 47.4066 115.334 47.6027C115.45 47.7988 115.509 48.0286 115.509 48.2921C115.509 48.4882 115.476 48.668 115.41 48.8314C115.345 48.9928 115.248 49.1337 115.119 49.2542C114.991 49.3727 114.832 49.4646 114.644 49.53C114.457 49.5933 114.24 49.625 113.995 49.625H112.328V45.1636H112.919V49.1439H113.995C114.213 49.1439 114.39 49.1041 114.525 49.0244C114.662 48.9427 114.762 48.8365 114.825 48.7058C114.889 48.575 114.92 48.4351 114.92 48.286C114.92 48.1369 114.889 48 114.825 47.8754C114.762 47.7508 114.662 47.6517 114.525 47.5782C114.39 47.5026 114.213 47.4648 113.995 47.4648H112.778V46.9807ZM116.639 45.1636V49.625H116.048V45.1636H116.639ZM118.346 48.6016L120.543 45.1636H121.134V49.625H120.543V46.184L118.346 49.625H117.758V45.1636H118.346V48.6016ZM119.915 44.0575H120.374C120.374 44.2168 120.338 44.3588 120.264 44.4834C120.191 44.606 120.085 44.702 119.948 44.7714C119.812 44.8409 119.649 44.8756 119.461 44.8756C119.177 44.8756 118.953 44.8 118.787 44.6489C118.624 44.4957 118.542 44.2985 118.542 44.0575H119.002C119.002 44.178 119.036 44.2842 119.106 44.3762C119.175 44.4681 119.294 44.514 119.461 44.514C119.625 44.514 119.741 44.4681 119.811 44.3762C119.88 44.2842 119.915 44.178 119.915 44.0575ZM127.275 49.1439V49.625H123.898V49.1439H127.275ZM123.993 49.1439V50.722H123.408L123.405 49.1439H123.993ZM127.79 49.1439L127.783 50.7189H127.198V49.1439H127.79ZM126.696 45.1636V45.6478H124.741V45.1636H126.696ZM127.204 45.1636V49.625H126.616V45.1636H127.204ZM124.539 45.1636H125.13L125.038 46.9592C125.026 47.2289 125 47.4781 124.961 47.7069C124.923 47.9336 124.875 48.1409 124.817 48.3289C124.76 48.5168 124.695 48.6853 124.621 48.8345C124.548 48.9815 124.469 49.1092 124.385 49.2175C124.302 49.3237 124.214 49.4115 124.122 49.481C124.032 49.5484 123.941 49.5964 123.849 49.625H123.579V49.1439H123.769C123.823 49.0867 123.883 49.004 123.95 48.8957C124.02 48.7875 124.088 48.6475 124.155 48.476C124.225 48.3023 124.285 48.0909 124.336 47.8417C124.389 47.5925 124.425 47.2983 124.444 46.9592L124.539 45.1636ZM129.101 48.6016L131.298 45.1636H131.889V49.625H131.298V46.184L129.101 49.625H128.513V45.1636H129.101V48.6016ZM135.888 45.1636V45.6478H133.847V45.1636H135.888ZM136.397 45.1636V49.625H135.805V45.1636H136.397ZM133.645 45.1636H134.233L134.132 47.3484C134.118 47.6629 134.093 47.9438 134.059 48.191C134.026 48.4361 133.979 48.6496 133.918 48.8314C133.856 49.0112 133.777 49.1603 133.679 49.2788C133.581 49.3952 133.46 49.482 133.317 49.5392C133.176 49.5964 133.007 49.625 132.809 49.625H132.649V49.1439L132.772 49.1347C132.886 49.1266 132.984 49.101 133.066 49.0581C133.15 49.0132 133.22 48.9458 133.277 48.8559C133.337 48.766 133.385 48.6496 133.421 48.5066C133.458 48.3636 133.487 48.1889 133.507 47.9826C133.53 47.7743 133.547 47.5312 133.559 47.2534L133.645 45.1636ZM140.297 49.1439V49.625H137.935V49.1439H140.297ZM138.054 45.1636V49.625H137.463V45.1636H138.054ZM139.985 47.0818V47.5628H137.935V47.0818H139.985ZM140.267 45.1636V45.6478H137.935V45.1636H140.267ZM142.675 47.8754H141.483V47.3943H142.675C142.906 47.3943 143.093 47.3576 143.236 47.284C143.379 47.2105 143.483 47.1083 143.548 46.9776C143.616 46.8469 143.649 46.6977 143.649 46.5302C143.649 46.377 143.616 46.233 143.548 46.0982C143.483 45.9634 143.379 45.8551 143.236 45.7734C143.093 45.6896 142.906 45.6478 142.675 45.6478H141.621V49.625H141.03V45.1636H142.675C143.012 45.1636 143.297 45.2219 143.53 45.3383C143.763 45.4547 143.939 45.6161 144.06 45.8224C144.181 46.0267 144.241 46.2606 144.241 46.5241C144.241 46.8101 144.181 47.0542 144.06 47.2564C143.939 47.4587 143.763 47.6129 143.53 47.7191C143.297 47.8233 143.012 47.8754 142.675 47.8754ZM148.071 45.1636V49.625H147.489V45.1636H148.071ZM149.505 45.1636V45.6478H146.058V45.1636H149.505ZM153.001 49.1439V49.625H150.639V49.1439H153.001ZM150.758 45.1636V49.625H150.167V45.1636H150.758ZM152.689 47.0818V47.5628H150.639V47.0818H152.689ZM152.97 45.1636V45.6478H150.639V45.1636H152.97ZM156.427 48.2063H157.015C156.984 48.4882 156.904 48.7405 156.773 48.9632C156.642 49.1858 156.457 49.3625 156.218 49.4932C155.979 49.6219 155.681 49.6863 155.324 49.6863C155.062 49.6863 154.824 49.6373 154.61 49.5392C154.397 49.4412 154.215 49.3022 154.061 49.1225C153.908 48.9407 153.79 48.7231 153.706 48.4698C153.624 48.2145 153.583 47.9305 153.583 47.618V47.1737C153.583 46.8612 153.624 46.5782 153.706 46.3249C153.79 46.0696 153.909 45.851 154.064 45.6692C154.222 45.4874 154.411 45.3475 154.631 45.2494C154.852 45.1514 155.1 45.1024 155.376 45.1024C155.713 45.1024 155.998 45.1657 156.231 45.2923C156.464 45.419 156.644 45.5947 156.773 45.8194C156.904 46.042 156.984 46.3004 157.015 46.5946H156.427C156.398 46.3862 156.345 46.2075 156.267 46.0584C156.19 45.9072 156.08 45.7908 155.937 45.7091C155.794 45.6273 155.607 45.5865 155.376 45.5865C155.178 45.5865 155.003 45.6243 154.852 45.6999C154.703 45.7754 154.577 45.8827 154.475 46.0216C154.375 46.1605 154.299 46.327 154.248 46.521C154.197 46.7151 154.172 46.9306 154.172 47.1676V47.618C154.172 47.8366 154.194 48.0419 154.239 48.2339C154.286 48.4259 154.356 48.5944 154.45 48.7395C154.544 48.8845 154.664 48.9989 154.809 49.0827C154.954 49.1644 155.126 49.2052 155.324 49.2052C155.575 49.2052 155.775 49.1654 155.924 49.0857C156.073 49.006 156.186 48.8917 156.261 48.7425C156.339 48.5934 156.394 48.4147 156.427 48.2063ZM161.253 45.1636V49.625H160.658L158.412 46.184V49.625H157.821V45.1636H158.412L160.668 48.6138V45.1636H161.253ZM162.935 45.1636V49.625H162.344V45.1636H162.935ZM165.184 48.2768L166.07 45.1636H166.499L166.25 46.374L165.297 49.625H164.872L165.184 48.2768ZM164.268 45.1636L164.973 48.2155L165.184 49.625H164.761L163.68 45.1636H164.268ZM167.645 48.2124L168.334 45.1636H168.925L167.847 49.625H167.424L167.645 48.2124ZM166.563 45.1636L167.424 48.2768L167.736 49.625H167.311L166.391 46.374L166.14 45.1636H166.563ZM172.415 49.1439V49.625H170.053V49.1439H172.415ZM170.172 45.1636V49.625H169.581V45.1636H170.172ZM172.103 47.0818V47.5628H170.053V47.0818H172.103ZM172.385 45.1636V45.6478H170.053V45.1636H172.385ZM175.853 49.1439V49.625H173.623V49.1439H175.853ZM173.739 45.1636V49.625H173.148V45.1636H173.739ZM179.236 49.1439V49.625H177.005V49.1439H179.236ZM177.122 45.1636V49.625H176.53V45.1636H177.122Z" fill="#D82329"/>
<path d="M64.0713 11.2295V39.6336" stroke="#221E1E" stroke-width="0.33028"/>
<path d="M32.2181 28.8088C32.2438 29 32.5122 29.0257 32.571 28.8455C32.7107 28.4264 32.8504 27.6654 32.8504 26.2903V19.7571C32.8504 18.1247 31.5526 17.0843 29.7695 15.3012C27.9864 13.518 24.3503 9.87826 22.7142 8.24587C21.2657 6.79731 20.8686 3.08033 20.7951 2.24943C20.7877 2.15384 20.7068 2.08398 20.6112 2.08398H20.0745C19.9715 2.08398 19.8906 2.16487 19.8906 2.26781V9.58413C19.8906 10.9959 20.6701 12.518 22.1186 13.9666C23.5672 15.4151 27.9496 19.7976 29.6592 21.5072C31.3688 23.2168 31.5526 24.2903 31.7769 25.7756C31.9276 26.794 32.1151 28.0955 32.2181 28.8088Z" fill="#221E1E"/>
<path d="M29.7693 3.41857C29.409 3.05827 28.9678 2.61708 28.4899 2.13913C28.4531 2.10237 28.4053 2.08398 28.3575 2.08398H22.5743C22.4052 2.08398 22.3207 2.28619 22.442 2.40384C24.1295 4.09505 28.0634 8.02528 29.659 9.62457C31.3686 11.3342 31.5525 12.4114 31.7767 13.893C31.9311 14.9078 32.115 16.1982 32.2179 16.9152C32.2436 17.1137 32.5194 17.1321 32.5819 16.9409C32.7179 16.5181 32.854 15.7607 32.854 14.4114V7.87454C32.854 6.23848 31.5525 5.20169 29.7693 3.41857Z" fill="#221E1E"/>
<path d="M31.8384 2.29062C31.9781 3.22446 32.1288 4.2833 32.2171 4.89729C32.2428 5.08847 32.5112 5.1142 32.57 4.93405C32.7097 4.51493 32.8494 3.75388 32.8494 2.37885V2.08105H32.0222C31.9082 2.08105 31.82 2.18032 31.8384 2.29062Z" fill="#221E1E"/>
<path d="M33.3386 29.9821L33.1364 29.7799C33.0665 29.71 33.0665 29.5961 33.1364 29.5262L36.8387 25.8239C36.8717 25.7908 36.9195 25.7725 36.9673 25.7725H52.2691C52.3684 25.7725 52.4493 25.8533 52.4493 25.9526V26.2431C52.4493 26.3423 52.3684 26.4232 52.2691 26.4232H37.232C37.1842 26.4232 37.1401 26.4416 37.1034 26.4747L33.5923 29.9895C33.5224 30.0556 33.4084 30.0556 33.3386 29.9821Z" fill="#221E1E"/>
<path d="M18.6658 29.7907L15.3422 26.4708C15.3091 26.4377 15.2613 26.4156 15.2135 26.4156H0.183827C0.0845605 26.4156 0 26.3347 0 26.2318V25.9524C0 25.8531 0.0808839 25.7686 0.183827 25.7686H15.4819C15.5297 25.7686 15.5775 25.7869 15.6106 25.8237L18.9195 29.1326C18.9526 29.1694 18.9746 29.2135 18.9746 29.2613L18.9783 29.6583C18.9783 29.8275 18.7798 29.9083 18.6658 29.7907Z" fill="#221E1E"/>
<path d="M22.787 20.7202C20.8495 18.7827 20.6399 14.5289 20.6289 13.0216C20.6289 12.8377 20.3862 12.7716 20.2906 12.926C20.0958 13.2348 19.8936 13.6797 19.8936 14.187V22.2056C19.8936 23.3196 20.7465 24.3233 21.8237 25.3968L29.3423 32.9153C29.4158 32.9889 29.4158 33.1028 29.3423 33.1764L26.9305 35.5882C26.8569 35.6617 26.743 35.6617 26.6731 35.5882C26.0959 35.011 23.7282 32.6433 22.2355 31.1506C21.684 30.5991 21.3127 29.7609 21.0664 28.8858H21.07C20.7061 27.2645 20.6399 25.6468 20.6362 24.8269C20.6362 24.6431 20.3936 24.5769 20.298 24.7314C20.1031 25.0402 19.9009 25.485 19.9009 25.9924V26.2498V28.8858V31.3344C19.9009 31.3822 19.9193 31.43 19.9561 31.4631L25.9341 37.4412C26.0076 37.5147 26.1216 37.5147 26.1951 37.4412L32.732 30.9043C32.8056 30.8307 32.8056 30.7168 32.732 30.6432L22.787 20.7202Z" fill="#221E1E"/>
<path d="M0.190549 1.98145H18.7939C18.8968 1.98145 18.9814 2.06601 18.9814 2.16895V23.2613C18.9814 23.4304 18.7791 23.515 18.6578 23.3936L16.9776 21.7134C16.9409 21.6767 16.8968 21.6583 16.8453 21.6583H0.190549C0.0876059 21.6583 0.00304518 21.5737 0.00304518 21.4708V2.16895C-0.000631358 2.06233 0.0839293 1.98145 0.190549 1.98145Z" fill="#221E1E"/>
<path d="M52.2584 1.98145H33.6514C33.5484 1.98145 33.4639 2.06601 33.4639 2.16895V23.265C33.4639 23.4304 33.6661 23.515 33.7837 23.3973L35.4639 21.7171C35.5007 21.6804 35.5448 21.662 35.5963 21.662H52.2547C52.3576 21.662 52.4422 21.5774 52.4422 21.4745V2.16895C52.4459 2.06233 52.3613 1.98145 52.2584 1.98145Z" fill="#221E1E"/>
<path d="M37.7831 29.9341L26.2571 41.46C26.1836 41.5335 26.0659 41.5335 25.9961 41.46L14.4701 29.9341C14.437 29.8973 14.3892 29.8789 14.3414 29.8789H0.186757C0.0838136 29.8789 0.00292969 29.9635 0.00292969 30.0664V51.133C0.00292969 51.2359 0.0838136 51.3168 0.186757 51.3168H52.2613C52.3643 51.3168 52.4451 51.2359 52.4451 51.133V30.0664C52.4451 29.9635 52.3643 29.8789 52.2613 29.8789H37.9191C37.8676 29.8789 37.8199 29.901 37.7831 29.9341Z" fill="#221E1E"/>
</svg>
