<svg width="25" height="20" viewBox="0 0 25 20" fill="none" xmlns="http://www.w3.org/2000/svg">
<path d="M1 4.73226H16.3333M16.3333 4.73226C16.3333 6.79353 18.0495 8.46451 20.1667 8.46451C22.2838 8.46451 24 6.79352 24 4.73226C24 2.67099 22.2838 1 20.1667 1C18.0495 1 16.3333 2.67099 16.3333 4.73226ZM8.66667 14.6849H24M8.66667 14.6849C8.66667 16.7463 6.95042 18.4172 4.83333 18.4172C2.71625 18.4172 1 16.7463 1 14.6849C1 12.6236 2.71625 10.9527 4.83333 10.9527C6.95042 10.9527 8.66667 12.6236 8.66667 14.6849Z" stroke="white" stroke-width="2" stroke-linecap="round" stroke-linejoin="round"/>
</svg>
