<svg width="149" height="36" viewBox="0 0 149 36" fill="none" xmlns="http://www.w3.org/2000/svg">
<path d="M43.9882 21.9142H46.4637V15.8906H49.8452V14.0241H40.6172V15.8906H43.9882V21.9142Z" fill="#3C9AD0"/>
<path d="M50.7368 14.0241V21.9142H59.101V20.0795H53.1597V18.7857H58.8587V16.9829H53.1597V15.8163H58.9957V14.0241H50.7368Z" fill="#3C9AD0"/>
<path d="M65.4603 22.0521C69.9373 22.0521 70.7169 19.8462 70.7169 18.8494V18.7327H68.1149C68.0517 18.913 67.7989 20.1326 65.2601 20.1326C62.9742 20.1326 62.3527 18.9024 62.3527 17.9692V17.8419C62.3527 16.8556 62.8899 15.7951 65.2391 15.7951C67.7251 15.7951 68.0412 16.898 68.1044 17.1101H70.7063V16.9935C70.7063 16.0709 70.0005 13.8862 65.4603 13.8862H65.0284C60.3933 13.8862 59.7823 16.3572 59.7823 17.7889V18.0964C59.7823 19.4963 60.4881 22.0521 65.0284 22.0521H65.4603Z" fill="#3C9AD0"/>
<path d="M71.5688 21.9142H74.0232V18.8069H79.2904V21.9142H81.7449V14.0241H79.2904V16.898H74.0232V14.0241H71.5688V21.9142Z" fill="#3C9AD0"/>
<path d="M82.9466 14.0241V21.9142H85.3695V16.6859L90.6893 21.9142H93.1122V14.0241H90.6893V18.9872L85.6855 14.0241H82.9466Z" fill="#3C9AD0"/>
<path d="M99.5181 13.8862C94.5564 13.8862 93.9981 16.3784 93.9981 17.7889V18.107C93.9981 19.4963 94.5564 22.0521 99.5181 22.0521H99.971C104.912 22.0521 105.48 19.4963 105.48 18.107V17.7889C105.48 16.3784 104.901 13.8862 99.971 13.8862H99.5181ZM102.91 18.0116C102.91 18.9236 102.373 20.1326 99.7393 20.1326C97.0846 20.1326 96.5685 18.8918 96.5685 17.9904V17.8631C96.5685 16.9617 97.0425 15.7951 99.7393 15.7951C102.394 15.7951 102.91 16.9617 102.91 17.8631V18.0116Z" fill="#3C9AD0"/>
<path d="M106.361 21.9142H111.565C116.147 21.9142 117.085 19.772 117.085 18.0752V17.7571C117.085 15.986 116.094 14.0241 111.554 14.0241H106.361V21.9142ZM108.815 15.8906H111.364C114.188 15.8906 114.514 17.1102 114.514 17.9161V17.9798C114.514 18.7857 114.145 20.0159 111.364 20.0159H108.815V15.8906Z" fill="#3C9AD0"/>
<path d="M120.378 15.8163H124.097C124.813 15.8163 125.087 16.1663 125.087 16.5799V16.5905C125.087 17.0253 124.803 17.3647 124.097 17.3647H120.378V15.8163ZM120.378 19.1145H123.581C124.792 19.1145 125.213 19.5387 125.213 20.5037V21.4158C125.213 21.7021 125.255 21.8188 125.329 21.9142H127.826V21.8612C127.752 21.7339 127.678 21.5324 127.678 20.8961V19.7402C127.678 18.7221 126.994 18.16 126.193 17.9267C126.709 17.7571 127.647 17.3329 127.647 16.1981V16.0709C127.647 14.9361 126.857 14.0241 124.244 14.0241H117.924V21.9142H120.378V19.1145Z" fill="#3C9AD0"/>
<path d="M131.098 14.0241H128.643V21.9142H131.098V14.0241Z" fill="#3C9AD0"/>
<path d="M132.295 14.0241V21.9142H140.196V19.9523H134.75V14.0241H132.295Z" fill="#3C9AD0"/>
<path d="M141.101 14.0241V21.9142H149.002V19.9523H143.556V14.0241H141.101Z" fill="#3C9AD0"/>
<path d="M27.4908 25.3363H18.1V11.0981H27.4718C30.5187 11.0981 32.6794 11.5878 34.1918 12.3673C31.8645 5.35834 25.2918 0.306641 17.5467 0.306641C10.2774 0.306641 4.04076 4.75654 1.37774 11.0982H16.4844V14.4664H10.3823V25.3364H5.91497V14.4664H0.345682C0.119226 15.5992 0 16.7713 0 17.9713C0 27.7273 7.85599 35.6361 17.5469 35.6361C25.0998 35.6361 31.538 30.8316 34.0111 24.0931C32.5158 24.8528 30.4146 25.3363 27.4908 25.3363Z" fill="#3B99D0"/>
<path d="M22.5312 14.4658V21.9102H27.1316C32.1502 21.9102 32.8155 19.6903 32.8155 18.2359V18.1211C32.8155 16.6666 32.2262 14.4658 27.1316 14.4658H22.5312Z" fill="#3B99D0"/>
</svg>
