<svg width="85" height="85" viewBox="0 0 85 85" fill="none" xmlns="http://www.w3.org/2000/svg">
<g clip-path="url(#clip0_1268_1048)">
<path d="M42.5006 0L51.3672 4.59L61.2378 6.08813L65.7109 15.0131L72.8138 22.0256L71.1881 31.875L72.8138 41.7244L65.7109 48.7369L61.2378 57.6619L51.3672 59.16L42.5006 63.75L33.6341 59.16L23.7634 57.6619L19.2903 48.7369L12.1875 41.7244L13.8131 31.875L12.1875 22.0256L19.2903 15.0131L23.7634 6.08813L33.6341 4.59L42.5006 0Z" fill="white"/>
<path d="M21.25 62.6558V85.0001L42.5 79.6876L63.75 85.0001V62.6558L53.0294 64.2814L42.5 69.732L31.9706 64.2814L21.25 62.6558Z" fill="white"/>
</g>
<defs>
<clipPath id="clip0_1268_1048">
<rect width="85" height="85" fill="white"/>
</clipPath>
</defs>
</svg>
