<svg width="78" height="78" viewBox="0 0 78 78" fill="none" xmlns="http://www.w3.org/2000/svg">
<path fill-rule="evenodd" clip-rule="evenodd" d="M41.5506 1.4624C44.9277 1.4624 47.8293 3.78771 48.4646 7.00355L48.7471 8.43355C49.8576 14.0543 55.8542 17.4109 61.4302 15.533L62.8495 15.055C66.0397 13.9806 69.5676 15.2541 71.2559 18.0896L73.8065 22.3725C75.4952 25.2081 74.8686 28.8069 72.3138 30.9482L71.1776 31.9005C66.7118 35.6434 66.7118 42.3566 71.1776 46.0993L72.3138 47.0515C74.8686 49.1929 75.4952 52.7917 73.8065 55.6273L71.2562 59.9101C69.5675 62.7458 66.0397 64.0191 62.8491 62.9447L61.4305 62.4666C55.8542 60.5884 49.8576 63.945 48.7471 69.5662L48.4646 70.9962C47.8293 74.2121 44.9277 76.5375 41.5506 76.5375H36.4494C33.0723 76.5375 30.1708 74.2121 29.5354 70.9965L29.2527 69.5656C28.142 63.945 22.1453 60.5884 16.5692 62.4666L15.1508 62.9443C11.9605 64.0191 8.43261 62.7454 6.74391 59.9098L4.19347 55.6273C2.50484 52.7917 3.1312 49.1929 5.68607 47.0515L6.82246 46.0993C11.288 42.3562 11.288 35.6434 6.82246 31.9007L5.68607 30.9482C3.1312 28.8069 2.50484 25.2082 4.19347 22.3726L6.74401 18.0897C8.43264 15.2541 11.9605 13.9807 15.1507 15.0551L16.5695 15.533C22.1455 17.4109 28.142 14.0546 29.2527 8.43391L29.5354 7.00329C30.1708 3.78758 33.072 1.4624 36.4494 1.4624H41.5506ZM39 49.725C44.9231 49.725 49.725 44.9231 49.725 39C49.725 33.0765 44.9231 28.2749 39 28.2749C33.0765 28.2749 28.2749 33.0765 28.2749 39C28.2749 44.9231 33.0765 49.725 39 49.725Z" fill="white"/>
</svg>
