<svg width="82" height="83" viewBox="0 0 82 83" fill="none" xmlns="http://www.w3.org/2000/svg">
<path d="M73.8011 34.0301C73.2255 33.1142 72.7447 32.1407 72.3661 31.1251C72.036 30.0815 71.8296 29.0018 71.7511 27.9089C71.7062 25.264 70.9502 22.6816 69.5645 20.4389C67.8698 18.4052 65.6616 16.8752 63.1753 16.0122C62.1607 15.6158 61.1878 15.1176 60.2711 14.5251C59.476 13.8323 58.7441 13.0684 58.0845 12.2426C56.5148 10.0855 54.3864 8.40986 51.9345 7.40094C49.4519 6.80716 46.8581 6.8907 44.4178 7.64302C42.2381 8.16152 39.9692 8.16152 37.7895 7.64302C35.3066 6.86561 32.6622 6.78196 30.1361 7.40094C27.6593 8.39885 25.506 10.0754 23.9178 12.2426C23.2365 13.0715 22.4817 13.8355 21.6628 14.5251C20.7462 15.1176 19.7733 15.6158 18.7586 16.0122C16.26 16.8697 14.0394 18.4 12.3353 20.4389C10.9856 22.6921 10.2652 25.2738 10.2511 27.9089C10.1727 29.0018 9.96628 30.0815 9.63615 31.1251C9.25341 32.1169 8.77263 33.067 8.20115 33.9609C6.66067 36.1838 5.75084 38.7911 5.57031 41.5001C5.76305 44.1852 6.67233 46.7671 8.20115 48.9701C8.78579 49.8563 9.26732 50.8079 9.63615 51.8059C9.93342 52.877 10.1054 53.9797 10.1486 55.0914C10.1901 57.7367 10.9464 60.3201 12.3353 62.5614C14.03 64.595 16.2382 66.125 18.7245 66.988C19.7391 67.3844 20.712 67.8826 21.6286 68.4751C22.4475 69.1647 23.2023 69.9287 23.8836 70.7576C25.4428 72.925 27.5744 74.6032 30.0336 75.5993C30.9973 75.8962 31.9989 76.0476 33.0061 76.0489C34.5492 75.9991 36.0832 75.7905 37.5845 75.4264C39.7604 74.8758 42.0368 74.8758 44.2128 75.4264C46.7017 76.1741 49.3412 76.2456 51.8661 75.6339C54.3254 74.6378 56.457 72.9596 58.0161 70.7922C58.6974 69.9633 59.4523 69.1993 60.2711 68.5097C61.1878 67.9172 62.1607 67.419 63.1753 67.0226C65.6616 66.1595 67.8698 64.6296 69.5645 62.5959C70.9534 60.3547 71.7097 57.7713 71.7511 55.1259C71.7944 54.0143 71.9664 52.9116 72.2636 51.8405C72.6464 50.8487 73.1272 49.8986 73.6986 49.0047C75.2698 46.8028 76.2151 44.2074 76.432 41.5001C76.2392 38.815 75.33 36.2332 73.8011 34.0301Z" fill="white"/>
<path d="M37.583 55.3333C37.1333 55.336 36.6876 55.2487 36.2713 55.0766C35.855 54.9045 35.4764 54.6509 35.1572 54.3304L24.9072 43.9554C24.5886 43.633 24.3359 43.2502 24.1635 42.8289C23.9911 42.4076 23.9023 41.956 23.9023 41.5C23.9023 40.579 24.2638 39.6958 24.9072 39.0446C25.5505 38.3934 26.4231 38.0275 27.333 38.0275C28.2429 38.0275 29.1155 38.3934 29.7588 39.0446L37.583 46.9987L52.2405 32.1279C52.8839 31.4767 53.7565 31.1108 54.6663 31.1108C55.5762 31.1108 56.4488 31.4767 57.0922 32.1279C57.7355 32.7791 58.097 33.6624 58.097 34.5833C58.097 35.5043 57.7355 36.3875 57.0922 37.0387L40.0088 54.3304C39.6896 54.6509 39.311 54.9045 38.8947 55.0766C38.4784 55.2487 38.0326 55.336 37.583 55.3333Z" fill="#112531"/>
</svg>
