<svg width="78" height="93" viewBox="0 0 78 93" fill="none" xmlns="http://www.w3.org/2000/svg">
<path d="M68.9787 10.8828L43.7703 1.44111C41.1578 0.478613 36.8953 0.478613 34.2828 1.44111L9.07441 10.8828C4.21608 12.7161 0.274414 18.3994 0.274414 23.5786V60.7034C0.274414 64.4159 2.70358 69.3201 5.68275 71.5201L30.8912 90.3576C35.337 93.7034 42.6245 93.7034 47.0703 90.3576L72.2787 71.5201C75.2578 69.2743 77.687 64.4159 77.687 60.7034V23.5786C77.7328 18.3994 73.7912 12.7161 68.9787 10.8828ZM54.9537 36.5494L35.2453 56.2576C34.5578 56.9451 33.687 57.2659 32.8162 57.2659C31.9453 57.2659 31.0745 56.9451 30.387 56.2576L23.0536 48.8326C21.7244 47.5034 21.7244 45.3034 23.0536 43.9743C24.3827 42.6451 26.5827 42.6451 27.9119 43.9743L32.862 48.9243L50.1412 31.6453C51.4703 30.3161 53.6703 30.3161 54.9995 31.6453C56.3287 32.9744 56.3287 35.2203 54.9537 36.5494Z" fill="white"/>
</svg>
