<svg width="92" height="100" viewBox="0 0 92 100" fill="none" xmlns="http://www.w3.org/2000/svg">
<path fill-rule="evenodd" clip-rule="evenodd" d="M90.8213 59.3478L78.8985 41.6358V40.1598C78.8987 29.7577 74.7811 19.7785 67.4457 12.4032C60.1103 5.02786 50.1537 0.856154 39.7517 0.799809C36.6154 0.77668 33.4894 1.1626 30.4529 1.94781C21.9077 4.03939 14.3151 8.94605 8.89775 15.8777C3.48039 22.8093 0.553538 31.3624 0.588523 40.1598C0.359942 47.5407 2.40991 54.8129 6.45972 60.9878C13.3149 70.8278 17.9397 78.6998 15.1025 89.3598C14.7667 90.5411 14.7256 91.7867 14.983 92.9876C15.2403 94.1884 15.7881 95.3078 16.5785 96.2478C17.2726 97.1893 18.1837 97.9494 19.2344 98.4633C20.2851 98.9773 21.4444 99.2299 22.6137 99.1998H54.7577C56.5574 99.2114 58.3049 98.5956 59.6997 97.4582C61.0945 96.3209 62.0494 94.733 62.4001 92.9678C62.5891 92.3276 62.6993 91.6667 62.7281 90.9998C62.8746 90.0717 63.3524 89.228 64.073 88.625C64.7936 88.022 65.7083 87.7004 66.6477 87.7198H68.9601C70.6768 87.7735 72.3625 87.2548 73.752 86.2454C75.1415 85.2359 76.1559 83.793 76.6353 82.1438C78.0607 77.0095 78.8754 71.725 79.0625 66.3998H87.5413C88.3142 66.3055 89.0501 66.0149 89.6788 65.5555C90.3076 65.0962 90.8081 64.4835 91.1329 63.7758C91.4506 63.0694 91.5885 62.2953 91.5341 61.5226C91.4797 60.7499 91.2348 60.0028 90.8213 59.3478ZM58.2837 45.621L56.6437 48.1958C56.3163 48.6602 55.8847 49.0415 55.3835 49.3092C54.8823 49.5769 54.3254 49.7235 53.7573 49.7374C53.3525 49.7118 52.9541 49.6233 52.5765 49.475L48.2305 47.835C46.3765 49.4312 44.2329 50.656 41.9165 51.443L41.1293 56.2154C40.9931 56.9825 40.5882 57.6761 39.9872 58.1719C39.3862 58.6677 38.6283 58.9334 37.8493 58.9214H34.5693C33.7903 58.9334 33.0324 58.6677 32.4314 58.1719C31.8304 57.6761 31.4256 56.9825 31.2893 56.2154L30.5021 51.443C28.2756 50.7901 26.213 49.6721 24.4505 48.163L19.8421 49.803C19.4646 49.9513 19.0662 50.0398 18.6613 50.0654C18.081 50.0574 17.5121 49.9029 17.0075 49.6161C16.5029 49.3294 16.0789 48.9198 15.7749 48.4254L14.1349 45.7194C13.7452 45.0543 13.6102 44.2704 13.755 43.5133C13.8998 42.7562 14.3145 42.0774 14.9221 41.603L18.7433 38.5034C18.4899 37.3616 18.3579 36.1962 18.3497 35.0266C18.3632 33.9223 18.4951 32.8227 18.7433 31.7466L15.0041 28.483C14.3906 28.013 13.9714 27.3339 13.8262 26.5748C13.6811 25.8157 13.8201 25.0298 14.2169 24.3666L15.8569 21.6606C16.1487 21.1552 16.5699 20.7368 17.0773 20.4485C17.5847 20.1602 18.1598 20.0125 18.7433 20.0206C19.1482 20.0462 19.5465 20.1347 19.9241 20.283L24.5325 21.923C26.3163 20.3983 28.3685 19.2193 30.5841 18.4462L31.2401 13.9198C31.3755 13.1629 31.7846 12.4821 32.3894 12.0073C32.9943 11.5325 33.7527 11.2968 34.5201 11.345H37.8001C38.5482 11.2951 39.2896 11.5138 39.8909 11.9617C40.4922 12.4097 40.9139 13.0575 41.0801 13.7886L41.8673 18.4298C44.0715 19.136 46.124 20.2485 47.9189 21.7098L52.5273 20.0698C52.9049 19.9215 53.3033 19.833 53.7081 19.8074C54.2885 19.8154 54.8573 19.97 55.362 20.2567C55.8666 20.5434 56.2906 20.953 56.5945 21.4474L58.2345 24.1534C58.63 24.8282 58.7713 25.6222 58.633 26.392C58.4947 27.1618 58.0858 27.8569 57.4801 28.3518L53.6589 31.4514C53.9194 32.592 54.0515 33.7582 54.0525 34.9282C54.0391 36.0325 53.9071 37.1321 53.6589 38.2082L57.4801 41.3734C58.1062 41.8637 58.5329 42.5647 58.6807 43.3461C58.8285 44.1274 58.6874 44.9359 58.2837 45.621Z" fill="white"/>
</svg>
