<svg width="439" height="52" viewBox="0 0 45 50" fill="none" xmlns="http://www.w3.org/2000/svg">
    <path d="M30.1381 27.9482C30.1621 28.127 30.4132 28.1511 30.4682 27.9826C30.5989 27.5905 30.7296 26.8786 30.7296 25.5924V19.4809C30.7296 17.9539 29.5156 16.9806 27.8476 15.3126C26.1795 13.6446 22.7782 10.2398 21.2477 8.71281C19.8927 7.35777 19.5213 3.88075 19.4525 3.10349C19.4456 3.01408 19.3699 2.94873 19.2805 2.94873H18.7784C18.6821 2.94873 18.6064 3.02439 18.6064 3.12069V9.96468C18.6064 11.2853 19.3356 12.7092 20.6906 14.0642C22.0456 15.4192 26.1452 19.5188 27.7444 21.118C29.3436 22.7172 29.5156 23.7214 29.7254 25.1109C29.8664 26.0635 30.0418 27.281 30.1381 27.9482Z"
          fill="white"/>
    <path d="M27.8468 4.19716C27.5098 3.86012 27.0971 3.44741 26.65 3.00032C26.6156 2.96593 26.5709 2.94873 26.5261 2.94873H21.1163C20.9581 2.94873 20.879 3.13789 20.9925 3.24794C22.5711 4.82997 26.251 8.50646 27.7436 10.0025C29.3428 11.6017 29.5148 12.6094 29.7246 13.9954C29.869 14.9446 30.041 16.1518 30.1373 16.8224C30.1614 17.0081 30.4193 17.0253 30.4778 16.8465C30.605 16.451 30.7323 15.7425 30.7323 14.4803V8.36546C30.7323 6.83502 29.5148 5.86516 27.8468 4.19716Z"
          fill="white"/>
    <path d="M29.7835 3.14135C29.9142 4.0149 30.0552 5.00539 30.1378 5.57973C30.1618 5.75857 30.4129 5.78264 30.4679 5.61412C30.5986 5.22206 30.7293 4.51014 30.7293 3.22389V2.94531H29.9555C29.8489 2.94531 29.7663 3.03817 29.7835 3.14135Z"
          fill="white"/>
    <path d="M31.1874 29.0453L30.9982 28.8561C30.9329 28.7908 30.9329 28.6842 30.9982 28.6188L34.4615 25.1556C34.4924 25.1246 34.5372 25.1074 34.5819 25.1074H48.8958C48.9886 25.1074 49.0643 25.1831 49.0643 25.2759V25.5476C49.0643 25.6405 48.9886 25.7162 48.8958 25.7162H34.8295C34.7848 25.7162 34.7435 25.7334 34.7091 25.7643L31.4247 29.0522C31.3593 29.1141 31.2527 29.1141 31.1874 29.0453Z"
          fill="white"/>
    <path d="M17.4608 28.8665L14.3517 25.7609C14.3208 25.7299 14.2761 25.7093 14.2314 25.7093H0.17196C0.0791014 25.7093 0 25.6336 0 25.5373V25.276C0 25.1831 0.0756622 25.104 0.17196 25.104H14.4824C14.5271 25.104 14.5718 25.1212 14.6028 25.1556L17.6981 28.2509C17.729 28.2853 17.7497 28.3265 17.7497 28.3712L17.7531 28.7427C17.7531 28.9009 17.5674 28.9765 17.4608 28.8665Z"
          fill="white"/>
    <path d="M21.3165 20.3819C19.5041 18.5695 19.308 14.5903 19.2977 13.1802C19.2977 13.0083 19.0707 12.9464 18.9813 13.0908C18.799 13.3797 18.6099 13.7959 18.6099 14.2705V21.7713C18.6099 22.8134 19.4078 23.7523 20.4154 24.7566L27.4486 31.7897C27.5174 31.8585 27.5174 31.9651 27.4486 32.0339L25.1925 34.29C25.1237 34.3588 25.0171 34.3588 24.9517 34.29C24.4118 33.75 22.1969 31.5352 20.8006 30.1389C20.2847 29.623 19.9374 28.8389 19.707 28.0204H19.7104C19.3699 26.5037 19.308 24.9904 19.3046 24.2235C19.3046 24.0515 19.0776 23.9896 18.9882 24.1341C18.8059 24.423 18.6167 24.8391 18.6167 25.3137V25.5545V28.0204V30.3109C18.6167 30.3556 18.6339 30.4003 18.6683 30.4312L24.2605 36.0233C24.3292 36.0921 24.4359 36.0921 24.5046 36.0233L30.6195 29.9085C30.6883 29.8397 30.6883 29.7331 30.6195 29.6643L21.3165 20.3819Z"
          fill="white"/>
    <path d="M0.178925 2.85254H17.5812C17.6775 2.85254 17.7566 2.93164 17.7566 3.02794V22.7586C17.7566 22.9168 17.5675 22.9959 17.454 22.8824L15.8823 21.3107C15.8479 21.2763 15.8066 21.2591 15.7585 21.2591H0.178925C0.0826276 21.2591 0.00352601 21.18 0.00352601 21.0837V3.02794C8.68191e-05 2.9282 0.0791884 2.85254 0.178925 2.85254Z"
          fill="white"/>
    <path d="M48.8853 2.85254H31.4796C31.3833 2.85254 31.3042 2.93164 31.3042 3.02794V22.762C31.3042 22.9168 31.4934 22.9959 31.6034 22.8858L33.1751 21.3141C33.2095 21.2797 33.2508 21.2625 33.2989 21.2625H48.8819C48.9782 21.2625 49.0573 21.1834 49.0573 21.0871V3.02794C49.0607 2.9282 48.9816 2.85254 48.8853 2.85254Z"
          fill="white"/>
    <path d="M35.3441 29.0008L24.5622 39.7827C24.4934 39.8515 24.3834 39.8515 24.318 39.7827L13.5361 29.0008C13.5052 28.9664 13.4605 28.9492 13.4158 28.9492H0.174889C0.0785919 28.9492 0.00292969 29.0283 0.00292969 29.1246V48.8312C0.00292969 48.9275 0.0785919 49.0031 0.174889 49.0031H48.8876C48.9839 49.0031 49.0596 48.9275 49.0596 48.8312V29.1246C49.0596 29.0283 48.9839 28.9492 48.8876 28.9492H35.4713C35.4232 28.9492 35.3784 28.9699 35.3441 29.0008Z"
          fill="white"/>
</svg>
