<svg width="327" height="334" viewBox="0 0 327 334" fill="none" xmlns="http://www.w3.org/2000/svg">
    <g clip-path="url(#clip0_1068_930)">
        <path
            d="M275.63 230.136H193.68V107.189H275.465C297.606 107.189 314.385 110.122 327.002 114.989C305.053 48.2248 242.003 0 167.646 0C75.0582 0 0 74.7689 0 167C0 259.231 75.0582 334 167.646 334C240.756 334 302.936 287.379 325.862 222.354C313.438 227.189 297.066 230.134 275.628 230.134L275.63 230.136ZM179.581 136.273H126.33V230.136H87.3457V136.273H34.2587V107.189H179.579V136.273H179.581Z"
            fill="#3C9AD0" />
        <path
            d="M232.332 136.273V200.557H272.477C316.273 200.557 322.078 181.388 322.078 168.829V167.837C322.078 155.278 316.936 136.273 272.477 136.273H232.332Z"
            fill="#3C9AD0" />
    </g>
    <defs>
        <clipPath id="clip0_1068_930">
            <rect width="327" height="334" fill="white" />
        </clipPath>
    </defs>
</svg>