<svg width="43" height="43" viewBox="0 0 43 43" fill="none" xmlns="http://www.w3.org/2000/svg">
<path opacity="0.5" d="M41.998 21.4838C41.998 32.5968 32.8281 41.6205 21.498 41.6205C10.1679 41.6205 0.998047 32.5968 0.998047 21.4838C0.998047 10.3708 10.1679 1.34717 21.498 1.34717C32.8281 1.34717 41.998 10.3708 41.998 21.4838Z" stroke="#1D1717"/>
<path d="M28.4976 26.1589V28.262C28.4984 28.4573 28.4583 28.6505 28.3797 28.8294C28.3012 29.0083 28.186 29.1689 28.0415 29.3009C27.8971 29.4329 27.7265 29.5334 27.5408 29.5959C27.3551 29.6585 27.1583 29.6817 26.9631 29.6641C24.797 29.4297 22.7163 28.6926 20.8883 27.5119C19.1875 26.4356 17.7455 24.9995 16.6648 23.3056C15.4751 21.4767 14.7348 19.3945 14.5038 17.2276C14.4862 17.0337 14.5093 16.8383 14.5717 16.6538C14.6341 16.4694 14.7343 16.2999 14.8661 16.1561C14.9979 16.0123 15.1583 15.8975 15.337 15.8188C15.5158 15.7402 15.7091 15.6995 15.9046 15.6993H18.0163C18.3579 15.6959 18.6891 15.8164 18.9481 16.0383C19.2071 16.2601 19.3763 16.5682 19.4241 16.9051C19.5133 17.5781 19.6786 18.239 19.9169 18.875C20.0116 19.1259 20.0321 19.3986 19.9759 19.6608C19.9198 19.923 19.7894 20.1636 19.6001 20.3542L18.7061 21.2446C19.7082 22.9997 21.1674 24.4529 22.9296 25.4508L23.8236 24.5605C24.015 24.372 24.2566 24.2421 24.5199 24.1862C24.7831 24.1303 25.0569 24.1507 25.3089 24.245C25.9475 24.4824 26.6111 24.647 27.2869 24.7358C27.6288 24.7838 27.9411 24.9553 28.1643 25.2177C28.3876 25.4801 28.5062 25.8151 28.4976 26.1589Z" fill="#1D1717"/>
</svg>
