<svg width="43" height="43" viewBox="0 0 43 43" fill="none" xmlns="http://www.w3.org/2000/svg">
<g clip-path="url(#clip0_611_54)">
<path d="M27.8971 15.1943C28.3214 15.1943 28.7284 15.36 29.0284 15.6549C29.3285 15.9497 29.4971 16.3496 29.4971 16.7667V26.2005C29.4971 26.6176 29.3285 27.0175 29.0284 27.3123C28.7284 27.6072 28.3214 27.7729 27.8971 27.7729H15.0971C14.6727 27.7729 14.2658 27.6072 13.9657 27.3123C13.6656 27.0175 13.4971 26.6176 13.4971 26.2005V16.7667C13.4971 15.9019 14.2171 15.1943 15.0971 15.1943H27.8971ZM24.4011 22.3484L29.4971 26.2005V24.6282L25.4011 21.5622L29.4971 18.339V16.7667L21.4971 23.0559L13.4971 16.7667V18.339L17.5931 21.5622L13.4971 24.6282V26.2005L18.5931 22.3484L21.4971 24.6282L24.4011 22.3484Z" fill="#1D1717"/>
</g>
<path opacity="0.5" d="M41.9971 21.4838C41.9971 32.5968 32.8272 41.6205 21.4971 41.6205C10.167 41.6205 0.99707 32.5968 0.99707 21.4838C0.99707 10.3708 10.167 1.34717 21.4971 1.34717C32.8272 1.34717 41.9971 10.3708 41.9971 21.4838Z" stroke="#1D1717"/>
<defs>
<clipPath id="clip0_611_54">
<rect width="16" height="15.7232" fill="white" transform="translate(13.4971 13.6221)"/>
</clipPath>
</defs>
</svg>
