<svg width="181" height="55" viewBox="0 0 181 55" fill="none" xmlns="http://www.w3.org/2000/svg">
<path d="M80.3443 3.25958V5.00936H74.974V15H72.7646V3.25958H80.3443ZM74.2563 7.65418H77.1027C78.0112 7.65418 78.7907 7.80738 79.4412 8.11379C80.0916 8.41483 80.5889 8.83682 80.9329 9.37976C81.2823 9.9227 81.457 10.5597 81.457 11.2908C81.457 11.8391 81.3576 12.3391 81.1587 12.7906C80.9652 13.2422 80.6802 13.6346 80.3039 13.9679C79.9277 14.2958 79.4707 14.5511 78.9332 14.7339C78.3956 14.9113 77.7855 15 77.1027 15H72.7646V3.25958H74.9901V13.2583H77.1027C77.5866 13.2583 77.987 13.1669 78.3042 12.9841C78.6214 12.8014 78.8579 12.5595 79.0138 12.2584C79.1697 11.9574 79.2476 11.6295 79.2476 11.2747C79.2476 10.9253 79.1697 10.6081 79.0138 10.3232C78.8579 10.0383 78.6214 9.8125 78.3042 9.64585C77.987 9.47921 77.5866 9.39589 77.1027 9.39589H74.2563V7.65418ZM86.6902 10.8312L89.6253 3.25958H92.0363L87.9884 12.7987C87.854 13.1051 87.7008 13.4007 87.5288 13.6857C87.3568 13.9706 87.1498 14.2259 86.9079 14.4517C86.6714 14.6721 86.3838 14.8468 86.0451 14.9758C85.7119 15.1048 85.3087 15.1693 84.8356 15.1693C84.712 15.1693 84.5641 15.164 84.3921 15.1532C84.2201 15.1478 84.0884 15.1398 83.997 15.129V13.3873C84.0615 13.4034 84.1664 13.4142 84.3115 13.4196C84.462 13.4249 84.5695 13.4276 84.634 13.4276C84.9458 13.4276 85.1931 13.3792 85.3759 13.2825C85.564 13.1803 85.7119 13.0433 85.8194 12.8712C85.9323 12.6938 86.0317 12.4923 86.1177 12.2665L86.6902 10.8312ZM84.6098 3.25958L87.424 9.41201L88.0852 11.8069L86.3999 11.8552L82.2069 3.25958H84.6098ZM97.9468 10.7183H94.923V8.97659H97.9468C98.4414 8.97659 98.8419 8.89595 99.1483 8.73468C99.4601 8.56804 99.6885 8.34226 99.8337 8.05735C99.9788 7.76706 100.051 7.43646 100.051 7.06554C100.051 6.70537 99.9788 6.3694 99.8337 6.05761C99.6885 5.74582 99.4601 5.49317 99.1483 5.29964C98.8419 5.10612 98.4414 5.00936 97.9468 5.00936H95.6487V15H93.4313V3.25958H97.9468C98.8607 3.25958 99.6402 3.42354 100.285 3.75146C100.936 4.07399 101.43 4.52286 101.769 5.09806C102.113 5.66787 102.285 6.31833 102.285 7.04942C102.285 7.80738 102.113 8.46052 101.769 9.00884C101.43 9.55716 100.936 9.97914 100.285 10.2748C99.6402 10.5705 98.8607 10.7183 97.9468 10.7183ZM113.534 8.83144V9.4362C113.534 10.3232 113.415 11.1215 113.179 11.8311C112.942 12.5353 112.606 13.1346 112.171 13.6292C111.735 14.1238 111.217 14.5028 110.615 14.7662C110.012 15.0296 109.343 15.1613 108.607 15.1613C107.881 15.1613 107.214 15.0296 106.607 14.7662C106.005 14.5028 105.483 14.1238 105.043 13.6292C104.602 13.1346 104.261 12.5353 104.019 11.8311C103.777 11.1215 103.656 10.3232 103.656 9.4362V8.83144C103.656 7.93909 103.777 7.1408 104.019 6.43659C104.261 5.73238 104.599 5.133 105.035 4.63844C105.47 4.1385 105.989 3.75683 106.591 3.49342C107.198 3.23002 107.865 3.09831 108.591 3.09831C109.327 3.09831 109.996 3.23002 110.598 3.49342C111.2 3.75683 111.719 4.1385 112.155 4.63844C112.595 5.133 112.934 5.73238 113.171 6.43659C113.413 7.1408 113.534 7.93909 113.534 8.83144ZM111.292 9.4362V8.81532C111.292 8.17561 111.233 7.61386 111.114 7.13005C110.996 6.64087 110.822 6.22963 110.59 5.89634C110.359 5.56305 110.074 5.31308 109.736 5.14644C109.397 4.97442 109.015 4.88841 108.591 4.88841C108.161 4.88841 107.779 4.97442 107.446 5.14644C107.118 5.31308 106.838 5.56305 106.607 5.89634C106.376 6.22963 106.198 6.64087 106.075 7.13005C105.957 7.61386 105.897 8.17561 105.897 8.81532V9.4362C105.897 10.0705 105.957 10.6323 106.075 11.1215C106.198 11.6107 106.376 12.0246 106.607 12.3632C106.844 12.6965 107.128 12.9492 107.462 13.1212C107.795 13.2932 108.177 13.3792 108.607 13.3792C109.037 13.3792 109.418 13.2932 109.752 13.1212C110.085 12.9492 110.365 12.6965 110.59 12.3632C110.822 12.0246 110.996 11.6107 111.114 11.1215C111.233 10.6323 111.292 10.0705 111.292 9.4362ZM119.912 9.76681H116.912L116.896 8.20249H119.468C119.909 8.20249 120.277 8.14067 120.573 8.01703C120.869 7.89339 121.092 7.71331 121.242 7.47678C121.398 7.24025 121.476 6.95265 121.476 6.61399C121.476 6.23769 121.403 5.93128 121.258 5.69475C121.119 5.45822 120.898 5.2862 120.597 5.17869C120.296 5.0658 119.914 5.00936 119.452 5.00936H117.63V15H115.412V3.25958H119.452C120.119 3.25958 120.713 3.32409 121.234 3.45311C121.761 3.57675 122.207 3.77027 122.573 4.03368C122.938 4.29708 123.215 4.62769 123.403 5.02548C123.597 5.42328 123.693 5.89634 123.693 6.44466C123.693 6.92846 123.581 7.37464 123.355 7.78319C123.134 8.18637 122.793 8.51428 122.331 8.76694C121.874 9.01959 121.293 9.16473 120.589 9.20236L119.912 9.76681ZM119.815 15H116.259L117.186 13.2583H119.815C120.256 13.2583 120.619 13.1857 120.904 13.0406C121.194 12.8954 121.409 12.6965 121.549 12.4439C121.694 12.1858 121.766 11.8902 121.766 11.5569C121.766 11.1914 121.702 10.8742 121.573 10.6054C121.449 10.3366 121.25 10.1297 120.976 9.98452C120.707 9.83938 120.353 9.76681 119.912 9.76681H117.606L117.622 8.20249H120.557L121.065 8.80725C121.742 8.81263 122.293 8.94702 122.718 9.21043C123.148 9.47383 123.465 9.8125 123.669 10.2264C123.874 10.6403 123.976 11.0865 123.976 11.565C123.976 12.3176 123.812 12.9492 123.484 13.4599C123.161 13.9706 122.688 14.3549 122.065 14.613C121.446 14.871 120.697 15 119.815 15ZM127.411 7.65418H130.257C131.166 7.65418 131.945 7.80738 132.596 8.11379C133.246 8.41483 133.743 8.83682 134.087 9.37976C134.437 9.9227 134.611 10.5597 134.611 11.2908C134.611 11.8391 134.512 12.3391 134.313 12.7906C134.12 13.2422 133.835 13.6346 133.458 13.9679C133.082 14.2958 132.625 14.5511 132.088 14.7339C131.55 14.9113 130.94 15 130.257 15H125.919V3.25958H128.153V13.2583H130.257C130.741 13.2583 131.141 13.1669 131.459 12.9841C131.776 12.8014 132.012 12.5595 132.168 12.2584C132.324 11.9574 132.402 11.6295 132.402 11.2747C132.402 10.9253 132.324 10.6081 132.168 10.3232C132.012 10.0383 131.776 9.8125 131.459 9.64585C131.141 9.47921 130.741 9.39589 130.257 9.39589H127.411V7.65418ZM137.958 3.25958V15H135.74V3.25958H137.958ZM148.013 13.2583V15H141.772V13.2583H148.013ZM142.449 3.25958V15H140.232V3.25958H142.449ZM147.199 8.10573V9.80712H141.772V8.10573H147.199ZM147.989 3.25958V5.00936H141.772V3.25958H147.989Z" fill="#221E1E"/>
<path d="M77.8285 23.0765V34.8169H75.6191V23.0765H77.8285ZM81.4732 23.0765V24.8263H72.0147V23.0765H81.4732ZM90.73 33.0752V34.8169H84.4889V33.0752H90.73ZM85.1662 23.0765V34.8169H82.9488V23.0765H85.1662ZM89.9156 27.9226V29.624H84.4889V27.9226H89.9156ZM90.7058 23.0765V24.8263H84.4889V23.0765H90.7058ZM94.036 23.0765L96.3825 27.2614L98.737 23.0765H101.285L97.8017 28.8983L101.374 34.8169H98.8016L96.3825 30.5513L93.9715 34.8169H91.3912L94.9633 28.8983L91.4799 23.0765H94.036ZM110.526 27.9226V29.6643H104.349V27.9226H110.526ZM104.954 23.0765V34.8169H102.737V23.0765H104.954ZM112.171 23.0765V34.8169H109.953V23.0765H112.171ZM123.935 28.6483V29.2531C123.935 30.1401 123.817 30.9384 123.581 31.6479C123.344 32.3522 123.008 32.9515 122.573 33.4461C122.137 33.9407 121.618 34.3196 121.016 34.5831C120.414 34.8465 119.745 34.9782 119.009 34.9782C118.283 34.9782 117.616 34.8465 117.009 34.5831C116.407 34.3196 115.885 33.9407 115.445 33.4461C115.004 32.9515 114.662 32.3522 114.421 31.6479C114.179 30.9384 114.058 30.1401 114.058 29.2531V28.6483C114.058 27.756 114.179 26.9577 114.421 26.2535C114.662 25.5493 115.001 24.9499 115.436 24.4553C115.872 23.9554 116.391 23.5737 116.993 23.3103C117.6 23.0469 118.267 22.9152 118.992 22.9152C119.729 22.9152 120.398 23.0469 121 23.3103C121.602 23.5737 122.121 23.9554 122.557 24.4553C122.997 24.9499 123.336 25.5493 123.573 26.2535C123.814 26.9577 123.935 27.756 123.935 28.6483ZM121.694 29.2531V28.6322C121.694 27.9925 121.635 27.4308 121.516 26.9469C121.398 26.4578 121.223 26.0465 120.992 25.7132C120.761 25.3799 120.476 25.13 120.138 24.9633C119.799 24.7913 119.417 24.7053 118.992 24.7053C118.562 24.7053 118.181 24.7913 117.847 24.9633C117.52 25.13 117.24 25.3799 117.009 25.7132C116.778 26.0465 116.6 26.4578 116.477 26.9469C116.358 27.4308 116.299 27.9925 116.299 28.6322V29.2531C116.299 29.8874 116.358 30.4492 116.477 30.9384C116.6 31.4275 116.778 31.8415 117.009 32.1801C117.245 32.5134 117.53 32.7661 117.864 32.9381C118.197 33.1101 118.579 33.1961 119.009 33.1961C119.439 33.1961 119.82 33.1101 120.154 32.9381C120.487 32.7661 120.766 32.5134 120.992 32.1801C121.223 31.8415 121.398 31.4275 121.516 30.9384C121.635 30.4492 121.694 29.8874 121.694 29.2531ZM133.321 23.0765V24.8263H127.588V23.0765H133.321ZM134.958 23.0765V34.8169H132.733V23.0765H134.958ZM127.233 23.0765H129.443L129.152 28.9386C129.109 29.8041 129.032 30.5621 128.919 31.2125C128.806 31.863 128.653 32.4194 128.459 32.8817C128.265 33.3386 128.024 33.7095 127.733 33.9944C127.443 34.2793 127.099 34.489 126.701 34.6234C126.309 34.7524 125.852 34.8169 125.33 34.8169H124.774V33.0752L125.088 33.0429C125.363 33.0214 125.599 32.9542 125.798 32.8413C126.002 32.7285 126.177 32.5591 126.322 32.3333C126.467 32.1022 126.586 31.8065 126.677 31.4464C126.774 31.0862 126.849 30.6481 126.903 30.132C126.962 29.616 127.005 29.0112 127.032 28.3177L127.233 23.0765ZM146.739 28.6483V29.2531C146.739 30.1401 146.621 30.9384 146.384 31.6479C146.148 32.3522 145.812 32.9515 145.376 33.4461C144.941 33.9407 144.422 34.3196 143.82 34.5831C143.218 34.8465 142.549 34.9782 141.812 34.9782C141.086 34.9782 140.42 34.8465 139.812 34.5831C139.21 34.3196 138.689 33.9407 138.248 33.4461C137.807 32.9515 137.466 32.3522 137.224 31.6479C136.982 30.9384 136.861 30.1401 136.861 29.2531V28.6483C136.861 27.756 136.982 26.9577 137.224 26.2535C137.466 25.5493 137.805 24.9499 138.24 24.4553C138.675 23.9554 139.194 23.5737 139.796 23.3103C140.404 23.0469 141.07 22.9152 141.796 22.9152C142.532 22.9152 143.202 23.0469 143.804 23.3103C144.406 23.5737 144.925 23.9554 145.36 24.4553C145.801 24.9499 146.14 25.5493 146.376 26.2535C146.618 26.9577 146.739 27.756 146.739 28.6483ZM144.497 29.2531V28.6322C144.497 27.9925 144.438 27.4308 144.32 26.9469C144.202 26.4578 144.027 26.0465 143.796 25.7132C143.565 25.3799 143.28 25.13 142.941 24.9633C142.602 24.7913 142.221 24.7053 141.796 24.7053C141.366 24.7053 140.984 24.7913 140.651 24.9633C140.323 25.13 140.044 25.3799 139.812 25.7132C139.581 26.0465 139.404 26.4578 139.28 26.9469C139.162 27.4308 139.103 27.9925 139.103 28.6322V29.2531C139.103 29.8874 139.162 30.4492 139.28 30.9384C139.404 31.4275 139.581 31.8415 139.812 32.1801C140.049 32.5134 140.334 32.7661 140.667 32.9381C141 33.1101 141.382 33.1961 141.812 33.1961C142.242 33.1961 142.624 33.1101 142.957 32.9381C143.29 32.7661 143.57 32.5134 143.796 32.1801C144.027 31.8415 144.202 31.4275 144.32 30.9384C144.438 30.4492 144.497 29.8874 144.497 29.2531ZM156.222 23.0765V24.8263H150.851V34.8169H148.642V23.0765H156.222ZM159.995 31.269L164.954 23.0765H167.18V34.8169H164.954V26.6244L159.995 34.8169H157.778V23.0765H159.995V31.269ZM171.607 31.269L176.566 23.0765H178.791V34.8169H176.566V26.6244L171.607 34.8169H169.389V23.0765H171.607V31.269Z" fill="#221E1E"/>
<path d="M75.9508 47.2529V47.5348C75.9508 47.8698 75.9089 48.1701 75.8251 48.4356C75.7414 48.7012 75.6209 48.9269 75.4636 49.1128C75.3063 49.2987 75.1173 49.4407 74.8967 49.5387C74.6781 49.6368 74.433 49.6858 74.1613 49.6858C73.8978 49.6858 73.6557 49.6368 73.4351 49.5387C73.2165 49.4407 73.0266 49.2987 72.8652 49.1128C72.7059 48.9269 72.5823 48.7012 72.4944 48.4356C72.4066 48.1701 72.3627 47.8698 72.3627 47.5348V47.2529C72.3627 46.9179 72.4056 46.6186 72.4914 46.3551C72.5792 46.0895 72.7028 45.8638 72.8621 45.6779C73.0215 45.49 73.2104 45.347 73.429 45.2489C73.6496 45.1509 73.8917 45.1019 74.1552 45.1019C74.4269 45.1019 74.672 45.1509 74.8906 45.2489C75.1112 45.347 75.3001 45.49 75.4574 45.6779C75.6168 45.8638 75.7383 46.0895 75.8221 46.3551C75.9079 46.6186 75.9508 46.9179 75.9508 47.2529ZM75.3655 47.5348V47.2468C75.3655 46.9812 75.3379 46.7463 75.2828 46.542C75.2297 46.3377 75.151 46.1661 75.0468 46.0272C74.9427 45.8883 74.815 45.7831 74.6638 45.7116C74.5147 45.6401 74.3452 45.6044 74.1552 45.6044C73.9713 45.6044 73.8049 45.6401 73.6557 45.7116C73.5087 45.7831 73.382 45.8883 73.2758 46.0272C73.1716 46.1661 73.0909 46.3377 73.0337 46.542C72.9765 46.7463 72.9479 46.9812 72.9479 47.2468V47.5348C72.9479 47.8024 72.9765 48.0393 73.0337 48.2457C73.0909 48.4499 73.1726 48.6225 73.2788 48.7635C73.3871 48.9024 73.5148 49.0076 73.6619 49.0791C73.811 49.1506 73.9775 49.1863 74.1613 49.1863C74.3533 49.1863 74.5239 49.1506 74.673 49.0791C74.8221 49.0076 74.9478 48.9024 75.0499 48.7635C75.1541 48.6225 75.2327 48.4499 75.2858 48.2457C75.339 48.0393 75.3655 47.8024 75.3655 47.5348ZM78.3837 45.6075H79.1221C79.3795 45.6075 79.6175 45.6514 79.8361 45.7392C80.0567 45.825 80.2487 45.9476 80.4121 46.1069C80.5776 46.2662 80.7063 46.4562 80.7982 46.6768C80.8901 46.8954 80.9361 47.1375 80.9361 47.403C80.9361 47.6686 80.8901 47.9117 80.7982 48.1323C80.7063 48.3529 80.5776 48.5439 80.4121 48.7053C80.2487 48.8646 80.0567 48.9882 79.8361 49.076C79.6175 49.1618 79.3795 49.2047 79.1221 49.2047H78.3837C78.1263 49.2047 77.8883 49.1618 77.6697 49.076C77.4512 48.9882 77.2591 48.8646 77.0937 48.7053C76.9303 48.5459 76.8026 48.357 76.7107 48.1384C76.6208 47.9178 76.5758 47.6747 76.5758 47.4092C76.5758 47.1436 76.6208 46.9015 76.7107 46.683C76.8026 46.4623 76.9303 46.2724 77.0937 46.113C77.2591 45.9517 77.4512 45.827 77.6697 45.7392C77.8883 45.6514 78.1263 45.6075 78.3837 45.6075ZM78.3837 46.0732C78.1161 46.0732 77.8893 46.1294 77.7034 46.2417C77.5175 46.352 77.3766 46.5073 77.2806 46.7075C77.1846 46.9077 77.1366 47.1416 77.1366 47.4092C77.1366 47.6114 77.1631 47.7942 77.2162 47.9576C77.2714 48.1211 77.3521 48.261 77.4583 48.3774C77.5645 48.4939 77.6953 48.5837 77.8505 48.6471C78.0058 48.7104 78.1835 48.742 78.3837 48.742H79.1283C79.3938 48.742 79.6185 48.6869 79.8024 48.5766C79.9882 48.4642 80.1292 48.308 80.2252 48.1078C80.3233 47.9055 80.3723 47.6706 80.3723 47.403C80.3723 47.2028 80.3447 47.021 80.2896 46.8576C80.2344 46.6942 80.1537 46.5543 80.0475 46.4378C79.9433 46.3214 79.8136 46.2315 79.6583 46.1682C79.5051 46.1049 79.3284 46.0732 79.1283 46.0732H78.3837ZM79.0394 44.9793V49.8084H78.4725V44.9793H79.0394ZM82.2996 48.6011L84.4966 45.1632H85.088V49.6245H84.4966V46.1835L82.2996 49.6245H81.7113V45.1632H82.2996V48.6011ZM90.0335 49.1281L89.9783 50.7H89.4482V49.6245H89.01V49.1281H90.0335ZM86.1819 49.6245V45.1632H86.7763V49.1434H88.9733V45.1632H89.5646V49.6245H86.1819ZM91.3694 48.6011L93.5664 45.1632H94.1578V49.6245H93.5664V46.1835L91.3694 49.6245H90.7811V45.1632H91.3694V48.6011ZM96.94 45.5584L95.4631 49.6245H94.8594L96.56 45.1632H96.9492L96.94 45.5584ZM98.1779 49.6245L96.6979 45.5584L96.6887 45.1632H97.0779L98.7846 49.6245H98.1779ZM98.1013 47.973V48.4571H95.5948V47.973H98.1013ZM102.305 45.1632V45.6473H100.265V45.1632H102.305ZM102.814 45.1632V49.6245H102.223V45.1632H102.814ZM100.062 45.1632H100.651L100.55 47.3479C100.535 47.6625 100.511 47.9433 100.476 48.1905C100.443 48.4356 100.396 48.6491 100.335 48.8309C100.274 49.0107 100.194 49.1598 100.096 49.2783C99.998 49.3947 99.8774 49.4815 99.7345 49.5387C99.5935 49.5959 99.424 49.6245 99.2258 49.6245H99.0665V49.1434L99.189 49.1343C99.3034 49.1261 99.4015 49.1005 99.4832 49.0576C99.567 49.0127 99.6374 48.9453 99.6946 48.8554C99.7539 48.7655 99.8019 48.6491 99.8386 48.5061C99.8754 48.3631 99.904 48.1885 99.9244 47.9821C99.9469 47.7738 99.9643 47.5307 99.9765 47.2529L100.062 45.1632ZM104.312 46.9802H105.529C105.856 46.9802 106.131 47.0353 106.356 47.1456C106.581 47.2539 106.751 47.4061 106.868 47.6022C106.984 47.7983 107.042 48.0281 107.042 48.2916C107.042 48.4877 107.01 48.6675 106.944 48.8309C106.879 48.9923 106.782 49.1332 106.653 49.2538C106.525 49.3722 106.366 49.4642 106.178 49.5295C105.99 49.5928 105.774 49.6245 105.529 49.6245H103.862V45.1632H104.453V49.1434H105.529C105.747 49.1434 105.924 49.1036 106.059 49.0239C106.196 48.9422 106.296 48.836 106.359 48.7053C106.422 48.5745 106.454 48.4346 106.454 48.2855C106.454 48.1364 106.422 47.9995 106.359 47.8749C106.296 47.7503 106.196 47.6512 106.059 47.5777C105.924 47.5021 105.747 47.4643 105.529 47.4643H104.312V46.9802ZM110.735 47.0813V47.5624H108.32V47.0813H110.735ZM108.412 45.1632V49.6245H107.821V45.1632H108.412ZM111.249 45.1632V49.6245H110.661V45.1632H111.249ZM112.778 46.9802H113.995C114.322 46.9802 114.597 47.0353 114.822 47.1456C115.047 47.2539 115.217 47.4061 115.334 47.6022C115.45 47.7983 115.509 48.0281 115.509 48.2916C115.509 48.4877 115.476 48.6675 115.41 48.8309C115.345 48.9923 115.248 49.1332 115.119 49.2538C114.991 49.3722 114.832 49.4642 114.644 49.5295C114.457 49.5928 114.24 49.6245 113.995 49.6245H112.328V45.1632H112.919V49.1434H113.995C114.213 49.1434 114.39 49.1036 114.525 49.0239C114.662 48.9422 114.762 48.836 114.825 48.7053C114.889 48.5745 114.92 48.4346 114.92 48.2855C114.92 48.1364 114.889 47.9995 114.825 47.8749C114.762 47.7503 114.662 47.6512 114.525 47.5777C114.39 47.5021 114.213 47.4643 113.995 47.4643H112.778V46.9802ZM116.639 45.1632V49.6245H116.048V45.1632H116.639ZM118.346 48.6011L120.543 45.1632H121.134V49.6245H120.543V46.1835L118.346 49.6245H117.758V45.1632H118.346V48.6011ZM119.915 44.057H120.374C120.374 44.2163 120.338 44.3583 120.264 44.4829C120.191 44.6055 120.085 44.7015 119.948 44.7709C119.812 44.8404 119.649 44.8751 119.461 44.8751C119.177 44.8751 118.953 44.7995 118.787 44.6484C118.624 44.4952 118.542 44.2981 118.542 44.057H119.002C119.002 44.1775 119.036 44.2838 119.106 44.3757C119.175 44.4676 119.294 44.5136 119.461 44.5136C119.625 44.5136 119.741 44.4676 119.811 44.3757C119.88 44.2838 119.915 44.1775 119.915 44.057ZM127.275 49.1434V49.6245H123.898V49.1434H127.275ZM123.993 49.1434V50.7215H123.408L123.405 49.1434H123.993ZM127.79 49.1434L127.783 50.7184H127.198V49.1434H127.79ZM126.696 45.1632V45.6473H124.741V45.1632H126.696ZM127.204 45.1632V49.6245H126.616V45.1632H127.204ZM124.539 45.1632H125.13L125.038 46.9587C125.026 47.2284 125 47.4776 124.961 47.7064C124.923 47.9331 124.875 48.1405 124.817 48.3284C124.76 48.5163 124.695 48.6848 124.621 48.834C124.548 48.981 124.469 49.1087 124.385 49.217C124.302 49.3232 124.214 49.411 124.122 49.4805C124.032 49.5479 123.941 49.5959 123.849 49.6245H123.579V49.1434H123.769C123.823 49.0862 123.883 49.0035 123.95 48.8953C124.02 48.787 124.088 48.6471 124.155 48.4755C124.225 48.3018 124.285 48.0904 124.336 47.8412C124.389 47.592 124.425 47.2978 124.444 46.9587L124.539 45.1632ZM129.101 48.6011L131.298 45.1632H131.889V49.6245H131.298V46.1835L129.101 49.6245H128.513V45.1632H129.101V48.6011ZM135.888 45.1632V45.6473H133.847V45.1632H135.888ZM136.397 45.1632V49.6245H135.805V45.1632H136.397ZM133.645 45.1632H134.233L134.132 47.3479C134.118 47.6625 134.093 47.9433 134.059 48.1905C134.026 48.4356 133.979 48.6491 133.918 48.8309C133.856 49.0107 133.777 49.1598 133.679 49.2783C133.581 49.3947 133.46 49.4815 133.317 49.5387C133.176 49.5959 133.007 49.6245 132.809 49.6245H132.649V49.1434L132.772 49.1343C132.886 49.1261 132.984 49.1005 133.066 49.0576C133.15 49.0127 133.22 48.9453 133.277 48.8554C133.337 48.7655 133.385 48.6491 133.421 48.5061C133.458 48.3631 133.487 48.1885 133.507 47.9821C133.53 47.7738 133.547 47.5307 133.559 47.2529L133.645 45.1632ZM140.297 49.1434V49.6245H137.935V49.1434H140.297ZM138.054 45.1632V49.6245H137.463V45.1632H138.054ZM139.985 47.0813V47.5624H137.935V47.0813H139.985ZM140.267 45.1632V45.6473H137.935V45.1632H140.267ZM142.675 47.8749H141.483V47.3938H142.675C142.906 47.3938 143.093 47.3571 143.236 47.2835C143.379 47.21 143.483 47.1078 143.548 46.9771C143.616 46.8464 143.649 46.6973 143.649 46.5298C143.649 46.3765 143.616 46.2325 143.548 46.0977C143.483 45.9629 143.379 45.8546 143.236 45.7729C143.093 45.6892 142.906 45.6473 142.675 45.6473H141.621V49.6245H141.03V45.1632H142.675C143.012 45.1632 143.297 45.2214 143.53 45.3378C143.763 45.4542 143.939 45.6156 144.06 45.8219C144.181 46.0262 144.241 46.2601 144.241 46.5236C144.241 46.8096 144.181 47.0537 144.06 47.2559C143.939 47.4582 143.763 47.6124 143.53 47.7186C143.297 47.8228 143.012 47.8749 142.675 47.8749ZM148.071 45.1632V49.6245H147.489V45.1632H148.071ZM149.505 45.1632V45.6473H146.058V45.1632H149.505ZM153.001 49.1434V49.6245H150.639V49.1434H153.001ZM150.758 45.1632V49.6245H150.167V45.1632H150.758ZM152.689 47.0813V47.5624H150.639V47.0813H152.689ZM152.97 45.1632V45.6473H150.639V45.1632H152.97ZM156.427 48.2058H157.015C156.984 48.4877 156.904 48.74 156.773 48.9627C156.642 49.1853 156.457 49.362 156.218 49.4928C155.979 49.6214 155.681 49.6858 155.324 49.6858C155.062 49.6858 154.824 49.6368 154.61 49.5387C154.397 49.4407 154.215 49.3018 154.061 49.122C153.908 48.9402 153.79 48.7226 153.706 48.4693C153.624 48.214 153.583 47.9301 153.583 47.6175V47.1732C153.583 46.8607 153.624 46.5778 153.706 46.3245C153.79 46.0691 153.909 45.8505 154.064 45.6687C154.222 45.4869 154.411 45.347 154.631 45.2489C154.852 45.1509 155.1 45.1019 155.376 45.1019C155.713 45.1019 155.998 45.1652 156.231 45.2918C156.464 45.4185 156.644 45.5942 156.773 45.8189C156.904 46.0415 156.984 46.2999 157.015 46.5941H156.427C156.398 46.3857 156.345 46.207 156.267 46.0579C156.19 45.9067 156.08 45.7903 155.937 45.7086C155.794 45.6269 155.607 45.586 155.376 45.586C155.178 45.586 155.003 45.6238 154.852 45.6994C154.703 45.775 154.577 45.8822 154.475 46.0211C154.375 46.16 154.299 46.3265 154.248 46.5206C154.197 46.7146 154.172 46.9301 154.172 47.1671V47.6175C154.172 47.8361 154.194 48.0414 154.239 48.2334C154.286 48.4254 154.356 48.5939 154.45 48.739C154.544 48.884 154.664 48.9984 154.809 49.0822C154.954 49.1639 155.126 49.2047 155.324 49.2047C155.575 49.2047 155.775 49.1649 155.924 49.0852C156.073 49.0056 156.186 48.8912 156.261 48.742C156.339 48.5929 156.394 48.4142 156.427 48.2058ZM161.253 45.1632V49.6245H160.658L158.412 46.1835V49.6245H157.821V45.1632H158.412L160.668 48.6134V45.1632H161.253ZM162.935 45.1632V49.6245H162.344V45.1632H162.935ZM165.184 48.2763L166.07 45.1632H166.499L166.25 46.3735L165.297 49.6245H164.872L165.184 48.2763ZM164.268 45.1632L164.973 48.215L165.184 49.6245H164.761L163.68 45.1632H164.268ZM167.645 48.212L168.334 45.1632H168.925L167.847 49.6245H167.424L167.645 48.212ZM166.563 45.1632L167.424 48.2763L167.736 49.6245H167.311L166.391 46.3735L166.14 45.1632H166.563ZM172.415 49.1434V49.6245H170.053V49.1434H172.415ZM170.172 45.1632V49.6245H169.581V45.1632H170.172ZM172.103 47.0813V47.5624H170.053V47.0813H172.103ZM172.385 45.1632V45.6473H170.053V45.1632H172.385ZM175.853 49.1434V49.6245H173.623V49.1434H175.853ZM173.739 45.1632V49.6245H173.148V45.1632H173.739ZM179.236 49.1434V49.6245H177.005V49.1434H179.236ZM177.122 45.1632V49.6245H176.53V45.1632H177.122Z" fill="#D82329"/>
<path d="M64.0723 11.2295V39.6336" stroke="#221E1E" stroke-width="0.33028"/>
<path d="M32.2181 28.8098C32.2438 29.0009 32.5122 29.0267 32.571 28.8465C32.7107 28.4274 32.8504 27.6663 32.8504 26.2913V19.7581C32.8504 18.1257 31.5526 17.0853 29.7695 15.3021C27.9864 13.519 24.3503 9.87923 22.7142 8.24685C21.2657 6.79829 20.8686 3.0813 20.7951 2.25041C20.7877 2.15482 20.7068 2.08496 20.6112 2.08496H20.0745C19.9715 2.08496 19.8906 2.16584 19.8906 2.26879V9.58511C19.8906 10.9969 20.6701 12.519 22.1186 13.9675C23.5672 15.4161 27.9496 19.7985 29.6592 21.5081C31.3688 23.2177 31.5526 24.2913 31.7769 25.7766C31.9276 26.795 32.1151 28.0965 32.2181 28.8098Z" fill="#221E1E"/>
<path d="M29.7693 3.41955C29.409 3.05924 28.9678 2.61806 28.4899 2.14011C28.4531 2.10334 28.4053 2.08496 28.3575 2.08496H22.5743C22.4052 2.08496 22.3207 2.28717 22.442 2.40482C24.1295 4.09603 28.0634 8.02625 29.659 9.62555C31.3686 11.3351 31.5525 12.4124 31.7767 13.894C31.9311 14.9087 32.115 16.1992 32.2179 16.9161C32.2436 17.1147 32.5194 17.133 32.5819 16.9419C32.7179 16.5191 32.854 15.7617 32.854 14.4124V7.87552C32.854 6.23945 31.5525 5.20267 29.7693 3.41955Z" fill="#221E1E"/>
<path d="M31.8384 2.29062C31.9781 3.22446 32.1288 4.2833 32.2171 4.89729C32.2428 5.08847 32.5112 5.1142 32.57 4.93405C32.7097 4.51493 32.8494 3.75388 32.8494 2.37885V2.08105H32.0222C31.9082 2.08105 31.82 2.18032 31.8384 2.29062Z" fill="#221E1E"/>
<path d="M33.3386 29.9826L33.1364 29.7804C33.0665 29.7105 33.0665 29.5966 33.1364 29.5267L36.8387 25.8244C36.8717 25.7913 36.9195 25.7729 36.9673 25.7729H52.2691C52.3684 25.7729 52.4493 25.8538 52.4493 25.9531V26.2435C52.4493 26.3428 52.3684 26.4237 52.2691 26.4237H37.232C37.1842 26.4237 37.1401 26.4421 37.1034 26.4752L33.5923 29.9899C33.5224 30.0561 33.4084 30.0561 33.3386 29.9826Z" fill="#221E1E"/>
<path d="M18.6658 29.7912L15.3422 26.4713C15.3091 26.4382 15.2613 26.4161 15.2135 26.4161H0.183827C0.0845605 26.4161 0 26.3352 0 26.2323V25.9529C0 25.8536 0.0808839 25.769 0.183827 25.769H15.4819C15.5297 25.769 15.5775 25.7874 15.6106 25.8242L18.9195 29.1331C18.9526 29.1698 18.9746 29.214 18.9746 29.2618L18.9783 29.6588C18.9783 29.8279 18.7798 29.9088 18.6658 29.7912Z" fill="#221E1E"/>
<path d="M22.788 20.7212C20.8504 18.7837 20.6409 14.5299 20.6298 13.0225C20.6298 12.8387 20.3872 12.7725 20.2916 12.927C20.0967 13.2358 19.8945 13.6806 19.8945 14.188V22.2065C19.8945 23.3205 20.7475 24.3242 21.8247 25.3978L29.3432 32.9163C29.4168 32.9898 29.4168 33.1038 29.3432 33.1773L26.9314 35.5892C26.8579 35.6627 26.7439 35.6627 26.6741 35.5892C26.0969 35.0119 23.7292 32.6443 22.2365 31.1516C21.685 30.6001 21.3137 29.7618 21.0673 28.8868H21.071C20.707 27.2655 20.6409 25.6478 20.6372 24.8279C20.6372 24.6441 20.3945 24.5779 20.299 24.7323C20.1041 25.0412 19.9019 25.486 19.9019 25.9934V26.2507V28.8868V31.3354C19.9019 31.3832 19.9203 31.431 19.957 31.4641L25.9351 37.4421C26.0086 37.5157 26.1226 37.5157 26.1961 37.4421L32.733 30.9052C32.8066 30.8317 32.8066 30.7177 32.733 30.6442L22.788 20.7212Z" fill="#221E1E"/>
<path d="M0.191526 1.98193H18.7948C18.8978 1.98193 18.9823 2.06649 18.9823 2.16944V23.2618C18.9823 23.4309 18.7801 23.5154 18.6588 23.3941L16.9786 21.7139C16.9419 21.6772 16.8977 21.6588 16.8463 21.6588H0.191526C0.0885824 21.6588 0.00402175 21.5742 0.00402175 21.4713V2.16944C0.000345204 2.06282 0.0849059 1.98193 0.191526 1.98193Z" fill="#221E1E"/>
<path d="M52.2593 1.98193H33.6524C33.5494 1.98193 33.4648 2.06649 33.4648 2.16944V23.2654C33.4648 23.4309 33.6671 23.5154 33.7847 23.3978L35.4649 21.7176C35.5016 21.6809 35.5458 21.6625 35.5972 21.6625H52.2557C52.3586 21.6625 52.4432 21.5779 52.4432 21.475V2.16944C52.4468 2.06282 52.3623 1.98193 52.2593 1.98193Z" fill="#221E1E"/>
<path d="M37.7841 29.9345L26.2581 41.4605C26.1846 41.534 26.0669 41.534 25.9971 41.4605L14.4711 29.9345C14.438 29.8978 14.3902 29.8794 14.3424 29.8794H0.187733C0.0847902 29.8794 0.00390625 29.964 0.00390625 30.0669V51.1335C0.00390625 51.2364 0.0847902 51.3173 0.187733 51.3173H52.2623C52.3652 51.3173 52.4461 51.2364 52.4461 51.1335V30.0669C52.4461 29.964 52.3652 29.8794 52.2623 29.8794H37.9201C37.8686 29.8794 37.8208 29.9015 37.7841 29.9345Z" fill="#221E1E"/>
</svg>
