<svg width="191" height="32" viewBox="0 0 191 32" fill="none" xmlns="http://www.w3.org/2000/svg">
<path d="M4.66473 1.43711L1.49419 26.1726C1.48894 26.2501 1.48237 26.3223 1.48237 26.4155C1.48237 28.5817 3.2521 30.3436 5.4275 30.3436H56.3361L59.5066 5.60937C59.5132 5.52928 59.5184 5.45708 59.5184 5.36649C59.5184 3.20028 57.7487 1.43843 55.5733 1.43843L4.66473 1.43711ZM57.2393 31.3676H5.4275C2.68757 31.3676 0.457031 29.1462 0.457031 26.4155C0.457031 26.2921 0.463596 26.1962 0.474098 26.0807L3.7628 0.413086L55.5733 0.414399C58.3146 0.414399 60.5451 2.63575 60.5451 5.36649C60.5451 5.48727 60.5372 5.58311 60.528 5.69601L57.2393 31.3676Z" fill="#2D2D2D"/>
<path d="M8.21713 23.1528C8.14754 23.4627 8.09766 23.783 8.09766 24.1138C8.09766 26.5321 10.0656 28.4922 12.4878 28.4922H23.2821L21.1225 21.9463H15.1818L15.9551 15.3965H9.27791L8.21713 23.1528Z" fill="#2D2D2D"/>
<path d="M17.3729 3.42285H10.9202L10.168 8.91715H16.7231L17.3729 3.42285Z" fill="#2D2D2D"/>
<path d="M48.9848 8.91602C47.8098 8.91602 46.8277 9.44641 46.216 10.3523L42.2551 17.0006L39.4311 8.91602H32.4244L27.6614 17.0413L25.1578 10.5663C24.5552 9.57638 23.4589 8.91602 22.2196 8.91602H5.27194L4.34375 15.3963H19.8249L23.4524 26.0553C23.8803 27.443 25.226 28.492 26.7568 28.492C28.067 28.492 29.3261 27.7581 29.8958 26.6763L35.4295 17.8854L38.0054 26.0553C38.4294 27.4496 40.0652 28.492 41.6013 28.492C42.7329 28.492 44.013 28.0942 44.6655 26.9796L50.7834 15.9385C50.9816 15.6483 51.3256 15.4829 51.705 15.4829H54.1167L57.8859 8.91602H48.9848Z" fill="#ED1C24"/>
<path d="M71.5055 13.456H74.3715L75.0319 9.29031H72.1672L72.846 5.01172H67.7823L67.1035 9.29031H65.4625L64.8008 13.456H66.4419L64.8428 23.5374H69.9065L71.5055 13.456Z" fill="#2D2D2D"/>
<path d="M79.635 14.345C80.1759 12.8733 81.5229 12.0948 82.9972 12.0948C84.36 12.0948 85.4706 12.9836 85.5061 14.345H79.635ZM89.828 16.7344C90.5986 11.8729 88.2184 8.81787 83.2663 8.81787C78.6215 8.81787 74.9113 11.6786 74.1591 16.4285C73.3779 21.3451 76.4881 24.0102 81.2183 24.0102C84.4729 24.0102 87.9139 22.4834 89.2543 19.1225H84.3862C83.6799 20.0664 82.8436 20.4274 81.7592 20.4274C79.6718 20.4274 78.7633 19.3168 79.0888 17.2608H89.7453L89.828 16.7344Z" fill="#2D2D2D"/>
<path d="M103.258 9.65153C102.344 9.0962 101.22 8.81787 100.052 8.81787C95.5724 8.81787 91.5643 11.9845 90.8383 16.5663C90.1556 20.8725 93.1896 24.0102 97.4183 24.0102C98.6432 24.0102 99.9062 23.7608 101.107 23.2054L101.786 18.9282C101.021 19.5386 99.9902 19.8997 99.1001 19.8997C97.014 19.8997 95.7694 18.4555 96.095 16.3996C96.4074 14.429 98.1758 12.9284 100.123 12.9284C101.097 12.9284 101.916 13.3722 102.579 13.9288L103.258 9.65153Z" fill="#2D2D2D"/>
<path d="M111.222 9.2905H106.158L103.898 23.5389H108.962L110.133 16.1502C110.415 14.3726 111.243 12.8457 113.301 12.8457C115.805 12.8457 115.203 15.2338 114.987 16.5952L113.885 23.5389H118.949L120.346 14.7336C120.901 11.2348 119.754 8.81787 115.914 8.81787C113.939 8.81787 112.428 9.40078 110.987 11.1232H110.931L111.222 9.2905Z" fill="#2D2D2D"/>
<path d="M129.317 9.29047H124.253L121.992 23.5389H127.056L129.317 9.29047ZM128.102 0.985352C126.544 0.985352 125.062 2.26276 124.815 3.81849C124.568 5.37423 125.646 6.65163 127.203 6.65163C128.761 6.65163 130.243 5.37423 130.49 3.81849C130.737 2.26276 129.661 0.985352 128.102 0.985352Z" fill="#2D2D2D"/>
<path d="M135.885 9.29053H130.266L135.462 23.5389H138.744L143.515 15.7327L145.81 23.5389H149.093L158.81 9.29053H153.217L148.404 17.0114L146.04 9.29053H143.036L138.222 17.0114L135.885 9.29053Z" fill="#2D2D2D"/>
<path d="M163.05 14.345C163.59 12.8733 164.937 12.0948 166.411 12.0948C167.775 12.0948 168.886 12.9836 168.92 14.345H163.05ZM173.243 16.7344C174.014 11.8729 171.633 8.81787 166.681 8.81787C162.035 8.81787 158.326 11.6786 157.573 16.4285C156.793 21.3451 159.903 24.0102 164.632 24.0102C167.887 24.0102 171.329 22.4834 172.668 19.1225H167.801C167.094 20.0664 166.257 20.4274 165.173 20.4274C163.087 20.4274 162.178 19.3168 162.504 17.2608H173.159L173.243 16.7344Z" fill="#2D2D2D"/>
<path d="M182.896 0.485352H177.833L174.176 23.5378H179.239L182.896 0.485352Z" fill="#2D2D2D"/>
<mask id="mask0_1383_2042" style="mask-type:luminance" maskUnits="userSpaceOnUse" x="181" y="0" width="10" height="24">
<path d="M181.949 0.412598H191V23.6029H181.949V0.412598Z" fill="white"/>
</mask>
<g mask="url(#mask0_1383_2042)">
<path d="M191.001 0.485352H185.938L182.281 23.5378H187.344L191.001 0.485352Z" fill="#2D2D2D"/>
</g>
<mask id="mask1_1383_2042" style="mask-type:luminance" maskUnits="userSpaceOnUse" x="63" y="26" width="3" height="6">
<path d="M63.6367 26.9639H65.3172V31.8516H63.6367V26.9639Z" fill="white"/>
</mask>
<g mask="url(#mask1_1383_2042)">
<path d="M64.7521 27.2837V30.9584C64.7521 31.2419 64.7219 31.5899 64.349 31.5899C64.1508 31.5899 63.9709 31.4494 63.8869 31.2708L63.707 31.4061C63.8226 31.6489 64.0563 31.813 64.3293 31.813C64.8768 31.813 64.991 31.4244 64.991 30.9584V27.2837H64.7521Z" fill="#2D2D2D"/>
</g>
<path d="M67.5915 27.5064V27.2832H65.8008V31.0275H67.5915V30.8043H66.0397V29.091H67.5521V28.8678H66.0397V27.5064H67.5915Z" fill="#2D2D2D"/>
<path d="M69.157 27.5064H70.1272V27.2832H67.9492V27.5064H68.9194V31.0275H69.157V27.5064Z" fill="#2D2D2D"/>
<path d="M70.1562 29.5533H71.1002V29.3301H70.1562V29.5533Z" fill="#2D2D2D"/>
<path d="M73.9357 29.225V29.4482H75.2787C75.2643 29.8552 75.1448 30.1689 74.8205 30.442C74.5133 30.6901 74.1195 30.8543 73.7164 30.8543C72.7817 30.8543 72.0163 30.0784 72.0163 29.1554C72.0163 28.2561 72.8014 27.4566 73.7164 27.4566C74.3243 27.4566 74.831 27.7651 75.1645 28.2614L75.3588 28.1078C74.965 27.5708 74.4136 27.2334 73.7322 27.2334C72.657 27.2334 71.7773 28.0973 71.7773 29.1699C71.7773 30.2031 72.6622 31.0774 73.702 31.0774C74.2298 31.0774 74.7667 30.8582 75.1251 30.4709C75.4586 30.1086 75.5282 29.6963 75.5177 29.225H73.9357Z" fill="#2D2D2D"/>
<path d="M76.7291 29.2551C77.3501 29.2643 77.803 28.9269 77.803 28.2757C77.803 27.9593 77.6941 27.66 77.4249 27.4709C77.1715 27.2871 76.8722 27.2832 76.5689 27.2832H76.1016V31.0275H76.3405V29.2551H76.46L77.6836 31.0275H77.9579L76.7291 29.2551ZM76.3405 29.0306V27.5064H76.4941C76.7134 27.5064 76.968 27.4972 77.1663 27.5904C77.4354 27.7099 77.5641 27.9882 77.5641 28.2665C77.5641 28.4897 77.4801 28.7129 77.3002 28.8573C77.1111 29.0214 76.8775 29.0306 76.6438 29.0306H76.3405Z" fill="#2D2D2D"/>
<path d="M80.2503 27.2334C79.1909 27.2334 78.3047 28.1025 78.3047 29.1554C78.3047 30.2083 79.1948 31.0774 80.2503 31.0774C81.3046 31.0774 82.1947 30.2083 82.1947 29.1554C82.1947 28.1025 81.3046 27.2334 80.2503 27.2334ZM80.2503 27.4566C81.1798 27.4566 81.9557 28.2312 81.9557 29.1554C81.9557 30.0744 81.1798 30.8543 80.2503 30.8543C79.3143 30.8543 78.5436 30.0784 78.5436 29.1554C78.5436 28.2312 79.3143 27.4566 80.2503 27.4566Z" fill="#2D2D2D"/>
<path d="M85.0463 29.5479C85.0463 29.8853 85.0463 30.2424 84.852 30.4918C84.6682 30.7294 84.3006 30.8542 84.0118 30.8542C83.7229 30.8542 83.3553 30.7294 83.1715 30.4918C82.9772 30.2424 82.9772 29.8853 82.9772 29.5479V27.2832H82.7383V29.6175C82.7383 29.9995 82.7383 30.3277 82.9917 30.6402C83.2464 30.9277 83.6336 31.0774 84.0118 31.0774C84.3899 31.0774 84.7785 30.9277 85.0318 30.6402C85.2852 30.3277 85.2852 29.9995 85.2852 29.6175V27.2832H85.0463V29.5479Z" fill="#2D2D2D"/>
<path d="M86.8927 27.5064H87.8616V27.2832H85.6836V27.5064H86.6538V31.0275H86.8927V27.5064Z" fill="#2D2D2D"/>
<path d="M88.293 31.0275H88.5319V27.2832H88.293V31.0275Z" fill="#2D2D2D"/>
<path d="M92.7283 27.2833H92.4894V30.551L89.3398 27.2334V31.0275H89.5788V27.8097L92.7283 31.1523V27.2833Z" fill="#2D2D2D"/>
<path d="M95.4643 29.225V29.4482H96.8074C96.7916 29.8552 96.6722 30.1689 96.3492 30.442C96.0407 30.6901 95.6481 30.8543 95.2451 30.8543C94.3103 30.8543 93.5436 30.0784 93.5436 29.1554C93.5436 28.2561 94.33 27.4566 95.2451 27.4566C95.8529 27.4566 96.3597 27.7651 96.6932 28.2614L96.8875 28.1078C96.4936 27.5708 95.9422 27.2334 95.2595 27.2334C94.1856 27.2334 93.3047 28.0973 93.3047 29.1699C93.3047 30.2031 94.1909 31.0774 95.2306 31.0774C95.7584 31.0774 96.2941 30.8582 96.6525 30.4709C96.9859 30.1086 97.0555 29.6963 97.0463 29.225H95.4643Z" fill="#2D2D2D"/>
<mask id="mask2_1383_2042" style="mask-type:luminance" maskUnits="userSpaceOnUse" x="97" y="30" width="2" height="2">
<path d="M97.5898 30.3252H98.262V31.852H97.5898V30.3252Z" fill="white"/>
</mask>
<g mask="url(#mask2_1383_2042)">
<path d="M97.995 30.6602L97.6562 31.7984L97.8059 31.8522L98.2195 30.7297L97.995 30.6602Z" fill="#2D2D2D"/>
</g>
<path d="M102.647 29.225V29.4482H103.99C103.975 29.8552 103.856 30.1689 103.533 30.442C103.224 30.6901 102.83 30.8543 102.429 30.8543C101.494 30.8543 100.727 30.0784 100.727 29.1554C100.727 28.2561 101.512 27.4566 102.429 27.4566C103.035 27.4566 103.542 27.7651 103.875 28.2614L104.07 28.1078C103.677 27.5708 103.124 27.2334 102.443 27.2334C101.369 27.2334 100.488 28.0973 100.488 29.1699C100.488 30.2031 101.373 31.0774 102.413 31.0774C102.941 31.0774 103.478 30.8582 103.836 30.4709C104.17 30.1086 104.239 29.6963 104.229 29.225H102.647Z" fill="#2D2D2D"/>
<path d="M105.439 29.2551C106.061 29.2643 106.514 28.9269 106.514 28.2757C106.514 27.9593 106.404 27.66 106.135 27.4709C105.881 27.2871 105.583 27.2832 105.28 27.2832H104.812V31.0275H105.05V29.2551H105.17L106.393 31.0275H106.668L105.439 29.2551ZM105.05 29.0306V27.5064H105.205C105.424 27.5064 105.678 27.4972 105.876 27.5904C106.145 27.7099 106.275 27.9882 106.275 28.2665C106.275 28.4897 106.19 28.7129 106.011 28.8573C105.822 29.0214 105.588 29.0306 105.355 29.0306H105.05Z" fill="#2D2D2D"/>
<path d="M108.961 27.2334C107.902 27.2334 107.016 28.1025 107.016 29.1554C107.016 30.2083 107.907 31.0774 108.961 31.0774C110.015 31.0774 110.906 30.2083 110.906 29.1554C110.906 28.1025 110.015 27.2334 108.961 27.2334ZM108.961 27.4566C109.892 27.4566 110.668 28.2312 110.668 29.1554C110.668 30.0744 109.892 30.8543 108.961 30.8543C108.027 30.8543 107.256 30.0784 107.256 29.1554C107.256 28.2312 108.027 27.4566 108.961 27.4566Z" fill="#2D2D2D"/>
<path d="M113.759 29.5479C113.759 29.8853 113.759 30.2424 113.564 30.4918C113.38 30.7294 113.012 30.8542 112.723 30.8542C112.435 30.8542 112.066 30.7294 111.882 30.4918C111.688 30.2424 111.688 29.8853 111.688 29.5479V27.2832H111.449V29.6175C111.449 29.9995 111.449 30.3277 111.704 30.6402C111.957 30.9277 112.345 31.0774 112.723 31.0774C113.102 31.0774 113.489 30.9277 113.743 30.6402C113.996 30.3277 113.996 29.9995 113.996 29.6175V27.2832H113.759V29.5479Z" fill="#2D2D2D"/>
<path d="M115.604 27.5064H116.574V27.2832H114.395V27.5064H115.365V31.0275H115.604V27.5064Z" fill="#2D2D2D"/>
<path d="M117.004 31.0275H117.243V27.2832H117.004V31.0275Z" fill="#2D2D2D"/>
<path d="M121.435 27.2833H121.196V30.551L118.047 27.2334V31.0275H118.286V27.8097L121.435 31.1523V27.2833Z" fill="#2D2D2D"/>
<path d="M124.178 29.225V29.4482H125.521C125.506 29.8552 125.387 30.1689 125.064 30.442C124.756 30.6901 124.362 30.8543 123.96 30.8543C123.024 30.8543 122.258 30.0784 122.258 29.1554C122.258 28.2561 123.044 27.4566 123.96 27.4566C124.566 27.4566 125.073 27.7651 125.407 28.2614L125.601 28.1078C125.207 27.5708 124.656 27.2334 123.974 27.2334C122.899 27.2334 122.02 28.0973 122.02 29.1699C122.02 30.2031 122.904 31.0774 123.944 31.0774C124.472 31.0774 125.009 30.8582 125.367 30.4709C125.699 30.1086 125.769 29.6963 125.76 29.225H124.178Z" fill="#2D2D2D"/>
<path d="M129.901 29.7962L130.403 31.0277H130.647L129.079 27.1587L127.508 31.0277H127.752L128.254 29.7962H129.901ZM129.811 29.573H128.344L129.079 27.7652L129.811 29.573Z" fill="#2D2D2D"/>
<path d="M134.457 27.2833H134.22V30.551L131.07 27.2334V31.0275H131.309V27.8097L134.457 31.1523V27.2833Z" fill="#2D2D2D"/>
<path d="M135.262 31.0275H135.938C136.494 31.0275 136.938 30.9277 137.35 30.5312C137.729 30.1689 137.928 29.6765 137.928 29.1593C137.928 28.6236 137.723 28.1221 137.331 27.7545C136.919 27.3725 136.485 27.2832 135.938 27.2832H135.262V31.0275ZM135.501 30.8043V27.5064H135.934C136.4 27.5064 136.789 27.5904 137.147 27.9134C137.5 28.2363 137.689 28.6827 137.689 29.1593C137.689 29.607 137.511 30.0349 137.192 30.3527C136.833 30.7045 136.425 30.8043 135.934 30.8043H135.501Z" fill="#2D2D2D"/>
<path d="M140.047 31.0275H140.723C141.28 31.0275 141.723 30.9277 142.136 30.5312C142.514 30.1689 142.713 29.6765 142.713 29.1593C142.713 28.6236 142.508 28.1221 142.116 27.7545C141.704 27.3725 141.27 27.2832 140.723 27.2832H140.047V31.0275ZM140.286 30.8043V27.5064H140.718C141.185 27.5064 141.574 27.5904 141.932 27.9134C142.285 28.2363 142.474 28.6827 142.474 29.1593C142.474 29.607 142.294 30.0349 141.977 30.3527C141.618 30.7045 141.21 30.8043 140.718 30.8043H140.286Z" fill="#2D2D2D"/>
<path d="M143.915 29.2551C144.538 29.2643 144.991 28.9269 144.991 28.2757C144.991 27.9593 144.88 27.66 144.612 27.4709C144.359 27.2871 144.06 27.2832 143.756 27.2832H143.289V31.0275H143.528V29.2551H143.647L144.871 31.0275H145.144L143.915 29.2551ZM143.528 29.0306V27.5064H143.682C143.901 27.5064 144.154 27.4972 144.354 27.5904C144.622 27.7099 144.752 27.9882 144.752 28.2665C144.752 28.4897 144.666 28.7129 144.488 28.8573C144.299 29.0214 144.065 29.0306 143.831 29.0306H143.528Z" fill="#2D2D2D"/>
<path d="M145.715 31.0275H145.954V27.2832H145.715V31.0275Z" fill="#2D2D2D"/>
<path d="M147.001 27.2832H146.762V31.0275H147.955V30.8043H147.001V27.2832Z" fill="#2D2D2D"/>
<path d="M148.626 27.2832H148.387V31.0275H149.581V30.8043H148.626V27.2832Z" fill="#2D2D2D"/>
<path d="M150.012 31.0275H150.251V27.2832H150.012V31.0275Z" fill="#2D2D2D"/>
<path d="M154.447 27.2833H154.208V30.551L151.059 27.2334V31.0275H151.298V27.8097L154.447 31.1523V27.2833Z" fill="#2D2D2D"/>
<path d="M157.187 29.225V29.4482H158.53C158.514 29.8552 158.395 30.1689 158.072 30.442C157.763 30.6901 157.371 30.8543 156.968 30.8543C156.033 30.8543 155.266 30.0784 155.266 29.1554C155.266 28.2561 156.053 27.4566 156.968 27.4566C157.576 27.4566 158.082 27.7651 158.416 28.2614L158.61 28.1078C158.216 27.5708 157.665 27.2334 156.983 27.2334C155.908 27.2334 155.027 28.0973 155.027 29.1699C155.027 30.2031 155.914 31.0774 156.953 31.0774C157.481 31.0774 158.017 30.8582 158.375 30.4709C158.709 30.1086 158.778 29.6963 158.769 29.225H157.187Z" fill="#2D2D2D"/>
<path d="M162.685 27.5064V27.2832H160.895V31.0275H162.685V30.8043H161.133V29.091H162.646V28.8678H161.133V27.5064H162.685Z" fill="#2D2D2D"/>
<path d="M165.595 29.4928H165.257L166.193 30.4617C165.899 30.6954 165.526 30.8543 165.148 30.8543C164.202 30.8543 163.426 30.0941 163.426 29.1554C163.426 28.2325 164.208 27.4566 165.137 27.4566C166.098 27.4566 166.839 28.2469 166.839 29.1856C166.839 29.632 166.655 29.9943 166.357 30.3173L165.595 29.4928ZM166.699 31.0275H167.022L166.53 30.4958C166.878 30.0994 167.077 29.6661 167.077 29.1397C167.077 28.0933 166.187 27.2334 165.137 27.2334C164.074 27.2334 163.188 28.0933 163.188 29.1554C163.188 30.2228 164.063 31.0774 165.133 31.0774C165.57 31.0774 166.023 30.9081 166.361 30.6311L166.699 31.0275Z" fill="#2D2D2D"/>
<path d="M169.933 29.5479C169.933 29.8853 169.933 30.2424 169.739 30.4918C169.555 30.7294 169.187 30.8542 168.898 30.8542C168.61 30.8542 168.242 30.7294 168.058 30.4918C167.864 30.2424 167.864 29.8853 167.864 29.5479V27.2832H167.625V29.6175C167.625 29.9995 167.625 30.3277 167.878 30.6402C168.133 30.9277 168.52 31.0774 168.898 31.0774C169.277 31.0774 169.664 30.9277 169.919 30.6402C170.172 30.3277 170.172 29.9995 170.172 29.6175V27.2832H169.933V29.5479Z" fill="#2D2D2D"/>
<path d="M170.941 31.0275H171.18V27.2832H170.941V31.0275Z" fill="#2D2D2D"/>
<path d="M172.223 29.2499H172.646C172.94 29.2499 173.253 29.2105 173.482 29.0109C173.691 28.8376 173.795 28.5396 173.795 28.2705C173.795 27.9777 173.686 27.6954 173.457 27.5011C173.224 27.3029 172.94 27.2832 172.646 27.2832H171.984V31.0275H172.223V29.2499ZM172.223 29.0254V27.5064H172.617C172.846 27.5064 173.085 27.5116 173.274 27.6547C173.463 27.7939 173.557 28.0276 173.557 28.2613C173.557 28.4805 173.477 28.6735 173.313 28.8232C173.119 28.9965 172.901 29.0254 172.657 29.0254H172.223Z" fill="#2D2D2D"/>
<path d="M178.12 31.0277H178.348L177.542 27.1587L176.16 30.5655L174.783 27.1587L173.977 31.0277H174.205L174.846 27.928H174.856L176.16 31.1524L177.469 27.928H177.478L178.12 31.0277Z" fill="#2D2D2D"/>
<path d="M180.588 27.5064V27.2832H178.797V31.0275H180.588V30.8043H179.036V29.091H180.548V28.8678H179.036V27.5064H180.588Z" fill="#2D2D2D"/>
<path d="M184.704 27.2833H184.466V30.551L181.316 27.2334V31.0275H181.555V27.8097L184.704 31.1523V27.2833Z" fill="#2D2D2D"/>
<path d="M186.346 27.5064H187.316V27.2832H185.137V27.5064H186.107V31.0275H186.346V27.5064Z" fill="#2D2D2D"/>
</svg>
