<svg width="197" height="59" viewBox="0 0 197 59" fill="none" xmlns="http://www.w3.org/2000/svg">
<path d="M62.6857 41.0392L61.165 38.8511L61.8387 38.434L63.6289 41.0392H62.6857ZM59.7148 41.0392V36.5476H60.5362V41.0392H59.7148ZM60.2859 39.1463V38.4276H61.8002V39.1463H60.2859ZM61.9157 38.8896L61.1522 38.7869L62.6857 36.5476H63.5712L61.9157 38.8896Z" fill="#102430"/>
<path d="M66.2282 41.0392V40.3462L66.1832 40.1986V38.9859C66.1832 38.7506 66.1127 38.5688 65.9715 38.4404C65.8303 38.3078 65.6164 38.2415 65.3298 38.2415C65.1373 38.2415 64.947 38.2715 64.7588 38.3314C64.5748 38.3913 64.4187 38.4747 64.2904 38.5816L63.9759 37.9977C64.1599 37.8565 64.378 37.7517 64.6304 37.6833C64.8871 37.6106 65.1523 37.5742 65.4261 37.5742C65.9223 37.5742 66.3052 37.694 66.5746 37.9335C66.8484 38.1688 66.9853 38.5346 66.9853 39.0308V41.0392H66.2282ZM65.1502 41.0841C64.8935 41.0841 64.6689 41.0413 64.4764 40.9557C64.2839 40.8659 64.1342 40.744 64.0273 40.59C63.9246 40.4317 63.8733 40.2542 63.8733 40.0574C63.8733 39.8649 63.9182 39.6917 64.008 39.5377C64.1021 39.3837 64.254 39.2618 64.4636 39.1719C64.6732 39.0821 64.9513 39.0372 65.2978 39.0372H66.2923V39.5698H65.3555C65.0817 39.5698 64.8978 39.6147 64.8037 39.7045C64.7096 39.7901 64.6625 39.897 64.6625 40.0253C64.6625 40.1708 64.7203 40.2863 64.8358 40.3718C64.9513 40.4574 65.1117 40.5002 65.317 40.5002C65.5138 40.5002 65.6892 40.4552 65.8432 40.3654C66.0014 40.2756 66.1148 40.143 66.1832 39.9676L66.318 40.4488C66.241 40.6499 66.102 40.806 65.9009 40.9172C65.7041 41.0285 65.4539 41.0841 65.1502 41.0841Z" fill="#102430"/>
<path d="M69.0184 41.0969C69.3349 41.0969 69.6151 41.052 69.8589 40.9622C70.107 40.8723 70.3017 40.7483 70.4428 40.59C70.584 40.4274 70.6546 40.2414 70.6546 40.0318C70.6546 39.7708 70.5455 39.5655 70.3273 39.4158C70.1092 39.2618 69.8097 39.1848 69.429 39.1848L69.4033 39.358C69.6258 39.358 69.8226 39.3217 69.9937 39.2489C70.1691 39.1762 70.3059 39.0757 70.4043 38.9474C70.507 38.8147 70.5583 38.6672 70.5583 38.5046C70.5583 38.3078 70.4877 38.1367 70.3466 37.9913C70.2054 37.8458 70.0129 37.7346 69.7691 37.6576C69.5253 37.5806 69.2472 37.5485 68.9349 37.5614C68.7296 37.5657 68.5221 37.5956 68.3125 37.6512C68.1072 37.7025 67.8955 37.7774 67.6773 37.8758L67.8826 38.4661C68.0708 38.3848 68.2548 38.3228 68.4344 38.28C68.6184 38.2373 68.7959 38.2159 68.967 38.2159C69.1296 38.2159 69.2686 38.233 69.3841 38.2672C69.4996 38.2971 69.5873 38.3442 69.6472 38.4084C69.7113 38.4683 69.7434 38.5388 69.7434 38.6201C69.7434 38.7014 69.7178 38.772 69.6664 38.8319C69.6151 38.8917 69.5402 38.9367 69.4418 38.9666C69.3477 38.9966 69.2322 39.0115 69.0954 39.0115H68.4986V39.5505H69.1595C69.3777 39.5505 69.5445 39.5869 69.66 39.6596C69.7798 39.728 69.8397 39.8307 69.8397 39.9676C69.8397 40.0617 69.8033 40.1451 69.7306 40.2178C69.6621 40.2906 69.5638 40.3462 69.4354 40.3847C69.3071 40.4189 69.1531 40.436 68.9734 40.436C68.7638 40.436 68.5542 40.4103 68.3446 40.359C68.135 40.3077 67.9468 40.2349 67.78 40.1408L67.5554 40.7376C67.7607 40.8531 67.9896 40.9429 68.242 41.0071C68.4986 41.067 68.7574 41.0969 69.0184 41.0969Z" fill="#102430"/>
<path d="M73.5596 41.0392V40.3462L73.5147 40.1986V38.9859C73.5147 38.7506 73.4441 38.5688 73.3029 38.4404C73.1617 38.3078 72.9479 38.2415 72.6613 38.2415C72.4688 38.2415 72.2784 38.2715 72.0902 38.3314C71.9062 38.3913 71.7501 38.4747 71.6218 38.5816L71.3074 37.9977C71.4913 37.8565 71.7095 37.7517 71.9619 37.6833C72.2185 37.6106 72.4837 37.5742 72.7575 37.5742C73.2537 37.5742 73.6366 37.694 73.9061 37.9335C74.1798 38.1688 74.3167 38.5346 74.3167 39.0308V41.0392H73.5596ZM72.4816 41.0841C72.2249 41.0841 72.0003 41.0413 71.8079 40.9557C71.6154 40.8659 71.4656 40.744 71.3587 40.59C71.256 40.4317 71.2047 40.2542 71.2047 40.0574C71.2047 39.8649 71.2496 39.6917 71.3394 39.5377C71.4336 39.3837 71.5854 39.2618 71.795 39.1719C72.0046 39.0821 72.2827 39.0372 72.6292 39.0372H73.6237V39.5698H72.6869C72.4131 39.5698 72.2292 39.6147 72.1351 39.7045C72.041 39.7901 71.9939 39.897 71.9939 40.0253C71.9939 40.1708 72.0517 40.2863 72.1672 40.3718C72.2827 40.4574 72.4431 40.5002 72.6484 40.5002C72.8452 40.5002 73.0206 40.4552 73.1746 40.3654C73.3329 40.2756 73.4462 40.143 73.5147 39.9676L73.6494 40.4488C73.5724 40.6499 73.4334 40.806 73.2323 40.9172C73.0356 41.0285 72.7853 41.0841 72.4816 41.0841Z" fill="#102430"/>
<path d="M74.8023 41.0392L76.3102 39.0757L76.2974 39.5056L74.8601 37.6127H75.752L76.7594 38.9602H76.4193L77.4331 37.6127H78.2994L76.8492 39.5056L76.8556 39.0757L78.3571 41.0392H77.4524L76.3936 39.6083L76.7273 39.6532L75.6878 41.0392H74.8023Z" fill="#102430"/>
<path d="M80.3775 41.0841C80.0182 41.0841 79.6974 41.0092 79.415 40.8595C79.137 40.7055 78.9188 40.4959 78.7605 40.2307C78.6023 39.9655 78.5231 39.6639 78.5231 39.3259C78.5231 38.9837 78.6023 38.6821 78.7605 38.4212C78.9188 38.156 79.137 37.9485 79.415 37.7988C79.6974 37.6491 80.0182 37.5742 80.3775 37.5742C80.7112 37.5742 81.0042 37.6427 81.2566 37.7795C81.5133 37.9122 81.7079 38.1089 81.8405 38.3699L81.2245 38.7292C81.1218 38.5666 80.9956 38.4469 80.8459 38.3699C80.7005 38.2929 80.5422 38.2544 80.3711 38.2544C80.1743 38.2544 79.9968 38.2971 79.8385 38.3827C79.6803 38.4683 79.5562 38.5923 79.4664 38.7549C79.3765 38.9131 79.3316 39.1035 79.3316 39.3259C79.3316 39.5484 79.3765 39.7409 79.4664 39.9034C79.5562 40.0617 79.6803 40.1836 79.8385 40.2692C79.9968 40.3547 80.1743 40.3975 80.3711 40.3975C80.5422 40.3975 80.7005 40.359 80.8459 40.282C80.9956 40.205 81.1218 40.0852 81.2245 39.9227L81.8405 40.282C81.7079 40.5387 81.5133 40.7376 81.2566 40.8787C81.0042 41.0156 80.7112 41.0841 80.3775 41.0841Z" fill="#102430"/>
<path d="M83.2338 41.0392V38.1004L83.4199 38.2929H82.0275V37.6127H85.2358V38.2929H83.8498L84.0359 38.1004V41.0392H83.2338Z" fill="#102430"/>
<path d="M87.8966 41.0392V40.3462L87.8517 40.1986V38.9859C87.8517 38.7506 87.7811 38.5688 87.6399 38.4404C87.4987 38.3078 87.2849 38.2415 86.9983 38.2415C86.8058 38.2415 86.6154 38.2715 86.4272 38.3314C86.2432 38.3913 86.0871 38.4747 85.9588 38.5816L85.6444 37.9977C85.8283 37.8565 86.0465 37.7517 86.2989 37.6833C86.5555 37.6106 86.8207 37.5742 87.0945 37.5742C87.5907 37.5742 87.9736 37.694 88.2431 37.9335C88.5168 38.1688 88.6537 38.5346 88.6537 39.0308V41.0392H87.8966ZM86.8186 41.0841C86.5619 41.0841 86.3374 41.0413 86.1449 40.9557C85.9524 40.8659 85.8026 40.744 85.6957 40.59C85.593 40.4317 85.5417 40.2542 85.5417 40.0574C85.5417 39.8649 85.5866 39.6917 85.6764 39.5377C85.7706 39.3837 85.9224 39.2618 86.132 39.1719C86.3416 39.0821 86.6197 39.0372 86.9662 39.0372H87.9607V39.5698H87.0239C86.7502 39.5698 86.5662 39.6147 86.4721 39.7045C86.378 39.7901 86.3309 39.897 86.3309 40.0253C86.3309 40.1708 86.3887 40.2863 86.5042 40.3718C86.6197 40.4574 86.7801 40.5002 86.9854 40.5002C87.1822 40.5002 87.3576 40.4552 87.5116 40.3654C87.6699 40.2756 87.7832 40.143 87.8517 39.9676L87.9864 40.4488C87.9094 40.6499 87.7704 40.806 87.5693 40.9172C87.3726 41.0285 87.1223 41.0841 86.8186 41.0841Z" fill="#102430"/>
<path d="M89.6462 41.0392V37.6127H90.4483V39.0051H92.1744V37.6127H92.9764V41.0392H92.1744V39.6853H90.4483V41.0392H89.6462Z" fill="#102430"/>
<path d="M95.8247 41.0392V37.6127H96.6268V39.8713L98.5196 37.6127H99.2511V41.0392H98.4491V38.7805L96.5626 41.0392H95.8247Z" fill="#102430"/>
<path d="M103.663 41.0841C103.303 41.0841 102.982 41.0092 102.7 40.8595C102.422 40.7055 102.204 40.4959 102.046 40.2307C101.887 39.9655 101.808 39.6639 101.808 39.3259C101.808 38.9837 101.887 38.6821 102.046 38.4212C102.204 38.156 102.422 37.9485 102.7 37.7988C102.982 37.6491 103.303 37.5742 103.663 37.5742C103.996 37.5742 104.289 37.6427 104.542 37.7795C104.798 37.9122 104.993 38.1089 105.126 38.3699L104.51 38.7292C104.407 38.5666 104.281 38.4469 104.131 38.3699C103.986 38.2929 103.827 38.2544 103.656 38.2544C103.459 38.2544 103.282 38.2971 103.124 38.3827C102.965 38.4683 102.841 38.5923 102.751 38.7549C102.662 38.9131 102.617 39.1035 102.617 39.3259C102.617 39.5484 102.662 39.7409 102.751 39.9034C102.841 40.0617 102.965 40.1836 103.124 40.2692C103.282 40.3547 103.459 40.3975 103.656 40.3975C103.827 40.3975 103.986 40.359 104.131 40.282C104.281 40.205 104.407 40.0852 104.51 39.9227L105.126 40.282C104.993 40.5387 104.798 40.7376 104.542 40.8787C104.289 41.0156 103.996 41.0841 103.663 41.0841Z" fill="#102430"/>
<path d="M106.519 41.0392V38.1004L106.705 38.2929H105.313V37.6127H108.521V38.2929H107.135L107.321 38.1004V41.0392H106.519Z" fill="#102430"/>
<path d="M111.002 41.0841C110.724 41.0841 110.469 41.0199 110.238 40.8916C110.012 40.7632 109.83 40.5707 109.693 40.3141C109.56 40.0531 109.494 39.7238 109.494 39.3259C109.494 38.9238 109.558 38.5944 109.687 38.3378C109.819 38.0811 109.999 37.8908 110.226 37.7667C110.452 37.6384 110.711 37.5742 111.002 37.5742C111.34 37.5742 111.637 37.6469 111.894 37.7924C112.155 37.9378 112.36 38.141 112.51 38.4019C112.664 38.6629 112.741 38.9709 112.741 39.3259C112.741 39.681 112.664 39.9911 112.51 40.2563C112.36 40.5173 112.155 40.7205 111.894 40.8659C111.637 41.0114 111.34 41.0841 111.002 41.0841ZM109.103 42.284V37.6127H109.866V38.4212L109.841 39.3324L109.905 40.2435V42.284H109.103ZM110.912 40.3975C111.105 40.3975 111.276 40.3547 111.425 40.2692C111.579 40.1836 111.701 40.0596 111.791 39.897C111.881 39.7345 111.926 39.5441 111.926 39.3259C111.926 39.1035 111.881 38.9131 111.791 38.7549C111.701 38.5923 111.579 38.4683 111.425 38.3827C111.276 38.2971 111.105 38.2544 110.912 38.2544C110.72 38.2544 110.546 38.2971 110.392 38.3827C110.238 38.4683 110.117 38.5923 110.027 38.7549C109.937 38.9131 109.892 39.1035 109.892 39.3259C109.892 39.5441 109.937 39.7345 110.027 39.897C110.117 40.0596 110.238 40.1836 110.392 40.2692C110.546 40.3547 110.72 40.3975 110.912 40.3975Z" fill="#102430"/>
<path d="M115.574 41.0392V40.3462L115.529 40.1986V38.9859C115.529 38.7506 115.459 38.5688 115.318 38.4404C115.176 38.3078 114.963 38.2415 114.676 38.2415C114.483 38.2415 114.293 38.2715 114.105 38.3314C113.921 38.3913 113.765 38.4747 113.636 38.5816L113.322 37.9977C113.506 37.8565 113.724 37.7517 113.977 37.6833C114.233 37.6106 114.498 37.5742 114.772 37.5742C115.268 37.5742 115.651 37.694 115.921 37.9335C116.195 38.1688 116.331 38.5346 116.331 39.0308V41.0392H115.574ZM114.496 41.0841C114.24 41.0841 114.015 41.0413 113.823 40.9557C113.63 40.8659 113.48 40.744 113.373 40.59C113.271 40.4317 113.219 40.2542 113.219 40.0574C113.219 39.8649 113.264 39.6917 113.354 39.5377C113.448 39.3837 113.6 39.2618 113.81 39.1719C114.019 39.0821 114.297 39.0372 114.644 39.0372H115.638V39.5698H114.702C114.428 39.5698 114.244 39.6147 114.15 39.7045C114.056 39.7901 114.009 39.897 114.009 40.0253C114.009 40.1708 114.066 40.2863 114.182 40.3718C114.297 40.4574 114.458 40.5002 114.663 40.5002C114.86 40.5002 115.035 40.4552 115.189 40.3654C115.348 40.2756 115.461 40.143 115.529 39.9676L115.664 40.4488C115.587 40.6499 115.448 40.806 115.247 40.9172C115.05 41.0285 114.8 41.0841 114.496 41.0841Z" fill="#102430"/>
<path d="M117.324 41.0392V37.6127H118.126V39.0051H119.852V37.6127H120.654V41.0392H119.852V39.6853H118.126V41.0392H117.324Z" fill="#102430"/>
<path d="M125.188 41.0392V37.6127H125.99V41.0392H125.188ZM123.397 38.742C123.838 38.742 124.172 38.8404 124.398 39.0372C124.629 39.234 124.745 39.512 124.745 39.8713C124.745 40.2435 124.616 40.5344 124.36 40.744C124.107 40.9493 123.748 41.0498 123.282 41.0456L121.729 41.0392V37.6127H122.531V38.7356L123.397 38.742ZM123.211 40.4552C123.447 40.4595 123.626 40.4103 123.75 40.3077C123.874 40.205 123.936 40.0553 123.936 39.8585C123.936 39.6617 123.874 39.5206 123.75 39.435C123.63 39.3452 123.451 39.2981 123.211 39.2939L122.531 39.2874V40.4488L123.211 40.4552Z" fill="#102430"/>
<path d="M130.997 41.1033C130.655 41.1033 130.336 41.0477 130.041 40.9365C129.75 40.821 129.496 40.6606 129.277 40.4552C129.064 40.2456 128.897 39.9997 128.777 39.7173C128.657 39.435 128.597 39.127 128.597 38.7934C128.597 38.4597 128.657 38.1517 128.777 37.8694C128.897 37.587 129.066 37.3432 129.284 37.1379C129.502 36.9283 129.757 36.7679 130.047 36.6566C130.338 36.5411 130.657 36.4834 131.004 36.4834C131.371 36.4834 131.707 36.5476 132.011 36.6759C132.315 36.7999 132.571 36.986 132.781 37.2341L132.242 37.741C132.079 37.5657 131.898 37.4352 131.697 37.3496C131.495 37.2598 131.277 37.2149 131.042 37.2149C130.807 37.2149 130.591 37.2534 130.394 37.3304C130.201 37.4074 130.032 37.5165 129.887 37.6576C129.746 37.7988 129.635 37.9656 129.553 38.1581C129.476 38.3506 129.438 38.5624 129.438 38.7934C129.438 39.0244 129.476 39.2361 129.553 39.4286C129.635 39.6211 129.746 39.7879 129.887 39.9291C130.032 40.0703 130.201 40.1793 130.394 40.2563C130.591 40.3333 130.807 40.3718 131.042 40.3718C131.277 40.3718 131.495 40.3291 131.697 40.2435C131.898 40.1537 132.079 40.0189 132.242 39.8393L132.781 40.3526C132.571 40.5964 132.315 40.7825 132.011 40.9108C131.707 41.0392 131.369 41.1033 130.997 41.1033Z" fill="#102430"/>
<path d="M136.712 36.5476H137.547V41.0392H136.712V36.5476ZM134.39 41.0392H133.555V36.5476H134.39V41.0392ZM136.777 39.1142H134.319V38.4019H136.777V39.1142Z" fill="#102430"/>
<path d="M138.813 41.0392V36.5476H141.861L141.854 37.2534H139.435L139.628 37.0545L139.634 41.0392H138.813Z" fill="#102430"/>
<path d="M63.7386 29.8099H66.8801V22.2169H71.1712V19.8642H59.4609V22.2169H63.7386V29.8099Z" fill="#3C9AD0"/>
<path d="M72.3026 19.8642V29.8099H82.9167V27.4972H75.3772V25.8664H82.6092V23.5938H75.3772V22.1234H82.783V19.8642H72.3026Z" fill="#3C9AD0"/>
<path d="M90.9865 29.9837C96.6678 29.9837 97.657 27.2032 97.657 25.9466V25.7995H94.3552C94.275 26.0268 93.9541 27.5641 90.7325 27.5641C87.8317 27.5641 87.043 26.0134 87.043 24.837V24.6766C87.043 23.4334 87.7247 22.0966 90.7057 22.0966C93.8606 22.0966 94.2616 23.4869 94.3418 23.7543H97.6437V23.6072C97.6437 22.4442 96.748 19.6904 90.9865 19.6904H90.4384C84.5565 19.6904 83.7812 22.8051 83.7812 24.6098V24.9975C83.7812 26.762 84.6768 29.9837 90.4384 29.9837H90.9865Z" fill="#3C9AD0"/>
<path d="M98.738 29.8099H101.853V25.8931H108.537V29.8099H111.651V19.8642H108.537V23.4869H101.853V19.8642H98.738V29.8099Z" fill="#3C9AD0"/>
<path d="M113.176 19.8642V29.8099H116.251V23.2195L123.002 29.8099H126.076V19.8642H123.002V26.1204L116.652 19.8642H113.176Z" fill="#3C9AD0"/>
<path d="M134.205 19.6904C127.909 19.6904 127.201 22.8319 127.201 24.6098V25.0108C127.201 26.762 127.909 29.9837 134.205 29.9837H134.78C141.05 29.9837 141.771 26.762 141.771 25.0108V24.6098C141.771 22.8319 141.036 19.6904 134.78 19.6904H134.205ZM138.51 24.8905C138.51 26.0402 137.828 27.5641 134.486 27.5641C131.117 27.5641 130.462 26 130.462 24.8638V24.7034C130.462 23.5671 131.064 22.0966 134.486 22.0966C137.855 22.0966 138.51 23.5671 138.51 24.7034V24.8905Z" fill="#3C9AD0"/>
<path d="M142.888 29.8099H149.492C155.307 29.8099 156.497 27.1096 156.497 24.9707V24.5697C156.497 22.3373 155.24 19.8642 149.479 19.8642H142.888V29.8099ZM146.003 22.2169H149.238C152.821 22.2169 153.235 23.7543 153.235 24.7702V24.8504C153.235 25.8664 152.767 27.417 149.238 27.417H146.003V22.2169Z" fill="#3C9AD0"/>
<path d="M160.676 22.1234H165.395C166.304 22.1234 166.652 22.5645 166.652 23.0859V23.0992C166.652 23.6473 166.291 24.0751 165.395 24.0751H160.676V22.1234ZM160.676 26.2808H164.74C166.278 26.2808 166.812 26.8155 166.812 28.032V29.1816C166.812 29.5425 166.866 29.6896 166.959 29.8099H170.127V29.743C170.034 29.5826 169.94 29.3286 169.94 28.5266V27.0695C169.94 25.7862 169.071 25.0777 168.055 24.7836C168.711 24.5697 169.9 24.035 169.9 22.6046V22.4442C169.9 21.0138 168.898 19.8642 165.582 19.8642H157.562V29.8099H160.676V26.2808Z" fill="#3C9AD0"/>
<path d="M174.279 19.8642H171.165V29.8099H174.279V19.8642Z" fill="#3C9AD0"/>
<path d="M175.799 19.8642V29.8099H185.825V27.3368H178.914V19.8642H175.799Z" fill="#3C9AD0"/>
<path d="M186.974 19.8642V29.8099H196.999V27.3368H190.088V19.8642H186.974Z" fill="#3C9AD0"/>
<path d="M41.8698 39.0699H29.953V21.1224H41.8457C45.7122 21.1224 48.454 21.7397 50.3733 22.7222C47.42 13.8873 39.0793 7.51953 29.2509 7.51953C20.0263 7.51953 12.112 13.1287 8.73271 21.1226H27.9028V25.3683H20.1593V39.0701H14.4904V25.3683H7.42304C7.13567 26.7962 6.98438 28.2736 6.98438 29.7863C6.98438 42.0839 16.9535 52.053 29.2511 52.053C38.8357 52.053 47.0057 45.997 50.144 37.5029C48.2465 38.4605 45.5801 39.0699 41.8698 39.0699Z" fill="#3B99D0"/>
<path d="M35.5703 25.3682V34.752H41.4081C47.7766 34.752 48.6209 31.9538 48.6209 30.1204V29.9757C48.6209 28.1423 47.8731 25.3682 41.4081 25.3682H35.5703Z" fill="#3B99D0"/>
</svg>
