<svg width="43" height="43" viewBox="0 0 43 43" fill="none" xmlns="http://www.w3.org/2000/svg">
<circle opacity="0.5" cx="21.4971" cy="21.8975" r="20.5" stroke="#202122"/>
<path d="M28.4966 26.6556V28.7957C28.4974 28.9944 28.4573 29.1911 28.3787 29.3731C28.3002 29.5551 28.185 29.7186 28.0406 29.8529C27.8961 29.9872 27.7255 30.0894 27.5398 30.1531C27.3541 30.2167 27.1573 30.2404 26.9621 30.2225C24.796 29.984 22.7154 29.2338 20.8873 28.0324C19.1865 26.9371 17.7446 25.4757 16.6638 23.7521C15.4742 21.891 14.7338 19.7721 14.5028 17.567C14.4852 17.3697 14.5083 17.1709 14.5707 16.9832C14.6331 16.7954 14.7334 16.6229 14.8651 16.4766C14.9969 16.3304 15.1573 16.2135 15.3361 16.1334C15.5149 16.0534 15.7081 16.012 15.9036 16.0118H18.0153C18.3569 16.0084 18.6881 16.131 18.9471 16.3567C19.2062 16.5825 19.3753 16.896 19.4232 17.2388C19.5123 17.9237 19.6776 18.5962 19.9159 19.2434C20.0106 19.4988 20.0311 19.7763 19.975 20.0431C19.9188 20.3098 19.7884 20.5547 19.5991 20.7487L18.7052 21.6547C19.7072 23.4407 21.1664 24.9195 22.9287 25.935L23.8226 25.029C24.014 24.8372 24.2556 24.705 24.5189 24.6481C24.7821 24.5912 25.0559 24.612 25.3079 24.708C25.9465 24.9495 26.6101 25.117 27.2859 25.2074C27.6278 25.2563 27.9401 25.4308 28.1634 25.6978C28.3866 25.9648 28.5052 26.3057 28.4966 26.6556Z" fill="#202122"/>
</svg>
