<svg width="105" height="99" viewBox="0 0 105 99" fill="none" xmlns="http://www.w3.org/2000/svg">
<path d="M104.511 80.0015L86.9744 49.6251C86.5023 48.8075 85.3214 48.8362 84.8766 49.6688C79.7915 59.1875 70.8942 65.8226 60.6567 68.1371C59.8723 68.3145 59.4878 69.2049 59.8897 69.9014L75.4197 96.8C76.9528 99.4555 80.8829 99.0864 81.9126 96.2172L86.7295 82.7967L100.76 85.3335C103.764 85.8761 106.039 82.6468 104.511 80.0015Z" fill="white"/>
<path d="M44.3433 68.1377C34.1023 65.8222 25.2063 59.1836 20.1234 49.6694C19.6786 48.8366 18.4978 48.8081 18.0257 49.6255L0.488458 80.0018C-1.03753 82.6449 1.2333 85.8767 4.23912 85.3339L18.2699 82.7971L23.0868 96.2175C24.1165 99.0858 28.0464 99.4565 29.5798 96.8004L45.1097 69.9018C45.512 69.2051 45.1277 68.3149 44.3433 68.1377Z" fill="white"/>
<path d="M82.1991 44.0776C86.0907 34.2484 84.8582 23.1482 78.9021 14.3844C66.2326 -4.25863 38.7645 -4.25351 26.0993 14.3825C20.1422 23.1482 18.9087 34.2488 22.8 44.0776C33.4575 70.9901 71.5921 70.8642 82.1991 44.0776ZM70.0524 31.5213L63.8824 37.5352L65.3389 46.0272C65.8454 48.981 62.734 51.1868 60.1258 49.8148L52.4996 45.8056L44.8732 49.815C42.243 51.1979 39.1574 48.9584 39.6601 46.0275L41.1165 37.5354L34.9466 31.5215C32.8187 29.4469 33.9952 25.8207 36.9377 25.3933L45.4642 24.1543L49.2772 16.428C50.5924 13.7628 54.405 13.7613 55.7209 16.428L59.534 24.1543L68.0605 25.3933C71.0019 25.8203 72.1815 29.4457 70.0524 31.5213Z" fill="white"/>
</svg>
