<svg width="43" height="43" viewBox="0 0 43 43" fill="none" xmlns="http://www.w3.org/2000/svg">
<g clip-path="url(#clip0_91_511)">
<path d="M27.8971 15.4971C28.3214 15.4971 28.7284 15.6656 29.0284 15.9657C29.3285 16.2658 29.4971 16.6727 29.4971 17.0971V26.6971C29.4971 27.1214 29.3285 27.5284 29.0284 27.8284C28.7284 28.1285 28.3214 28.2971 27.8971 28.2971H15.0971C14.6727 28.2971 14.2658 28.1285 13.9657 27.8284C13.6656 27.5284 13.4971 27.1214 13.4971 26.6971V17.0971C13.4971 16.2171 14.2171 15.4971 15.0971 15.4971H27.8971ZM24.4011 22.7771L29.4971 26.6971V25.0971L25.4011 21.9771L29.4971 18.6971V17.0971L21.4971 23.4971L13.4971 17.0971V18.6971L17.5931 21.9771L13.4971 25.0971V26.6971L18.5931 22.7771L21.4971 25.0971L24.4011 22.7771Z" fill="#202122"/>
</g>
<circle opacity="0.5" cx="21.4971" cy="21.8975" r="20.5" stroke="#202122"/>
<defs>
<clipPath id="clip0_91_511">
<rect width="16" height="16" fill="white" transform="translate(13.4971 13.8975)"/>
</clipPath>
</defs>
</svg>
