<svg width="439" height="52" viewBox="0 0 439 52" fill="none" xmlns="http://www.w3.org/2000/svg">
<path d="M75.1577 4.01606V5.65287H70.1341V14.9985H68.0673V4.01606H75.1577ZM69.4628 8.12695H72.1254C72.9753 8.12695 73.7044 8.27026 74.3129 8.55689C74.9213 8.83849 75.3865 9.23324 75.7083 9.74113C76.0352 10.249 76.1986 10.8449 76.1986 11.5288C76.1986 12.0417 76.1056 12.5094 75.9195 12.9318C75.7385 13.3542 75.472 13.7213 75.12 14.033C74.768 14.3398 74.3405 14.5786 73.8377 14.7496C73.3348 14.9156 72.7641 14.9985 72.1254 14.9985H68.0673V4.01606H70.1492V13.3693H72.1254C72.578 13.3693 72.9526 13.2838 73.2493 13.1128C73.546 12.9418 73.7673 12.7155 73.9131 12.4339C74.0589 12.1523 74.1318 11.8456 74.1318 11.5137C74.1318 11.1869 74.0589 10.8902 73.9131 10.6236C73.7673 10.3571 73.546 10.1459 73.2493 9.99004C72.9526 9.83416 72.578 9.75621 72.1254 9.75621H69.4628V8.12695ZM81.0939 11.0989L83.8396 4.01606H86.0949L82.3083 12.9393C82.1826 13.226 82.0393 13.5025 81.8784 13.769C81.7175 14.0356 81.5239 14.2744 81.2976 14.4856C81.0763 14.6918 80.8073 14.8552 80.4905 14.9759C80.1787 15.0966 79.8016 15.1569 79.3591 15.1569C79.2434 15.1569 79.1051 15.1519 78.9442 15.1419C78.7833 15.1368 78.6601 15.1293 78.5746 15.1192V13.49C78.635 13.505 78.733 13.5151 78.8688 13.5201C79.0096 13.5252 79.1102 13.5277 79.1705 13.5277C79.4622 13.5277 79.6935 13.4824 79.8644 13.3919C80.0404 13.2964 80.1787 13.1681 80.2793 13.0072C80.3849 12.8413 80.4779 12.6527 80.5584 12.4415L81.0939 11.0989ZM79.1479 4.01606L81.7803 9.7713L82.3989 12.0115L80.8224 12.0568L76.9001 4.01606H79.1479ZM91.6238 10.9933H88.7952V9.36398H91.6238C92.0865 9.36398 92.4611 9.28855 92.7477 9.1377C93.0394 8.98181 93.2531 8.77061 93.3889 8.50409C93.5246 8.23255 93.5925 7.92329 93.5925 7.57631C93.5925 7.2394 93.5246 6.92511 93.3889 6.63345C93.2531 6.34179 93.0394 6.10545 92.7477 5.92442C92.4611 5.74339 92.0865 5.65287 91.6238 5.65287H89.4741V14.9985H87.3998V4.01606H91.6238C92.4787 4.01606 93.2078 4.16943 93.8113 4.47618C94.4197 4.7779 94.8824 5.19778 95.1992 5.73585C95.521 6.26888 95.6819 6.87734 95.6819 7.56123C95.6819 8.27026 95.521 8.88124 95.1992 9.39416C94.8824 9.90707 94.4197 10.3018 93.8113 10.5784C93.2078 10.855 92.4787 10.9933 91.6238 10.9933ZM106.204 9.22821V9.79393C106.204 10.6236 106.094 11.3704 105.872 12.0342C105.651 12.6929 105.337 13.2536 104.93 13.7162C104.522 14.1789 104.037 14.5334 103.474 14.7798C102.911 15.0262 102.284 15.1494 101.596 15.1494C100.917 15.1494 100.293 15.0262 99.7249 14.7798C99.1617 14.5334 98.6739 14.1789 98.2616 13.7162C97.8493 13.2536 97.5299 12.6929 97.3036 12.0342C97.0774 11.3704 96.9642 10.6236 96.9642 9.79393V9.22821C96.9642 8.39346 97.0774 7.64671 97.3036 6.98797C97.5299 6.32922 97.8467 5.76853 98.2541 5.3059C98.6614 4.83824 99.1466 4.48121 99.7098 4.23481C100.278 3.9884 100.902 3.8652 101.58 3.8652C102.269 3.8652 102.895 3.9884 103.459 4.23481C104.022 4.48121 104.507 4.83824 104.914 5.3059C105.327 5.76853 105.644 6.32922 105.865 6.98797C106.091 7.64671 106.204 8.39346 106.204 9.22821ZM104.107 9.79393V9.21313C104.107 8.61472 104.052 8.08923 103.941 7.63666C103.831 7.17905 103.667 6.79437 103.451 6.48259C103.235 6.17082 102.968 5.93699 102.652 5.7811C102.335 5.62019 101.978 5.53973 101.58 5.53973C101.178 5.53973 100.821 5.62019 100.509 5.7811C100.203 5.93699 99.9412 6.17082 99.7249 6.48259C99.5087 6.79437 99.3427 7.17905 99.2271 7.63666C99.1165 8.08923 99.0611 8.61472 99.0611 9.21313V9.79393C99.0611 10.3873 99.1165 10.9128 99.2271 11.3704C99.3427 11.828 99.5087 12.2152 99.7249 12.532C99.9462 12.8438 100.213 13.0801 100.524 13.241C100.836 13.402 101.193 13.4824 101.596 13.4824C101.998 13.4824 102.355 13.402 102.667 13.241C102.978 13.0801 103.24 12.8438 103.451 12.532C103.667 12.2152 103.831 11.828 103.941 11.3704C104.052 10.9128 104.107 10.3873 104.107 9.79393ZM112.171 10.1032H109.365L109.35 8.63986H111.756C112.168 8.63986 112.513 8.58204 112.789 8.46638C113.066 8.35072 113.274 8.18226 113.415 7.961C113.561 7.73974 113.634 7.47071 113.634 7.15391C113.634 6.80191 113.566 6.51528 113.43 6.29402C113.3 6.07276 113.093 5.91185 112.812 5.81127C112.53 5.70567 112.173 5.65287 111.741 5.65287H110.036V14.9985H107.962V4.01606H111.741C112.364 4.01606 112.92 4.07641 113.408 4.19709C113.901 4.31275 114.318 4.49378 114.66 4.74018C115.002 4.98658 115.261 5.29584 115.437 5.66796C115.618 6.04008 115.708 6.48259 115.708 6.99551C115.708 7.44808 115.603 7.86546 115.392 8.24763C115.185 8.62478 114.866 8.93152 114.434 9.16787C114.006 9.40421 113.463 9.53998 112.804 9.57518L112.171 10.1032ZM112.08 14.9985H108.754L109.621 13.3693H112.08C112.493 13.3693 112.832 13.3014 113.098 13.1656C113.37 13.0298 113.571 12.8438 113.702 12.6074C113.838 12.3661 113.906 12.0895 113.906 11.7777C113.906 11.4358 113.845 11.1391 113.725 10.8877C113.609 10.6362 113.423 10.4426 113.166 10.3068C112.915 10.1711 112.583 10.1032 112.171 10.1032H110.013L110.029 8.63986H112.774L113.249 9.20558C113.883 9.21061 114.398 9.33633 114.796 9.58273C115.198 9.82913 115.495 10.1459 115.686 10.5331C115.877 10.9203 115.972 11.3377 115.972 11.7853C115.972 12.4893 115.819 13.0801 115.512 13.5578C115.211 14.0356 114.768 14.3951 114.185 14.6365C113.606 14.8778 112.905 14.9985 112.08 14.9985ZM119.186 8.12695H121.848C122.698 8.12695 123.427 8.27026 124.036 8.55689C124.644 8.83849 125.109 9.23324 125.431 9.74113C125.758 10.249 125.921 10.8449 125.921 11.5288C125.921 12.0417 125.828 12.5094 125.642 12.9318C125.461 13.3542 125.195 13.7213 124.843 14.033C124.491 14.3398 124.063 14.5786 123.561 14.7496C123.058 14.9156 122.487 14.9985 121.848 14.9985H117.79V4.01606H119.88V13.3693H121.848C122.301 13.3693 122.675 13.2838 122.972 13.1128C123.269 12.9418 123.49 12.7155 123.636 12.4339C123.782 12.1523 123.855 11.8456 123.855 11.5137C123.855 11.1869 123.782 10.8902 123.636 10.6236C123.49 10.3571 123.269 10.1459 122.972 9.99004C122.675 9.83416 122.301 9.75621 121.848 9.75621H119.186V8.12695ZM129.052 4.01606V14.9985H126.977V4.01606H129.052ZM138.458 13.3693V14.9985H132.62V13.3693H138.458ZM133.253 4.01606V14.9985H131.179V4.01606H133.253ZM137.696 8.54935V10.1409H132.62V8.54935H137.696ZM138.435 4.01606V5.65287H132.62V4.01606H138.435Z" fill="white"/>
<path d="M72.8043 22.5537V33.5361H70.7375V22.5537H72.8043ZM76.2137 22.5537V24.1905H67.3658V22.5537H76.2137ZM84.8729 31.9069V33.5361H79.0347V31.9069H84.8729ZM79.6683 22.5537V33.5361H77.594V22.5537H79.6683ZM84.1111 27.0869V28.6785H79.0347V27.0869H84.1111ZM84.8503 22.5537V24.1905H79.0347V22.5537H84.8503ZM87.9655 22.5537L90.1605 26.4684L92.363 22.5537H94.7466L91.4881 27.9996L94.8296 33.5361H92.4234L90.1605 29.5459L87.9052 33.5361H85.4915L88.833 27.9996L85.5744 22.5537H87.9655ZM103.391 27.0869V28.7162H97.6129V27.0869H103.391ZM98.1786 22.5537V33.5361H96.1043V22.5537H98.1786ZM104.93 22.5537V33.5361H102.855V22.5537H104.93ZM115.935 27.7658V28.3315C115.935 29.1612 115.824 29.908 115.603 30.5718C115.381 31.2305 115.067 31.7912 114.66 32.2538C114.253 32.7165 113.767 33.071 113.204 33.3174C112.641 33.5638 112.015 33.687 111.326 33.687C110.647 33.687 110.024 33.5638 109.455 33.3174C108.892 33.071 108.404 32.7165 107.992 32.2538C107.58 31.7912 107.26 31.2305 107.034 30.5718C106.808 29.908 106.695 29.1612 106.695 28.3315V27.7658C106.695 26.9311 106.808 26.1843 107.034 25.5256C107.26 24.8668 107.577 24.3061 107.984 23.8435C108.392 23.3758 108.877 23.0188 109.44 22.7724C110.008 22.526 110.632 22.4028 111.311 22.4028C112 22.4028 112.626 22.526 113.189 22.7724C113.752 23.0188 114.237 23.3758 114.645 23.8435C115.057 24.3061 115.374 24.8668 115.595 25.5256C115.821 26.1843 115.935 26.9311 115.935 27.7658ZM113.838 28.3315V27.7507C113.838 27.1523 113.782 26.6268 113.672 26.1743C113.561 25.7167 113.398 25.332 113.181 25.0202C112.965 24.7084 112.699 24.4746 112.382 24.3187C112.065 24.1578 111.708 24.0773 111.311 24.0773C110.909 24.0773 110.552 24.1578 110.24 24.3187C109.933 24.4746 109.672 24.7084 109.455 25.0202C109.239 25.332 109.073 25.7167 108.957 26.1743C108.847 26.6268 108.791 27.1523 108.791 27.7507V28.3315C108.791 28.9249 108.847 29.4504 108.957 29.908C109.073 30.3656 109.239 30.7528 109.455 31.0696C109.677 31.3814 109.943 31.6177 110.255 31.7786C110.567 31.9396 110.924 32.02 111.326 32.02C111.728 32.02 112.085 31.9396 112.397 31.7786C112.709 31.6177 112.97 31.3814 113.181 31.0696C113.398 30.7528 113.561 30.3656 113.672 29.908C113.782 29.4504 113.838 28.9249 113.838 28.3315ZM124.715 22.5537V24.1905H119.352V22.5537H124.715ZM126.246 22.5537V33.5361H124.164V22.5537H126.246ZM119.02 22.5537H121.086L120.815 28.0374C120.775 28.847 120.702 29.556 120.596 30.1645C120.491 30.7729 120.347 31.2934 120.166 31.7258C119.985 32.1533 119.759 32.5002 119.487 32.7668C119.216 33.0333 118.894 33.2294 118.522 33.3551C118.155 33.4758 117.727 33.5361 117.24 33.5361H116.719V31.9069L117.013 31.8767C117.27 31.8566 117.491 31.7937 117.677 31.6881C117.868 31.5825 118.032 31.4241 118.167 31.2129C118.303 30.9967 118.414 30.7201 118.499 30.3832C118.59 30.0463 118.66 29.6364 118.71 29.1537C118.766 28.671 118.806 28.1052 118.831 27.4565L119.02 22.5537ZM137.266 27.7658V28.3315C137.266 29.1612 137.155 29.908 136.934 30.5718C136.713 31.2305 136.399 31.7912 135.991 32.2538C135.584 32.7165 135.099 33.071 134.535 33.3174C133.972 33.5638 133.346 33.687 132.657 33.687C131.978 33.687 131.355 33.5638 130.787 33.3174C130.223 33.071 129.736 32.7165 129.323 32.2538C128.911 31.7912 128.592 31.2305 128.365 30.5718C128.139 29.908 128.026 29.1612 128.026 28.3315V27.7658C128.026 26.9311 128.139 26.1843 128.365 25.5256C128.592 24.8668 128.908 24.3061 129.316 23.8435C129.723 23.3758 130.208 23.0188 130.772 22.7724C131.34 22.526 131.963 22.4028 132.642 22.4028C133.331 22.4028 133.957 22.526 134.52 22.7724C135.084 23.0188 135.569 23.3758 135.976 23.8435C136.388 24.3061 136.705 24.8668 136.927 25.5256C137.153 26.1843 137.266 26.9311 137.266 27.7658ZM135.169 28.3315V27.7507C135.169 27.1523 135.114 26.6268 135.003 26.1743C134.892 25.7167 134.729 25.332 134.513 25.0202C134.297 24.7084 134.03 24.4746 133.713 24.3187C133.396 24.1578 133.039 24.0773 132.642 24.0773C132.24 24.0773 131.883 24.1578 131.571 24.3187C131.264 24.4746 131.003 24.7084 130.787 25.0202C130.57 25.332 130.404 25.7167 130.289 26.1743C130.178 26.6268 130.123 27.1523 130.123 27.7507V28.3315C130.123 28.9249 130.178 29.4504 130.289 29.908C130.404 30.3656 130.57 30.7528 130.787 31.0696C131.008 31.3814 131.274 31.6177 131.586 31.7786C131.898 31.9396 132.255 32.02 132.657 32.02C133.06 32.02 133.417 31.9396 133.728 31.7786C134.04 31.6177 134.302 31.3814 134.513 31.0696C134.729 30.7528 134.892 30.3656 135.003 29.908C135.114 29.4504 135.169 28.9249 135.169 28.3315ZM146.136 22.5537V24.1905H141.113V33.5361H139.046V22.5537H146.136ZM149.667 30.2173L154.305 22.5537H156.387V33.5361H154.305V25.8725L149.667 33.5361H147.592V22.5537H149.667V30.2173ZM160.528 30.2173L165.167 22.5537H167.249V33.5361H165.167V25.8725L160.528 33.5361H158.454V22.5537H160.528V30.2173Z" fill="white"/>
<path d="M71.0481 44.7815V45.0452C71.0481 45.3586 71.0089 45.6395 70.9306 45.8879C70.8523 46.1363 70.7395 46.3474 70.5924 46.5213C70.4452 46.6952 70.2685 46.828 70.0621 46.9197C69.8576 47.0115 69.6283 47.0573 69.3742 47.0573C69.1277 47.0573 68.9013 47.0115 68.6949 46.9197C68.4904 46.828 68.3127 46.6952 68.1618 46.5213C68.0127 46.3474 67.8971 46.1363 67.8149 45.8879C67.7328 45.6395 67.6917 45.3586 67.6917 45.0452V44.7815C67.6917 44.4681 67.7318 44.1882 67.8121 43.9417C67.8942 43.6932 68.0098 43.4821 68.1589 43.3082C68.3079 43.1324 68.4847 42.9986 68.6892 42.9069C68.8955 42.8152 69.122 42.7693 69.3685 42.7693C69.6226 42.7693 69.8519 42.8152 70.0564 42.9069C70.2628 42.9986 70.4395 43.1324 70.5866 43.3082C70.7357 43.4821 70.8494 43.6932 70.9277 43.9417C71.008 44.1882 71.0481 44.4681 71.0481 44.7815ZM70.5007 45.0452V44.7757C70.5007 44.5273 70.4749 44.3076 70.4233 44.1165C70.3736 43.9254 70.3 43.7649 70.2026 43.635C70.1051 43.505 69.9857 43.4066 69.8443 43.3397C69.7048 43.2728 69.5462 43.2394 69.3685 43.2394C69.1965 43.2394 69.0408 43.2728 68.9013 43.3397C68.7637 43.4066 68.6452 43.505 68.5458 43.635C68.4484 43.7649 68.3729 43.9254 68.3194 44.1165C68.2659 44.3076 68.2391 44.5273 68.2391 44.7757V45.0452C68.2391 45.2955 68.2659 45.5172 68.3194 45.7102C68.3729 45.9012 68.4493 46.0627 68.5487 46.1946C68.65 46.3245 68.7694 46.4229 68.907 46.4898C69.0465 46.5567 69.2022 46.5901 69.3742 46.5901C69.5538 46.5901 69.7134 46.5567 69.8529 46.4898C69.9924 46.4229 70.1099 46.3245 70.2054 46.1946C70.3029 46.0627 70.3764 45.9012 70.4261 45.7102C70.4758 45.5172 70.5007 45.2955 70.5007 45.0452ZM73.324 43.2423H74.0147C74.2555 43.2423 74.4781 43.2834 74.6826 43.3655C74.889 43.4458 75.0686 43.5604 75.2215 43.7095C75.3762 43.8585 75.4966 44.0362 75.5826 44.2426C75.6686 44.4471 75.7116 44.6735 75.7116 44.9219C75.7116 45.1703 75.6686 45.3977 75.5826 45.6041C75.4966 45.8105 75.3762 45.9891 75.2215 46.1401C75.0686 46.2892 74.889 46.4048 74.6826 46.4869C74.4781 46.5672 74.2555 46.6073 74.0147 46.6073H73.324C73.0832 46.6073 72.8606 46.5672 72.6561 46.4869C72.4517 46.4048 72.272 46.2892 72.1173 46.1401C71.9644 45.9911 71.845 45.8143 71.759 45.6098C71.6749 45.4035 71.6328 45.1761 71.6328 44.9277C71.6328 44.6792 71.6749 44.4528 71.759 44.2483C71.845 44.042 71.9644 43.8643 72.1173 43.7152C72.272 43.5643 72.4517 43.4477 72.6561 43.3655C72.8606 43.2834 73.0832 43.2423 73.324 43.2423ZM73.324 43.678C73.0736 43.678 72.8615 43.7305 72.6876 43.8356C72.5138 43.9388 72.3819 44.084 72.2921 44.2713C72.2023 44.4585 72.1574 44.6773 72.1574 44.9277C72.1574 45.1168 72.1822 45.2879 72.2319 45.4407C72.2835 45.5936 72.359 45.7245 72.4583 45.8334C72.5577 45.9423 72.68 46.0264 72.8252 46.0856C72.9705 46.1449 73.1367 46.1745 73.324 46.1745H74.0205C74.2689 46.1745 74.4791 46.1229 74.6511 46.0197C74.825 45.9146 74.9568 45.7684 75.0466 45.5812C75.1383 45.392 75.1842 45.1723 75.1842 44.9219C75.1842 44.7347 75.1584 44.5646 75.1068 44.4117C75.0552 44.2589 74.9797 44.128 74.8804 44.019C74.7829 43.9101 74.6616 43.826 74.5163 43.7668C74.373 43.7076 74.2077 43.678 74.0205 43.678H73.324ZM73.9374 42.6547V47.172H73.4071V42.6547H73.9374ZM76.9871 46.0427L79.0422 42.8267H79.5954V47H79.0422V43.7811L76.9871 47H76.4368V42.8267H76.9871V46.0427ZM84.2217 46.5357L84.1701 48.0061H83.6742V47H83.2643V46.5357H84.2217ZM80.6187 47V42.8267H81.1748V46.55H83.2299V42.8267H83.7831V47H80.6187ZM85.4714 46.0427L87.5265 42.8267H88.0797V47H87.5265V43.7811L85.4714 47H84.921V42.8267H85.4714V46.0427ZM90.6823 43.1964L89.3007 47H88.7361L90.3269 42.8267H90.6909L90.6823 43.1964ZM91.8403 47L90.4559 43.1964L90.4473 42.8267H90.8113L92.4078 47H91.8403ZM91.7686 45.4551V45.9079H89.424V45.4551H91.7686ZM95.7012 42.8267V43.2795H93.7922V42.8267H95.7012ZM96.177 42.8267V47H95.6238V42.8267H96.177ZM93.6031 42.8267H94.1534L94.0588 44.8703C94.0454 45.1646 94.0225 45.4274 93.99 45.6586C93.9594 45.8879 93.9155 46.0876 93.8582 46.2576C93.8008 46.4258 93.7263 46.5653 93.6346 46.6761C93.5429 46.785 93.4301 46.8662 93.2964 46.9197C93.1645 46.9732 93.0059 47 92.8206 47H92.6715V46.55L92.7862 46.5414C92.8932 46.5337 92.9849 46.5099 93.0613 46.4697C93.1397 46.4277 93.2056 46.3646 93.2591 46.2806C93.3145 46.1965 93.3594 46.0876 93.3938 45.9538C93.4282 45.82 93.455 45.6567 93.4741 45.4637C93.4951 45.2688 93.5113 45.0414 93.5228 44.7815L93.6031 42.8267ZM97.5786 44.5264H98.7166C99.0223 44.5264 99.2803 44.578 99.4905 44.6812C99.7007 44.7824 99.8602 44.9248 99.9691 45.1082C100.078 45.2917 100.133 45.5067 100.133 45.7532C100.133 45.9366 100.102 46.1048 100.041 46.2576C99.9796 46.4086 99.8889 46.5404 99.7685 46.6532C99.6481 46.764 99.5 46.85 99.3242 46.9111C99.1484 46.9704 98.9459 47 98.7166 47H97.1573V42.8267H97.7105V46.55H98.7166C98.921 46.55 99.0863 46.5127 99.2124 46.4382C99.3405 46.3618 99.4341 46.2624 99.4933 46.1401C99.5526 46.0178 99.5822 45.8869 99.5822 45.7474C99.5822 45.6079 99.5526 45.4799 99.4933 45.3633C99.4341 45.2468 99.3405 45.1541 99.2124 45.0853C99.0863 45.0146 98.921 44.9793 98.7166 44.9793H97.5786V44.5264ZM103.586 44.621V45.071H101.328V44.621H103.586ZM101.414 42.8267V47H100.861V42.8267H101.414ZM104.068 42.8267V47H103.518V42.8267H104.068ZM105.498 44.5264H106.636C106.942 44.5264 107.2 44.578 107.41 44.6812C107.62 44.7824 107.78 44.9248 107.889 45.1082C107.998 45.2917 108.052 45.5067 108.052 45.7532C108.052 45.9366 108.022 46.1048 107.96 46.2576C107.899 46.4086 107.808 46.5404 107.688 46.6532C107.568 46.764 107.42 46.85 107.244 46.9111C107.068 46.9704 106.865 47 106.636 47H105.077V42.8267H105.63V46.55H106.636C106.841 46.55 107.006 46.5127 107.132 46.4382C107.26 46.3618 107.354 46.2624 107.413 46.1401C107.472 46.0178 107.502 45.8869 107.502 45.7474C107.502 45.6079 107.472 45.4799 107.413 45.3633C107.354 45.2468 107.26 45.1541 107.132 45.0853C107.006 45.0146 106.841 44.9793 106.636 44.9793H105.498V44.5264ZM109.11 42.8267V47H108.557V42.8267H109.11ZM110.706 46.0427L112.761 42.8267H113.315V47H112.761V43.7811L110.706 47H110.156V42.8267H110.706V46.0427ZM112.174 41.7919H112.604C112.604 41.941 112.569 42.0738 112.501 42.1903C112.432 42.305 112.333 42.3948 112.205 42.4598C112.077 42.5247 111.925 42.5572 111.75 42.5572C111.484 42.5572 111.274 42.4865 111.119 42.3451C110.966 42.2018 110.89 42.0174 110.89 41.7919H111.32C111.32 41.9047 111.352 42.004 111.417 42.09C111.482 42.176 111.593 42.219 111.75 42.219C111.903 42.219 112.011 42.176 112.076 42.09C112.141 42.004 112.174 41.9047 112.174 41.7919ZM119.059 46.55V47H115.9V46.55H119.059ZM115.989 46.55V48.0261H115.441L115.439 46.55H115.989ZM119.54 46.55L119.535 48.0233H118.987V46.55H119.54ZM118.517 42.8267V43.2795H116.688V42.8267H118.517ZM118.993 42.8267V47H118.442V42.8267H118.993ZM116.499 42.8267H117.052L116.966 44.5063C116.955 44.7585 116.931 44.9917 116.895 45.2057C116.858 45.4178 116.813 45.6118 116.76 45.7876C116.706 45.9634 116.645 46.121 116.576 46.2605C116.508 46.3981 116.434 46.5175 116.356 46.6188C116.277 46.7181 116.195 46.8003 116.109 46.8653C116.025 46.9283 115.94 46.9732 115.854 47H115.602V46.55H115.78C115.829 46.4965 115.886 46.4191 115.949 46.3178C116.014 46.2165 116.078 46.0856 116.141 45.9251C116.206 45.7627 116.262 45.5649 116.31 45.3318C116.36 45.0987 116.393 44.8235 116.41 44.5063L116.499 42.8267ZM120.767 46.0427L122.822 42.8267H123.375V47H122.822V43.7811L120.767 47H120.217V42.8267H120.767V46.0427ZM127.116 42.8267V43.2795H125.207V42.8267H127.116ZM127.592 42.8267V47H127.039V42.8267H127.592ZM125.018 42.8267H125.568L125.474 44.8703C125.46 45.1646 125.437 45.4274 125.405 45.6586C125.374 45.8879 125.33 46.0876 125.273 46.2576C125.216 46.4258 125.141 46.5653 125.049 46.6761C124.958 46.785 124.845 46.8662 124.711 46.9197C124.579 46.9732 124.421 47 124.235 47H124.086V46.55L124.201 46.5414C124.308 46.5337 124.4 46.5099 124.476 46.4697C124.554 46.4277 124.62 46.3646 124.674 46.2806C124.729 46.1965 124.774 46.0876 124.809 45.9538C124.843 45.82 124.87 45.6567 124.889 45.4637C124.91 45.2688 124.926 45.0414 124.938 44.7815L125.018 42.8267ZM131.241 46.55V47H129.031V46.55H131.241ZM129.142 42.8267V47H128.589V42.8267H129.142ZM130.948 44.621V45.071H129.031V44.621H130.948ZM131.212 42.8267V43.2795H129.031V42.8267H131.212ZM133.465 45.3633H132.35V44.9133H133.465C133.681 44.9133 133.856 44.8789 133.989 44.8101C134.123 44.7414 134.221 44.6458 134.282 44.5235C134.345 44.4012 134.376 44.2617 134.376 44.105C134.376 43.9617 134.345 43.827 134.282 43.7009C134.221 43.5748 134.123 43.4735 133.989 43.3971C133.856 43.3187 133.681 43.2795 133.465 43.2795H132.479V47H131.926V42.8267H133.465C133.78 42.8267 134.047 42.8811 134.264 42.99C134.482 43.099 134.648 43.2499 134.76 43.4429C134.873 43.634 134.929 43.8528 134.929 44.0993C134.929 44.3668 134.873 44.5952 134.76 44.7843C134.648 44.9735 134.482 45.1178 134.264 45.2172C134.047 45.3146 133.78 45.3633 133.465 45.3633ZM138.512 42.8267V47H137.968V42.8267H138.512ZM139.854 42.8267V43.2795H136.629V42.8267H139.854ZM143.124 46.55V47H140.914V46.55H143.124ZM141.026 42.8267V47H140.473V42.8267H141.026ZM142.832 44.621V45.071H140.914V44.621H142.832ZM143.096 42.8267V43.2795H140.914V42.8267H143.096ZM146.329 45.6729H146.879C146.85 45.9366 146.775 46.1726 146.653 46.3809C146.53 46.5892 146.357 46.7545 146.134 46.8767C145.91 46.9971 145.631 47.0573 145.297 47.0573C145.052 47.0573 144.83 47.0115 144.629 46.9197C144.43 46.828 144.259 46.6981 144.116 46.5299C143.973 46.3599 143.862 46.1564 143.783 45.9194C143.707 45.6805 143.669 45.4149 143.669 45.1226V44.707C143.669 44.4146 143.707 44.1499 143.783 43.913C143.862 43.6741 143.974 43.4697 144.119 43.2996C144.266 43.1295 144.443 42.9986 144.649 42.9069C144.855 42.8152 145.088 42.7693 145.346 42.7693C145.661 42.7693 145.927 42.8286 146.145 42.947C146.363 43.0655 146.532 43.2299 146.653 43.44C146.775 43.6483 146.85 43.8901 146.879 44.1652H146.329C146.302 43.9703 146.252 43.8031 146.18 43.6636C146.107 43.5222 146.004 43.4133 145.87 43.3369C145.736 43.2604 145.562 43.2222 145.346 43.2222C145.16 43.2222 144.997 43.2576 144.855 43.3283C144.716 43.399 144.598 43.4993 144.503 43.6292C144.409 43.7592 144.339 43.9149 144.291 44.0964C144.243 44.278 144.219 44.4796 144.219 44.7012V45.1226C144.219 45.327 144.24 45.5191 144.282 45.6987C144.326 45.8783 144.392 46.036 144.48 46.1716C144.568 46.3073 144.68 46.4143 144.815 46.4927C144.951 46.5691 145.112 46.6073 145.297 46.6073C145.532 46.6073 145.719 46.5701 145.859 46.4955C145.998 46.421 146.103 46.314 146.174 46.1745C146.247 46.035 146.298 45.8678 146.329 45.6729ZM150.843 42.8267V47H150.287L148.186 43.7811V47H147.633V42.8267H148.186L150.296 46.0541V42.8267H150.843ZM152.417 42.8267V47H151.864V42.8267H152.417ZM154.521 45.7388L155.349 42.8267H155.75L155.518 43.9589L154.627 47H154.228L154.521 45.7388ZM153.664 42.8267L154.323 45.6815L154.521 47H154.125L153.113 42.8267H153.664ZM156.822 45.6786L157.467 42.8267H158.02L157.011 47H156.616L156.822 45.6786ZM155.81 42.8267L156.616 45.7388L156.908 47H156.51L155.65 43.9589L155.415 42.8267H155.81ZM161.285 46.55V47H159.075V46.55H161.285ZM159.187 42.8267V47H158.634V42.8267H159.187ZM160.993 44.621V45.071H159.075V44.621H160.993ZM161.256 42.8267V43.2795H159.075V42.8267H161.256ZM164.501 46.55V47H162.414V46.55H164.501ZM162.523 42.8267V47H161.97V42.8267H162.523ZM167.666 46.55V47H165.579V46.55H167.666ZM165.688 42.8267V47H165.135V42.8267H165.688Z" fill="#D82329"/>
<path d="M59.936 11.5034V38.0738" stroke="white" stroke-width="0.308957"/>
<path d="M30.1381 27.9482C30.1621 28.127 30.4132 28.1511 30.4682 27.9826C30.5989 27.5905 30.7296 26.8786 30.7296 25.5924V19.4809C30.7296 17.9539 29.5156 16.9806 27.8476 15.3126C26.1795 13.6446 22.7782 10.2398 21.2477 8.71281C19.8927 7.35777 19.5213 3.88075 19.4525 3.10349C19.4456 3.01408 19.3699 2.94873 19.2805 2.94873H18.7784C18.6821 2.94873 18.6064 3.02439 18.6064 3.12069V9.96468C18.6064 11.2853 19.3356 12.7092 20.6906 14.0642C22.0456 15.4192 26.1452 19.5188 27.7444 21.118C29.3436 22.7172 29.5156 23.7214 29.7254 25.1109C29.8664 26.0635 30.0418 27.281 30.1381 27.9482Z" fill="white"/>
<path d="M27.8468 4.19716C27.5098 3.86012 27.0971 3.44741 26.65 3.00032C26.6156 2.96593 26.5709 2.94873 26.5261 2.94873H21.1163C20.9581 2.94873 20.879 3.13789 20.9925 3.24794C22.5711 4.82997 26.251 8.50646 27.7436 10.0025C29.3428 11.6017 29.5148 12.6094 29.7246 13.9954C29.869 14.9446 30.041 16.1518 30.1373 16.8224C30.1614 17.0081 30.4193 17.0253 30.4778 16.8465C30.605 16.451 30.7323 15.7425 30.7323 14.4803V8.36546C30.7323 6.83502 29.5148 5.86516 27.8468 4.19716Z" fill="white"/>
<path d="M29.7835 3.14135C29.9142 4.0149 30.0552 5.00539 30.1378 5.57973C30.1618 5.75857 30.4129 5.78264 30.4679 5.61412C30.5986 5.22206 30.7293 4.51014 30.7293 3.22389V2.94531H29.9555C29.8489 2.94531 29.7663 3.03817 29.7835 3.14135Z" fill="white"/>
<path d="M31.1874 29.0453L30.9982 28.8561C30.9329 28.7908 30.9329 28.6842 30.9982 28.6188L34.4615 25.1556C34.4924 25.1246 34.5372 25.1074 34.5819 25.1074H48.8958C48.9886 25.1074 49.0643 25.1831 49.0643 25.2759V25.5476C49.0643 25.6405 48.9886 25.7162 48.8958 25.7162H34.8295C34.7848 25.7162 34.7435 25.7334 34.7091 25.7643L31.4247 29.0522C31.3593 29.1141 31.2527 29.1141 31.1874 29.0453Z" fill="white"/>
<path d="M17.4608 28.8665L14.3517 25.7609C14.3208 25.7299 14.2761 25.7093 14.2314 25.7093H0.17196C0.0791014 25.7093 0 25.6336 0 25.5373V25.276C0 25.1831 0.0756622 25.104 0.17196 25.104H14.4824C14.5271 25.104 14.5718 25.1212 14.6028 25.1556L17.6981 28.2509C17.729 28.2853 17.7497 28.3265 17.7497 28.3712L17.7531 28.7427C17.7531 28.9009 17.5674 28.9765 17.4608 28.8665Z" fill="white"/>
<path d="M21.3165 20.3819C19.5041 18.5695 19.308 14.5903 19.2977 13.1802C19.2977 13.0083 19.0707 12.9464 18.9813 13.0908C18.799 13.3797 18.6099 13.7959 18.6099 14.2705V21.7713C18.6099 22.8134 19.4078 23.7523 20.4154 24.7566L27.4486 31.7897C27.5174 31.8585 27.5174 31.9651 27.4486 32.0339L25.1925 34.29C25.1237 34.3588 25.0171 34.3588 24.9517 34.29C24.4118 33.75 22.1969 31.5352 20.8006 30.1389C20.2847 29.623 19.9374 28.8389 19.707 28.0204H19.7104C19.3699 26.5037 19.308 24.9904 19.3046 24.2235C19.3046 24.0515 19.0776 23.9896 18.9882 24.1341C18.8059 24.423 18.6167 24.8391 18.6167 25.3137V25.5545V28.0204V30.3109C18.6167 30.3556 18.6339 30.4003 18.6683 30.4312L24.2605 36.0233C24.3292 36.0921 24.4359 36.0921 24.5046 36.0233L30.6195 29.9085C30.6883 29.8397 30.6883 29.7331 30.6195 29.6643L21.3165 20.3819Z" fill="white"/>
<path d="M0.178925 2.85254H17.5812C17.6775 2.85254 17.7566 2.93164 17.7566 3.02794V22.7586C17.7566 22.9168 17.5675 22.9959 17.454 22.8824L15.8823 21.3107C15.8479 21.2763 15.8066 21.2591 15.7585 21.2591H0.178925C0.0826276 21.2591 0.00352601 21.18 0.00352601 21.0837V3.02794C8.68191e-05 2.9282 0.0791884 2.85254 0.178925 2.85254Z" fill="white"/>
<path d="M48.8853 2.85254H31.4796C31.3833 2.85254 31.3042 2.93164 31.3042 3.02794V22.762C31.3042 22.9168 31.4934 22.9959 31.6034 22.8858L33.1751 21.3141C33.2095 21.2797 33.2508 21.2625 33.2989 21.2625H48.8819C48.9782 21.2625 49.0573 21.1834 49.0573 21.0871V3.02794C49.0607 2.9282 48.9816 2.85254 48.8853 2.85254Z" fill="white"/>
<path d="M35.3441 29.0008L24.5622 39.7827C24.4934 39.8515 24.3834 39.8515 24.318 39.7827L13.5361 29.0008C13.5052 28.9664 13.4605 28.9492 13.4158 28.9492H0.174889C0.0785919 28.9492 0.00292969 29.0283 0.00292969 29.1246V48.8312C0.00292969 48.9275 0.0785919 49.0031 0.174889 49.0031H48.8876C48.9839 49.0031 49.0596 48.9275 49.0596 48.8312V29.1246C49.0596 29.0283 48.9839 28.9492 48.8876 28.9492H35.4713C35.4232 28.9492 35.3784 28.9699 35.3441 29.0008Z" fill="white"/>
<path d="M188.461 12.1206V38.6909" stroke="white" stroke-width="0.308957"/>
<path d="M210.613 9.66823L206.727 39.9863C206.721 40.0812 206.713 40.1697 206.713 40.284C206.713 42.9391 208.882 45.0986 211.548 45.0986H273.946L277.833 14.7821C277.841 14.684 277.847 14.5955 277.847 14.4844C277.847 11.8293 275.678 9.66983 273.012 9.66983L210.613 9.66823ZM275.054 46.3537H211.548C208.19 46.3537 205.456 43.631 205.456 40.284C205.456 40.1327 205.464 40.0153 205.477 39.8736L209.508 8.41309L273.012 8.4147C276.371 8.4147 279.105 11.1374 279.105 14.4844C279.105 14.6325 279.096 14.7499 279.084 14.8883L275.054 46.3537Z" fill="white"/>
<path d="M214.971 36.2852C214.885 36.665 214.824 37.0576 214.824 37.4631C214.824 40.4272 217.236 42.8296 220.205 42.8296H233.436L230.789 34.8064H223.507L224.455 26.7783H216.271L214.971 36.2852Z" fill="white"/>
<path d="M226.19 12.1021H218.281L217.359 18.8364H225.394L226.19 12.1021Z" fill="white"/>
<path d="M264.935 18.8354C263.495 18.8354 262.291 19.4855 261.541 20.5959L256.686 28.7446L253.225 18.8354H244.637L238.799 28.7945L235.73 20.8582C234.992 19.6449 233.648 18.8354 232.129 18.8354H211.356L210.219 26.7782H229.194L233.64 39.8429C234.165 41.5438 235.814 42.8295 237.69 42.8295C239.296 42.8295 240.839 41.93 241.538 40.6041L248.32 29.8292L251.477 39.8429C251.997 41.5519 254.002 42.8295 255.885 42.8295C257.272 42.8295 258.841 42.342 259.641 40.9758L267.139 27.4428C267.382 27.0872 267.804 26.8844 268.269 26.8844H271.225L275.845 18.8354H264.935Z" fill="#ED1C24"/>
<path d="M292.539 24.3999H296.052L296.861 19.294H293.35L294.182 14.0498H287.976L287.144 19.294H285.132L284.321 24.3999H286.333L284.373 36.7566H290.579L292.539 24.3999Z" fill="white"/>
<path d="M302.502 25.4894C303.165 23.6855 304.816 22.7313 306.623 22.7313C308.294 22.7313 309.655 23.8207 309.699 25.4894H302.502ZM314.996 28.418C315.94 22.4593 313.023 18.7148 306.953 18.7148C301.26 18.7148 296.713 22.2212 295.791 28.0431C294.833 34.0694 298.645 37.336 304.443 37.336C308.432 37.336 312.65 35.4645 314.293 31.3451H308.326C307.46 32.5021 306.435 32.9446 305.106 32.9446C302.547 32.9446 301.434 31.5832 301.833 29.0633H314.895L314.996 28.418Z" fill="white"/>
<path d="M331.457 19.7367C330.337 19.056 328.959 18.7148 327.527 18.7148C322.037 18.7148 317.124 22.5961 316.234 28.2121C315.397 33.4901 319.116 37.336 324.299 37.336C325.8 37.336 327.348 37.0302 328.821 36.3496L329.653 31.1069C328.715 31.8552 327.451 32.2977 326.36 32.2977C323.803 32.2977 322.278 30.5276 322.677 28.0077C323.06 25.5924 325.228 23.7531 327.614 23.7531C328.808 23.7531 329.812 24.297 330.625 24.9793L331.457 19.7367Z" fill="white"/>
<path d="M341.221 19.2941H335.014L332.245 36.7583H338.452L339.887 27.702C340.233 25.5232 341.247 23.6517 343.77 23.6517C346.839 23.6517 346.102 26.5788 345.836 28.2475L344.486 36.7583H350.692L352.405 25.9657C353.085 21.6773 351.679 18.7148 346.972 18.7148C344.552 18.7148 342.7 19.4293 340.933 21.5405H340.865L341.221 19.2941Z" fill="white"/>
<path d="M363.396 19.2943H357.19L354.419 36.7584H360.625L363.396 19.2943ZM361.908 9.11475C359.998 9.11475 358.181 10.6805 357.879 12.5873C357.576 14.4941 358.897 16.0599 360.806 16.0599C362.716 16.0599 364.532 14.4941 364.835 12.5873C365.138 10.6805 363.818 9.11475 361.908 9.11475Z" fill="white"/>
<path d="M371.449 19.2944H364.562L370.931 36.7586H374.953L380.801 27.1906L383.614 36.7586H387.638L399.548 19.2944H392.693L386.794 28.7579L383.896 19.2944H380.214L374.313 28.7579L371.449 19.2944Z" fill="white"/>
<path d="M404.746 25.4894C405.407 23.6855 407.058 22.7313 408.865 22.7313C410.537 22.7313 411.898 23.8207 411.94 25.4894H404.746ZM417.239 28.418C418.184 22.4593 415.266 18.7148 409.197 18.7148C403.502 18.7148 398.956 22.2212 398.032 28.0431C397.077 34.0694 400.889 37.336 406.685 37.336C410.674 37.336 414.893 35.4645 416.534 31.3451H410.569C409.702 32.5021 408.677 32.9446 407.348 32.9446C404.791 32.9446 403.677 31.5832 404.076 29.0633H417.136L417.239 28.418Z" fill="white"/>
<path d="M429.069 8.50195H422.864L418.381 36.7571H424.587L429.069 8.50195Z" fill="white"/>
<mask id="mask0_555_1014" style="mask-type:luminance" maskUnits="userSpaceOnUse" x="427" y="8" width="13" height="29">
<path d="M427.907 8.4126H439.001V36.8367H427.907V8.4126Z" fill="white"/>
</mask>
<g mask="url(#mask0_555_1014)">
<path d="M439 8.50146H432.793L428.312 36.7566H434.516L439 8.50146Z" fill="white"/>
</g>
<mask id="mask1_555_1014" style="mask-type:luminance" maskUnits="userSpaceOnUse" x="282" y="40" width="3" height="7">
<path d="M282.899 40.9565H284.959V46.9474H282.899V40.9565Z" fill="white"/>
</mask>
<g mask="url(#mask1_555_1014)">
<path d="M284.265 41.3481V45.8522C284.265 46.1997 284.228 46.6262 283.771 46.6262C283.528 46.6262 283.308 46.454 283.205 46.2351L282.984 46.4009C283.126 46.6986 283.412 46.8997 283.747 46.8997C284.418 46.8997 284.558 46.4234 284.558 45.8522V41.3481H284.265Z" fill="white"/>
</g>
<path d="M287.74 41.6212V41.3477H285.545V45.937H287.74V45.6634H285.838V43.5635H287.692V43.2899H285.838V41.6212H287.74Z" fill="white"/>
<path d="M289.66 41.6212H290.849V41.3477H288.18V41.6212H289.369V45.937H289.66V41.6212Z" fill="white"/>
<path d="M290.886 44.13H292.043V43.8564H290.886V44.13Z" fill="white"/>
<path d="M295.519 43.7277V44.0013H297.166C297.148 44.5001 297.002 44.8847 296.604 45.2194C296.227 45.5235 295.745 45.7247 295.251 45.7247C294.105 45.7247 293.167 44.7737 293.167 43.6424C293.167 42.5402 294.129 41.5602 295.251 41.5602C295.996 41.5602 296.617 41.9383 297.026 42.5466L297.264 42.3583C296.781 41.7002 296.105 41.2866 295.27 41.2866C293.952 41.2866 292.874 42.3454 292.874 43.6601C292.874 44.9265 293.959 45.9982 295.233 45.9982C295.88 45.9982 296.538 45.7295 296.977 45.2548C297.386 44.8107 297.471 44.3054 297.459 43.7277H295.519Z" fill="white"/>
<path d="M298.94 43.7646C299.701 43.7759 300.256 43.3623 300.256 42.5642C300.256 42.1764 300.123 41.8095 299.793 41.5778C299.482 41.3525 299.115 41.3477 298.744 41.3477H298.171V45.937H298.464V43.7646H298.61L300.11 45.937H300.446L298.94 43.7646ZM298.464 43.4894V41.6212H298.652C298.921 41.6212 299.233 41.6099 299.476 41.7242C299.806 41.8706 299.963 42.2118 299.963 42.5529C299.963 42.8265 299.861 43.1 299.64 43.277C299.408 43.4782 299.122 43.4894 298.835 43.4894H298.464Z" fill="white"/>
<path d="M303.256 41.2866C301.957 41.2866 300.871 42.3519 300.871 43.6424C300.871 44.933 301.962 45.9982 303.256 45.9982C304.548 45.9982 305.639 44.933 305.639 43.6424C305.639 42.3519 304.548 41.2866 303.256 41.2866ZM303.256 41.5602C304.395 41.5602 305.346 42.5096 305.346 43.6424C305.346 44.7688 304.395 45.7247 303.256 45.7247C302.109 45.7247 301.164 44.7737 301.164 43.6424C301.164 42.5096 302.109 41.5602 303.256 41.5602Z" fill="white"/>
<path d="M309.137 44.1234C309.137 44.537 309.137 44.9747 308.899 45.2804C308.674 45.5717 308.223 45.7246 307.869 45.7246C307.515 45.7246 307.065 45.5717 306.84 45.2804C306.601 44.9747 306.601 44.537 306.601 44.1234V41.3477H306.309V44.2087C306.309 44.677 306.309 45.0793 306.619 45.4623C306.931 45.8147 307.406 45.9981 307.869 45.9981C308.333 45.9981 308.809 45.8147 309.12 45.4623C309.43 45.0793 309.43 44.677 309.43 44.2087V41.3477H309.137V44.1234Z" fill="white"/>
<path d="M311.4 41.6212H312.588V41.3477H309.918V41.6212H311.107V45.937H311.4V41.6212Z" fill="white"/>
<path d="M313.118 45.937H313.411V41.3477H313.118V45.937Z" fill="white"/>
<path d="M318.551 41.3478H318.258V45.353L314.397 41.2866V45.9371H314.69V41.993L318.551 46.0899V41.3478Z" fill="white"/>
<path d="M321.909 43.7277V44.0013H323.555C323.536 44.5001 323.389 44.8847 322.993 45.2194C322.615 45.5235 322.134 45.7247 321.64 45.7247C320.494 45.7247 319.555 44.7737 319.555 43.6424C319.555 42.5402 320.518 41.5602 321.64 41.5602C322.385 41.5602 323.006 41.9383 323.415 42.5466L323.653 42.3583C323.17 41.7002 322.495 41.2866 321.658 41.2866C320.341 41.2866 319.262 42.3454 319.262 43.6601C319.262 44.9265 320.348 45.9982 321.622 45.9982C322.269 45.9982 322.926 45.7295 323.365 45.2548C323.774 44.8107 323.859 44.3054 323.848 43.7277H321.909Z" fill="white"/>
<mask id="mask2_555_1014" style="mask-type:luminance" maskUnits="userSpaceOnUse" x="324" y="45" width="2" height="2">
<path d="M324.508 45.0762H325.332V46.9476H324.508V45.0762Z" fill="white"/>
</mask>
<g mask="url(#mask2_555_1014)">
<path d="M325 45.4863L324.585 46.8815L324.768 46.9474L325.275 45.5716L325 45.4863Z" fill="white"/>
</g>
<path d="M330.709 43.7277V44.0013H332.355C332.337 44.5001 332.191 44.8847 331.795 45.2194C331.417 45.5235 330.934 45.7247 330.442 45.7247C329.296 45.7247 328.356 44.7737 328.356 43.6424C328.356 42.5402 329.319 41.5602 330.442 41.5602C331.185 41.5602 331.806 41.9383 332.215 42.5466L332.453 42.3583C331.972 41.7002 331.295 41.2866 330.46 41.2866C329.143 41.2866 328.063 42.3454 328.063 43.6601C328.063 44.9265 329.148 45.9982 330.422 45.9982C331.069 45.9982 331.728 45.7295 332.167 45.2548C332.576 44.8107 332.661 44.3054 332.648 43.7277H330.709Z" fill="white"/>
<path d="M334.131 43.7646C334.894 43.7759 335.449 43.3623 335.449 42.5642C335.449 42.1764 335.314 41.8095 334.984 41.5778C334.673 41.3525 334.308 41.3477 333.936 41.3477H333.363V45.937H333.655V43.7646H333.801L335.301 45.937H335.637L334.131 43.7646ZM333.655 43.4894V41.6212H333.844C334.113 41.6212 334.424 41.6099 334.667 41.7242C334.997 41.8706 335.156 42.2118 335.156 42.5529C335.156 42.8265 335.051 43.1 334.832 43.277C334.601 43.4782 334.314 43.4894 334.028 43.4894H333.655Z" fill="white"/>
<path d="M338.446 41.2866C337.148 41.2866 336.062 42.3519 336.062 43.6424C336.062 44.933 337.154 45.9982 338.446 45.9982C339.738 45.9982 340.829 44.933 340.829 43.6424C340.829 42.3519 339.738 41.2866 338.446 41.2866ZM338.446 41.5602C339.587 41.5602 340.538 42.5096 340.538 43.6424C340.538 44.7688 339.587 45.7247 338.446 45.7247C337.301 45.7247 336.356 44.7737 336.356 43.6424C336.356 42.5096 337.301 41.5602 338.446 41.5602Z" fill="white"/>
<path d="M344.329 44.1234C344.329 44.537 344.329 44.9747 344.09 45.2804C343.865 45.5717 343.413 45.7246 343.059 45.7246C342.707 45.7246 342.254 45.5717 342.029 45.2804C341.791 44.9747 341.791 44.537 341.791 44.1234V41.3477H341.498V44.2087C341.498 44.677 341.498 45.0793 341.81 45.4623C342.121 45.8147 342.595 45.9981 343.059 45.9981C343.524 45.9981 343.999 45.8147 344.309 45.4623C344.62 45.0793 344.62 44.677 344.62 44.2087V41.3477H344.329V44.1234Z" fill="white"/>
<path d="M346.59 41.6212H347.78V41.3477H345.108V41.6212H346.298V45.937H346.59V41.6212Z" fill="white"/>
<path d="M348.309 45.937H348.601V41.3477H348.309V45.937Z" fill="white"/>
<path d="M353.741 41.3478H353.448V45.353L349.588 41.2866V45.9371H349.881V41.993L353.741 46.0899V41.3478Z" fill="white"/>
<path d="M357.099 43.7277V44.0013H358.745C358.727 44.5001 358.581 44.8847 358.185 45.2194C357.807 45.5235 357.324 45.7247 356.831 45.7247C355.684 45.7247 354.746 44.7737 354.746 43.6424C354.746 42.5402 355.708 41.5602 356.831 41.5602C357.575 41.5602 358.196 41.9383 358.605 42.5466L358.843 42.3583C358.36 41.7002 357.684 41.2866 356.849 41.2866C355.531 41.2866 354.453 42.3454 354.453 43.6601C354.453 44.9265 355.538 45.9982 356.812 45.9982C357.459 45.9982 358.117 45.7295 358.556 45.2548C358.964 44.8107 359.049 44.3054 359.038 43.7277H357.099Z" fill="white"/>
<path d="M364.11 44.4276L364.725 45.937H365.024L363.103 41.1948L361.177 45.937H361.476L362.091 44.4276H364.11ZM363.999 44.1541H362.202L363.103 41.9383L363.999 44.1541Z" fill="white"/>
<path d="M369.699 41.3478H369.408V45.353L365.548 41.2866V45.9371H365.841V41.993L369.699 46.0899V41.3478Z" fill="white"/>
<path d="M370.688 45.937H371.516C372.198 45.937 372.742 45.8147 373.248 45.3287C373.711 44.8846 373.956 44.2811 373.956 43.6471C373.956 42.9906 373.705 42.3759 373.224 41.9253C372.718 41.4571 372.187 41.3477 371.516 41.3477H370.688V45.937ZM370.98 45.6634V41.6212H371.511C372.083 41.6212 372.559 41.7242 372.998 42.12C373.431 42.5159 373.663 43.063 373.663 43.6471C373.663 44.1959 373.444 44.7204 373.053 45.1099C372.614 45.5411 372.113 45.6634 371.511 45.6634H370.98Z" fill="white"/>
<path d="M376.55 45.937H377.379C378.061 45.937 378.605 45.8147 379.11 45.3287C379.573 44.8846 379.818 44.2811 379.818 43.6471C379.818 42.9906 379.567 42.3759 379.086 41.9253C378.581 41.4571 378.05 41.3477 377.379 41.3477H376.55V45.937ZM376.843 45.6634V41.6212H377.372C377.945 41.6212 378.421 41.7242 378.861 42.12C379.293 42.5159 379.525 43.063 379.525 43.6471C379.525 44.1959 379.305 44.7204 378.915 45.1099C378.476 45.5411 377.976 45.6634 377.372 45.6634H376.843Z" fill="white"/>
<path d="M381.292 43.7646C382.055 43.7759 382.61 43.3623 382.61 42.5642C382.61 42.1764 382.475 41.8095 382.146 41.5778C381.836 41.3525 381.469 41.3477 381.097 41.3477H380.524V45.937H380.817V43.7646H380.964L382.463 45.937H382.798L381.292 43.7646ZM380.817 43.4894V41.6212H381.006C381.274 41.6212 381.585 41.6099 381.829 41.7242C382.158 41.8706 382.317 42.2118 382.317 42.5529C382.317 42.8265 382.212 43.1 381.994 43.277C381.762 43.4782 381.475 43.4894 381.189 43.4894H380.817Z" fill="white"/>
<path d="M383.5 45.937H383.793V41.3477H383.5V45.937Z" fill="white"/>
<path d="M385.073 41.3477H384.78V45.937H386.243V45.6634H385.073V41.3477Z" fill="white"/>
<path d="M387.065 41.3477H386.772V45.937H388.237V45.6634H387.065V41.3477Z" fill="white"/>
<path d="M388.766 45.937H389.058V41.3477H388.766V45.937Z" fill="white"/>
<path d="M394.199 41.3478H393.906V45.353L390.046 41.2866V45.9371H390.339V41.993L394.199 46.0899V41.3478Z" fill="white"/>
<path d="M397.557 43.7277V44.0013H399.203C399.184 44.5001 399.038 44.8847 398.642 45.2194C398.264 45.5235 397.782 45.7247 397.288 45.7247C396.143 45.7247 395.203 44.7737 395.203 43.6424C395.203 42.5402 396.167 41.5602 397.288 41.5602C398.034 41.5602 398.655 41.9383 399.063 42.5466L399.302 42.3583C398.819 41.7002 398.143 41.2866 397.308 41.2866C395.99 41.2866 394.91 42.3454 394.91 43.6601C394.91 44.9265 395.996 45.9982 397.271 45.9982C397.918 45.9982 398.574 45.7295 399.013 45.2548C399.422 44.8107 399.508 44.3054 399.496 43.7277H397.557Z" fill="white"/>
<path d="M404.293 41.6212V41.3477H402.098V45.937H404.293V45.6634H402.391V43.5635H404.244V43.2899H402.391V41.6212H404.293Z" fill="white"/>
<path d="M407.864 44.056H407.449L408.596 45.2435C408.236 45.53 407.779 45.7247 407.316 45.7247C406.157 45.7247 405.206 44.793 405.206 43.6424C405.206 42.5112 406.163 41.5602 407.303 41.5602C408.481 41.5602 409.388 42.5289 409.388 43.6794C409.388 44.2265 409.163 44.6707 408.798 45.0665L407.864 44.056ZM409.218 45.9371H409.613L409.01 45.2854C409.436 44.7994 409.681 44.2684 409.681 43.6231C409.681 42.3406 408.59 41.2866 407.303 41.2866C405.999 41.2866 404.913 42.3406 404.913 43.6424C404.913 44.9507 405.986 45.9982 407.298 45.9982C407.834 45.9982 408.389 45.7906 408.802 45.4511L409.218 45.9371Z" fill="white"/>
<path d="M413.18 44.1234C413.18 44.537 413.18 44.9747 412.942 45.2804C412.717 45.5717 412.266 45.7246 411.912 45.7246C411.558 45.7246 411.108 45.5717 410.883 45.2804C410.644 44.9747 410.644 44.537 410.644 44.1234V41.3477H410.352V44.2087C410.352 44.677 410.352 45.0793 410.662 45.4623C410.974 45.8147 411.449 45.9981 411.912 45.9981C412.376 45.9981 412.851 45.8147 413.163 45.4623C413.473 45.0793 413.473 44.677 413.473 44.2087V41.3477H413.18V44.1234Z" fill="white"/>
<path d="M414.417 45.937H414.71V41.3477H414.417V45.937Z" fill="white"/>
<path d="M415.99 43.7582H416.508C416.869 43.7582 417.252 43.7099 417.533 43.4653C417.789 43.2529 417.916 42.8876 417.916 42.5577C417.916 42.1989 417.783 41.8529 417.503 41.6148C417.216 41.3718 416.869 41.3477 416.508 41.3477H415.697V45.937H415.99V43.7582ZM415.99 43.483V41.6212H416.473C416.753 41.6212 417.046 41.6276 417.277 41.803C417.509 41.9736 417.625 42.26 417.625 42.5465C417.625 42.8152 417.527 43.0518 417.326 43.2352C417.088 43.4476 416.82 43.483 416.521 43.483H415.99Z" fill="white"/>
<path d="M423.215 45.937H423.495L422.507 41.1948L420.813 45.3706L419.125 41.1948L418.137 45.937H418.417L419.202 42.1378H419.215L420.813 46.0899L422.417 42.1378H422.428L423.215 45.937Z" fill="white"/>
<path d="M426.239 41.6212V41.3477H424.044V45.937H426.239V45.6634H424.337V43.5635H426.191V43.2899H424.337V41.6212H426.239Z" fill="white"/>
<path d="M431.286 41.3478H430.995V45.353L427.135 41.2866V45.9371H427.428V41.993L431.286 46.0899V41.3478Z" fill="white"/>
<path d="M433.298 41.6212H434.488V41.3477H431.816V41.6212H433.006V45.937H433.298V41.6212Z" fill="white"/>
</svg>
