<svg width="148" height="44" viewBox="0 0 148 44" fill="none" xmlns="http://www.w3.org/2000/svg">
<path d="M47.0952 30.8318L45.9527 29.188L46.4589 28.8746L47.8038 30.8318H47.0952ZM44.8633 30.8318V27.4574H45.4803V30.8318H44.8633ZM45.2923 29.4097V28.8698H46.43V29.4097H45.2923ZM46.5167 29.2169L45.9431 29.1398L47.0952 27.4574H47.7605L46.5167 29.2169Z" fill="white"/>
<path d="M49.7566 30.8318V30.3112L49.7228 30.2003V29.2892C49.7228 29.1125 49.6698 28.9759 49.5637 28.8795C49.4577 28.7798 49.297 28.73 49.0817 28.73C48.9371 28.73 48.794 28.7525 48.6526 28.7975C48.5145 28.8425 48.3972 28.9052 48.3007 28.9855L48.0645 28.5468C48.2027 28.4408 48.3666 28.3621 48.5562 28.3106C48.7491 28.256 48.9483 28.2287 49.154 28.2287C49.5268 28.2287 49.8144 28.3187 50.0169 28.4986C50.2226 28.6754 50.3254 28.9502 50.3254 29.323V30.8318H49.7566ZM48.9467 30.8655C48.7539 30.8655 48.5852 30.8334 48.4405 30.7691C48.2959 30.7016 48.1834 30.6101 48.1031 30.4944C48.026 30.3755 47.9874 30.2421 47.9874 30.0943C47.9874 29.9496 48.0211 29.8195 48.0886 29.7038C48.1593 29.5881 48.2734 29.4965 48.4309 29.429C48.5884 29.3615 48.7973 29.3278 49.0576 29.3278H49.8048V29.7279H49.101C48.8953 29.7279 48.7571 29.7616 48.6864 29.8291C48.6157 29.8934 48.5803 29.9737 48.5803 30.0701C48.5803 30.1794 48.6237 30.2662 48.7105 30.3305C48.7973 30.3947 48.9178 30.4269 49.072 30.4269C49.2199 30.4269 49.3516 30.3931 49.4673 30.3256C49.5862 30.2582 49.6714 30.1585 49.7228 30.0268L49.824 30.3883C49.7662 30.5394 49.6618 30.6567 49.5107 30.7402C49.3629 30.8238 49.1749 30.8655 48.9467 30.8655Z" fill="white"/>
<path d="M51.8528 30.8752C52.0906 30.8752 52.3011 30.8414 52.4843 30.774C52.6707 30.7065 52.8169 30.6133 52.9229 30.4944C53.029 30.3722 53.082 30.2324 53.082 30.075C53.082 29.8789 53.0001 29.7247 52.8362 29.6122C52.6723 29.4965 52.4473 29.4386 52.1613 29.4386L52.142 29.5688C52.3091 29.5688 52.4569 29.5415 52.5855 29.4869C52.7173 29.4322 52.8201 29.3567 52.894 29.2603C52.9711 29.1607 53.0097 29.0498 53.0097 28.9277C53.0097 28.7798 52.9567 28.6513 52.8506 28.542C52.7446 28.4328 52.6 28.3492 52.4168 28.2913C52.2336 28.2335 52.0247 28.2094 51.7901 28.219C51.6358 28.2223 51.48 28.2447 51.3225 28.2865C51.1682 28.3251 51.0092 28.3813 50.8453 28.4552L50.9995 28.8987C51.1409 28.8377 51.2791 28.7911 51.4141 28.7589C51.5523 28.7268 51.6857 28.7107 51.8142 28.7107C51.9363 28.7107 52.0408 28.7236 52.1275 28.7493C52.2143 28.7718 52.2802 28.8072 52.3252 28.8554C52.3734 28.9004 52.3975 28.9534 52.3975 29.0144C52.3975 29.0755 52.3782 29.1285 52.3396 29.1735C52.3011 29.2185 52.2448 29.2523 52.1709 29.2747C52.1002 29.2972 52.0135 29.3085 51.9106 29.3085H51.4623V29.7134H51.9588C52.1227 29.7134 52.2481 29.7407 52.3348 29.7954C52.4248 29.8468 52.4698 29.9239 52.4698 30.0268C52.4698 30.0975 52.4425 30.1601 52.3879 30.2148C52.3364 30.2694 52.2625 30.3112 52.1661 30.3401C52.0697 30.3658 51.954 30.3787 51.819 30.3787C51.6615 30.3787 51.5041 30.3594 51.3466 30.3208C51.1891 30.2823 51.0477 30.2276 50.9224 30.1569L50.7537 30.6052C50.9079 30.692 51.0799 30.7595 51.2695 30.8077C51.4623 30.8527 51.6567 30.8752 51.8528 30.8752Z" fill="white"/>
<path d="M55.2645 30.8318V30.3112L55.2307 30.2003V29.2892C55.2307 29.1125 55.1777 28.9759 55.0716 28.8795C54.9656 28.7798 54.8049 28.73 54.5896 28.73C54.445 28.73 54.302 28.7525 54.1606 28.7975C54.0224 28.8425 53.9051 28.9052 53.8086 28.9855L53.5724 28.5468C53.7106 28.4408 53.8745 28.3621 54.0641 28.3106C54.257 28.256 54.4562 28.2287 54.6619 28.2287C55.0347 28.2287 55.3223 28.3187 55.5248 28.4986C55.7305 28.6754 55.8333 28.9502 55.8333 29.323V30.8318H55.2645ZM54.4546 30.8655C54.2618 30.8655 54.0931 30.8334 53.9484 30.7691C53.8038 30.7016 53.6913 30.6101 53.611 30.4944C53.5339 30.3755 53.4953 30.2421 53.4953 30.0943C53.4953 29.9496 53.5291 29.8195 53.5965 29.7038C53.6672 29.5881 53.7813 29.4965 53.9388 29.429C54.0963 29.3615 54.3052 29.3278 54.5655 29.3278H55.3127V29.7279H54.6089C54.4032 29.7279 54.265 29.7616 54.1943 29.8291C54.1236 29.8934 54.0882 29.9737 54.0882 30.0701C54.0882 30.1794 54.1316 30.2662 54.2184 30.3305C54.3052 30.3947 54.4257 30.4269 54.5799 30.4269C54.7278 30.4269 54.8595 30.3931 54.9752 30.3256C55.0941 30.2582 55.1793 30.1585 55.2307 30.0268L55.332 30.3883C55.2741 30.5394 55.1697 30.6567 55.0186 30.7402C54.8708 30.8238 54.6828 30.8655 54.4546 30.8655Z" fill="white"/>
<path d="M56.1981 30.8318L57.331 29.3567L57.3213 29.6797L56.2415 28.2576H56.9116L57.6684 29.2699H57.4129L58.1746 28.2576H58.8253L57.7359 29.6797L57.7407 29.3567L58.8687 30.8318H58.189L57.3936 29.7568L57.6443 29.7906L56.8634 30.8318H56.1981Z" fill="white"/>
<path d="M60.3866 30.8655C60.1167 30.8655 59.8756 30.8093 59.6635 30.6968C59.4546 30.5811 59.2907 30.4237 59.1718 30.2244C59.0529 30.0252 58.9935 29.7986 58.9935 29.5447C58.9935 29.2876 59.0529 29.061 59.1718 28.865C59.2907 28.6657 59.4546 28.5099 59.6635 28.3974C59.8756 28.2849 60.1167 28.2287 60.3866 28.2287C60.6373 28.2287 60.8574 28.2801 61.047 28.3829C61.2399 28.4826 61.3861 28.6304 61.4857 28.8264L61.0229 29.0964C60.9458 28.9743 60.851 28.8843 60.7385 28.8264C60.6292 28.7686 60.5103 28.7397 60.3818 28.7397C60.234 28.7397 60.1006 28.7718 59.9817 28.8361C59.8628 28.9004 59.7696 28.9935 59.7021 29.1157C59.6346 29.2346 59.6009 29.3776 59.6009 29.5447C59.6009 29.7118 59.6346 29.8564 59.7021 29.9786C59.7696 30.0975 59.8628 30.1891 59.9817 30.2533C60.1006 30.3176 60.234 30.3497 60.3818 30.3497C60.5103 30.3497 60.6292 30.3208 60.7385 30.263C60.851 30.2051 60.9458 30.1151 61.0229 29.993L61.4857 30.263C61.3861 30.4558 61.2399 30.6052 61.047 30.7113C60.8574 30.8141 60.6373 30.8655 60.3866 30.8655Z" fill="white"/>
<path d="M62.5325 30.8318V28.624L62.6723 28.7686H61.6262V28.2576H64.0365V28.7686H62.9953L63.1351 28.624V30.8318H62.5325Z" fill="white"/>
<path d="M66.0355 30.8318V30.3112L66.0017 30.2003V29.2892C66.0017 29.1125 65.9487 28.9759 65.8427 28.8795C65.7366 28.7798 65.5759 28.73 65.3606 28.73C65.216 28.73 65.073 28.7525 64.9316 28.7975C64.7934 28.8425 64.6761 28.9052 64.5797 28.9855L64.3435 28.5468C64.4816 28.4408 64.6455 28.3621 64.8352 28.3106C65.028 28.256 65.2272 28.2287 65.4329 28.2287C65.8057 28.2287 66.0933 28.3187 66.2958 28.4986C66.5015 28.6754 66.6043 28.9502 66.6043 29.323V30.8318H66.0355ZM65.2256 30.8655C65.0328 30.8655 64.8641 30.8334 64.7195 30.7691C64.5748 30.7016 64.4624 30.6101 64.382 30.4944C64.3049 30.3755 64.2663 30.2421 64.2663 30.0943C64.2663 29.9496 64.3001 29.8195 64.3676 29.7038C64.4383 29.5881 64.5523 29.4965 64.7098 29.429C64.8673 29.3615 65.0762 29.3278 65.3365 29.3278H66.0837V29.7279H65.3799C65.1742 29.7279 65.036 29.7616 64.9653 29.8291C64.8946 29.8934 64.8593 29.9737 64.8593 30.0701C64.8593 30.1794 64.9026 30.2662 64.9894 30.3305C65.0762 30.3947 65.1967 30.4269 65.351 30.4269C65.4988 30.4269 65.6306 30.3931 65.7462 30.3256C65.8652 30.2582 65.9503 30.1585 66.0017 30.0268L66.103 30.3883C66.0451 30.5394 65.9407 30.6567 65.7896 30.7402C65.6418 30.8238 65.4538 30.8655 65.2256 30.8655Z" fill="white"/>
<path d="M67.35 30.8318V28.2576H67.9525V29.3037H69.2493V28.2576H69.8518V30.8318H69.2493V29.8147H67.9525V30.8318H67.35Z" fill="white"/>
<path d="M71.9917 30.8318V28.2576H72.5942V29.9545L74.0163 28.2576H74.5659V30.8318H73.9633V29.135L72.546 30.8318H71.9917Z" fill="white"/>
<path d="M77.8801 30.8655C77.6101 30.8655 77.3691 30.8093 77.157 30.6968C76.9481 30.5811 76.7842 30.4237 76.6653 30.2244C76.5464 30.0252 76.4869 29.7986 76.4869 29.5447C76.4869 29.2876 76.5464 29.061 76.6653 28.865C76.7842 28.6657 76.9481 28.5099 77.157 28.3974C77.3691 28.2849 77.6101 28.2287 77.8801 28.2287C78.1308 28.2287 78.3509 28.2801 78.5405 28.3829C78.7333 28.4826 78.8796 28.6304 78.9792 28.8264L78.5164 29.0964C78.4393 28.9743 78.3445 28.8843 78.232 28.8264C78.1227 28.7686 78.0038 28.7397 77.8753 28.7397C77.7274 28.7397 77.5941 28.7718 77.4752 28.8361C77.3563 28.9004 77.2631 28.9935 77.1956 29.1157C77.1281 29.2346 77.0943 29.3776 77.0943 29.5447C77.0943 29.7118 77.1281 29.8564 77.1956 29.9786C77.2631 30.0975 77.3563 30.1891 77.4752 30.2533C77.5941 30.3176 77.7274 30.3497 77.8753 30.3497C78.0038 30.3497 78.1227 30.3208 78.232 30.263C78.3445 30.2051 78.4393 30.1151 78.5164 29.993L78.9792 30.263C78.8796 30.4558 78.7333 30.6052 78.5405 30.7113C78.3509 30.8141 78.1308 30.8655 77.8801 30.8655Z" fill="white"/>
<path d="M80.026 30.8318V28.624L80.1658 28.7686H79.1197V28.2576H81.53V28.7686H80.4887L80.6285 28.624V30.8318H80.026Z" fill="white"/>
<path d="M83.394 30.8655C83.1851 30.8655 82.9939 30.8173 82.8203 30.7209C82.65 30.6245 82.5134 30.4799 82.4106 30.2871C82.311 30.091 82.2611 29.8436 82.2611 29.5447C82.2611 29.2426 82.3094 28.9952 82.4058 28.8023C82.5054 28.6095 82.6404 28.4665 82.8107 28.3733C82.981 28.2769 83.1755 28.2287 83.394 28.2287C83.6479 28.2287 83.8712 28.2833 84.064 28.3926C84.2601 28.5018 84.4143 28.6545 84.5268 28.8505C84.6425 29.0466 84.7004 29.278 84.7004 29.5447C84.7004 29.8114 84.6425 30.0444 84.5268 30.2437C84.4143 30.4397 84.2601 30.5924 84.064 30.7016C83.8712 30.8109 83.6479 30.8655 83.394 30.8655ZM81.9671 31.767V28.2576H82.5407V28.865L82.5215 29.5495L82.5697 30.234V31.767H81.9671ZM83.3265 30.3497C83.4711 30.3497 83.5997 30.3176 83.7121 30.2533C83.8278 30.1891 83.9194 30.0959 83.9869 29.9737C84.0544 29.8516 84.0882 29.7086 84.0882 29.5447C84.0882 29.3776 84.0544 29.2346 83.9869 29.1157C83.9194 28.9935 83.8278 28.9004 83.7121 28.8361C83.5997 28.7718 83.4711 28.7397 83.3265 28.7397C83.1819 28.7397 83.0517 28.7718 82.936 28.8361C82.8203 28.9004 82.7287 28.9935 82.6613 29.1157C82.5938 29.2346 82.56 29.3776 82.56 29.5447C82.56 29.7086 82.5938 29.8516 82.6613 29.9737C82.7287 30.0959 82.8203 30.1891 82.936 30.2533C83.0517 30.3176 83.1819 30.3497 83.3265 30.3497Z" fill="white"/>
<path d="M86.829 30.8318V30.3112L86.7953 30.2003V29.2892C86.7953 29.1125 86.7422 28.9759 86.6362 28.8795C86.5301 28.7798 86.3694 28.73 86.1541 28.73C86.0095 28.73 85.8665 28.7525 85.7251 28.7975C85.5869 28.8425 85.4696 28.9052 85.3732 28.9855L85.137 28.5468C85.2752 28.4408 85.4391 28.3621 85.6287 28.3106C85.8215 28.256 86.0207 28.2287 86.2264 28.2287C86.5992 28.2287 86.8868 28.3187 87.0893 28.4986C87.295 28.6754 87.3978 28.9502 87.3978 29.323V30.8318H86.829ZM86.0191 30.8655C85.8263 30.8655 85.6576 30.8334 85.513 30.7691C85.3684 30.7016 85.2559 30.6101 85.1755 30.4944C85.0984 30.3755 85.0598 30.2421 85.0598 30.0943C85.0598 29.9496 85.0936 29.8195 85.1611 29.7038C85.2318 29.5881 85.3459 29.4965 85.5033 29.429C85.6608 29.3615 85.8697 29.3278 86.13 29.3278H86.8772V29.7279H86.1734C85.9677 29.7279 85.8295 29.7616 85.7588 29.8291C85.6881 29.8934 85.6528 29.9737 85.6528 30.0701C85.6528 30.1794 85.6962 30.2662 85.7829 30.3305C85.8697 30.3947 85.9902 30.4269 86.1445 30.4269C86.2923 30.4269 86.4241 30.3931 86.5398 30.3256C86.6587 30.2582 86.7438 30.1585 86.7953 30.0268L86.8965 30.3883C86.8386 30.5394 86.7342 30.6567 86.5831 30.7402C86.4353 30.8238 86.2473 30.8655 86.0191 30.8655Z" fill="white"/>
<path d="M88.1435 30.8318V28.2576H88.7461V29.3037H90.0428V28.2576H90.6454V30.8318H90.0428V29.8147H88.7461V30.8318H88.1435Z" fill="white"/>
<path d="M94.0512 30.8318V28.2576H94.6538V30.8318H94.0512ZM92.7063 29.106C93.0373 29.106 93.288 29.1799 93.4583 29.3278C93.6318 29.4756 93.7186 29.6845 93.7186 29.9545C93.7186 30.234 93.6222 30.4526 93.4294 30.6101C93.2398 30.7643 92.9698 30.8398 92.6195 30.8366L91.4529 30.8318V28.2576H92.0555V29.1012L92.7063 29.106ZM92.5665 30.3931C92.7432 30.3963 92.8782 30.3594 92.9714 30.2823C93.0646 30.2051 93.1112 30.0926 93.1112 29.9448C93.1112 29.797 93.0646 29.6909 92.9714 29.6267C92.8814 29.5592 92.7465 29.5238 92.5665 29.5206L92.0555 29.5158V30.3883L92.5665 30.3931Z" fill="white"/>
<path d="M98.4158 30.88C98.1587 30.88 97.9193 30.8382 97.6975 30.7547C97.479 30.6679 97.2878 30.5474 97.1239 30.3931C96.9632 30.2357 96.8378 30.0509 96.7479 29.8388C96.6579 29.6267 96.6129 29.3953 96.6129 29.1446C96.6129 28.8939 96.6579 28.6625 96.7479 28.4504C96.8378 28.2383 96.9648 28.0551 97.1287 27.9009C97.2926 27.7434 97.4838 27.6229 97.7023 27.5393C97.9209 27.4526 98.1603 27.4092 98.4206 27.4092C98.697 27.4092 98.9493 27.4574 99.1774 27.5538C99.4056 27.647 99.5984 27.7868 99.7559 27.9732L99.351 28.354C99.2289 28.2223 99.0923 28.1242 98.9412 28.06C98.7902 27.9925 98.6263 27.9587 98.4495 27.9587C98.2728 27.9587 98.1105 27.9877 97.9627 28.0455C97.818 28.1033 97.6911 28.1853 97.5818 28.2913C97.4758 28.3974 97.3922 28.5227 97.3312 28.6674C97.2733 28.812 97.2444 28.9711 97.2444 29.1446C97.2444 29.3181 97.2733 29.4772 97.3312 29.6218C97.3922 29.7664 97.4758 29.8918 97.5818 29.9978C97.6911 30.1039 97.818 30.1858 97.9627 30.2437C98.1105 30.3015 98.2728 30.3305 98.4495 30.3305C98.6263 30.3305 98.7902 30.2983 98.9412 30.234C99.0923 30.1666 99.2289 30.0653 99.351 29.9304L99.7559 30.316C99.5984 30.4992 99.4056 30.639 99.1774 30.7354C98.9493 30.8318 98.6954 30.88 98.4158 30.88Z" fill="white"/>
<path d="M102.71 27.4574H103.336V30.8318H102.71V27.4574ZM100.964 30.8318H100.338V27.4574H100.964V30.8318ZM102.758 29.3856H100.911V28.8505H102.758V29.3856Z" fill="white"/>
<path d="M104.288 30.8318V27.4574H106.577L106.573 27.9877H104.755L104.9 27.8382L104.905 30.8318H104.288Z" fill="white"/>
<path d="M47.8856 22.3954H50.2457V16.6911H53.4695V14.9235H44.6719V16.6911H47.8856V22.3954Z" fill="#3C9AD0"/>
<path d="M54.3195 14.9235V22.3954H62.2936V20.658H56.6294V19.4328H62.0626V17.7255H56.6294V16.6208H62.1931V14.9235H54.3195Z" fill="#3C9AD0"/>
<path d="M68.3562 22.526C72.6244 22.526 73.3676 20.4371 73.3676 19.493V19.3826H70.887C70.8267 19.5533 70.5857 20.7082 68.1654 20.7082C65.9861 20.7082 65.3935 19.5433 65.3935 18.6595V18.539C65.3935 17.605 65.9057 16.6007 68.1453 16.6007C70.5154 16.6007 70.8167 17.6452 70.877 17.846H73.3576V17.7355C73.3576 16.8618 72.6847 14.793 68.3562 14.793H67.9444C63.5255 14.793 62.9431 17.133 62.9431 18.4888V18.78C62.9431 20.1057 63.6159 22.526 67.9444 22.526H68.3562Z" fill="#3C9AD0"/>
<path d="M74.1797 22.3954H76.5197V19.4529H81.5412V22.3954H83.8812V14.9235H81.5412V17.6452H76.5197V14.9235H74.1797V22.3954Z" fill="#3C9AD0"/>
<path d="M85.0269 14.9235V22.3954H87.3367V17.4443L92.4084 22.3954H94.7183V14.9235H92.4084V19.6236L87.638 14.9235H85.0269Z" fill="#3C9AD0"/>
<path d="M100.825 14.793C96.0952 14.793 95.5629 17.1531 95.5629 18.4888V18.79C95.5629 20.1057 96.0952 22.526 100.825 22.526H101.257C105.967 22.526 106.51 20.1057 106.51 18.79V18.4888C106.51 17.1531 105.957 14.793 101.257 14.793H100.825ZM104.059 18.6997C104.059 19.5633 103.547 20.7082 101.036 20.7082C98.5055 20.7082 98.0134 19.5332 98.0134 18.6796V18.5591C98.0134 17.7054 98.4653 16.6007 101.036 16.6007C103.567 16.6007 104.059 17.7054 104.059 18.5591V18.6997Z" fill="#3C9AD0"/>
<path d="M107.349 22.3954H112.31C116.679 22.3954 117.572 20.3668 117.572 18.7599V18.4586C117.572 16.7815 116.628 14.9235 112.3 14.9235H107.349V22.3954ZM109.689 16.6911H112.119C114.811 16.6911 115.122 17.846 115.122 18.6093V18.6695C115.122 19.4328 114.77 20.5978 112.119 20.5978H109.689V16.6911Z" fill="#3C9AD0"/>
<path d="M120.712 16.6208H124.258C124.941 16.6208 125.202 16.9522 125.202 17.3439V17.3539C125.202 17.7657 124.93 18.087 124.258 18.087H120.712V16.6208ZM120.712 19.7441H123.765C124.92 19.7441 125.322 20.1458 125.322 21.0597V21.9234C125.322 22.1946 125.362 22.3051 125.433 22.3954H127.813V22.3452C127.742 22.2247 127.672 22.0339 127.672 21.4313V20.3367C127.672 19.3725 127.019 18.8403 126.256 18.6193C126.748 18.4586 127.642 18.0569 127.642 16.9823V16.8618C127.642 15.7872 126.889 14.9235 124.398 14.9235H118.372V22.3954H120.712V19.7441Z" fill="#3C9AD0"/>
<path d="M130.932 14.9235H128.592V22.3954H130.932V14.9235Z" fill="#3C9AD0"/>
<path d="M132.074 14.9235V22.3954H139.606V20.5375H134.414V14.9235H132.074Z" fill="#3C9AD0"/>
<path d="M140.469 14.9235V22.3954H148.001V20.5375H142.809V14.9235H140.469Z" fill="#3C9AD0"/>
<path d="M38.5013 22.0005C38.9974 31 31.3862 39 21.9974 39C12.6085 39 6.49475 31 5.49738 22.5C4.5 14 12.6085 6 21.9974 6C31.3862 6 38.5013 12.8878 38.5013 22.0005Z" fill="white"/>
<path d="M31.4546 29.3524H22.5019V15.8689H31.4365C34.3413 15.8689 36.4012 16.3327 37.8431 17.0708C35.6243 10.4334 29.3582 5.64941 21.9743 5.64941C15.0441 5.64941 9.09838 9.86346 6.55957 15.869H20.9616V19.0587H15.1441V29.3526H10.8852V19.0587H5.57565C5.35976 20.1315 5.24609 21.2414 5.24609 22.3778C5.24609 31.6167 12.7357 39.1063 21.9745 39.1063C29.1752 39.1063 35.3131 34.5565 37.6708 28.1751C36.2453 28.8946 34.2421 29.3524 31.4546 29.3524Z" fill="#3B99D0"/>
<path d="M26.7227 19.0586V26.1084H31.1084C35.8929 26.1084 36.5272 24.0062 36.5272 22.6288V22.5201C36.5272 21.1427 35.9654 19.0586 31.1084 19.0586H26.7227Z" fill="#3B99D0"/>
</svg>
